<mxfile host="app.diagrams.net" modified="2021-12-24T05:03:04.012Z" agent="5.0 (X11; Linux x86_64) AppleWebKit/537.36 (KHTML, like Gecko) Chrome/96.0.4664.45 Safari/537.36" etag="j5VNNdnUvqvD1PWmqc7c" version="15.2.9" type="github">
  <diagram id="TM8jc4NBS-P3mIar8RK_" name="第 1 页">
    <mxGraphModel dx="1422" dy="788" grid="0" gridSize="10" guides="1" tooltips="1" connect="1" arrows="1" fold="1" page="1" pageScale="1" pageWidth="827" pageHeight="1169" math="0" shadow="0">
      <root>
        <mxCell id="0" />
        <mxCell id="1" parent="0" />
        <mxCell id="C0XAzO81hBhKXg0jQggx-30" value="" style="rounded=1;whiteSpace=wrap;html=1;glass=0;comic=0;shadow=1;" vertex="1" parent="1">
          <mxGeometry x="474" y="822" width="110" height="320" as="geometry" />
        </mxCell>
        <mxCell id="C0XAzO81hBhKXg0jQggx-29" value="" style="rounded=1;whiteSpace=wrap;html=1;glass=0;comic=0;shadow=1;" vertex="1" parent="1">
          <mxGeometry x="78" y="822" width="110" height="320" as="geometry" />
        </mxCell>
        <mxCell id="pSxadLKcS4drCLlNTBEl-26" value="" style="rounded=1;whiteSpace=wrap;html=1;shadow=1;" parent="1" vertex="1">
          <mxGeometry x="427" y="320" width="186" height="120" as="geometry" />
        </mxCell>
        <mxCell id="pSxadLKcS4drCLlNTBEl-2" value="&lt;h3&gt;Query Engine&lt;/h3&gt;" style="rounded=1;whiteSpace=wrap;html=1;" parent="1" vertex="1">
          <mxGeometry x="427" y="320" width="140" height="30" as="geometry" />
        </mxCell>
        <mxCell id="pSxadLKcS4drCLlNTBEl-3" value="&lt;h3&gt;Storage Engine&lt;/h3&gt;" style="rounded=1;whiteSpace=wrap;html=1;" parent="1" vertex="1">
          <mxGeometry x="450" y="520" width="140" height="30" as="geometry" />
        </mxCell>
        <mxCell id="pSxadLKcS4drCLlNTBEl-4" value="" style="rounded=1;whiteSpace=wrap;html=1;glass=0;comic=0;shadow=1;" parent="1" vertex="1">
          <mxGeometry x="210" y="320" width="110" height="320" as="geometry" />
        </mxCell>
        <mxCell id="pSxadLKcS4drCLlNTBEl-5" value="&lt;h3&gt;Data Collector&lt;/h3&gt;" style="rounded=1;whiteSpace=wrap;html=1;glass=0;shadow=0;" parent="1" vertex="1">
          <mxGeometry x="210" y="320" width="110" height="30" as="geometry" />
        </mxCell>
        <mxCell id="pSxadLKcS4drCLlNTBEl-10" value="" style="endArrow=classic;html=1;exitX=1;exitY=0.5;exitDx=0;exitDy=0;" parent="1" edge="1">
          <mxGeometry width="50" height="50" relative="1" as="geometry">
            <mxPoint x="140" y="339.63" as="sourcePoint" />
            <mxPoint x="210" y="339.63" as="targetPoint" />
          </mxGeometry>
        </mxCell>
        <mxCell id="pSxadLKcS4drCLlNTBEl-11" value="" style="endArrow=classic;html=1;exitX=1;exitY=0.5;exitDx=0;exitDy=0;" parent="1" edge="1">
          <mxGeometry width="50" height="50" relative="1" as="geometry">
            <mxPoint x="140" y="439.6300000000001" as="sourcePoint" />
            <mxPoint x="210" y="439.6300000000001" as="targetPoint" />
          </mxGeometry>
        </mxCell>
        <mxCell id="pSxadLKcS4drCLlNTBEl-12" value="" style="endArrow=classic;html=1;exitX=1;exitY=0.5;exitDx=0;exitDy=0;" parent="1" edge="1">
          <mxGeometry width="50" height="50" relative="1" as="geometry">
            <mxPoint x="140" y="529.6299999999999" as="sourcePoint" />
            <mxPoint x="210" y="529.6299999999999" as="targetPoint" />
          </mxGeometry>
        </mxCell>
        <mxCell id="pSxadLKcS4drCLlNTBEl-13" value="" style="endArrow=classic;html=1;exitX=1;exitY=0.5;exitDx=0;exitDy=0;" parent="1" edge="1">
          <mxGeometry width="50" height="50" relative="1" as="geometry">
            <mxPoint x="140" y="619.6299999999999" as="sourcePoint" />
            <mxPoint x="210" y="619.6299999999999" as="targetPoint" />
          </mxGeometry>
        </mxCell>
        <mxCell id="pSxadLKcS4drCLlNTBEl-14" value="" style="shape=link;html=1;width=36.95652173913044;" parent="1" edge="1">
          <mxGeometry width="50" height="50" relative="1" as="geometry">
            <mxPoint x="80" y="260" as="sourcePoint" />
            <mxPoint x="760" y="260" as="targetPoint" />
          </mxGeometry>
        </mxCell>
        <mxCell id="pSxadLKcS4drCLlNTBEl-15" value="&lt;h2&gt;Parallel Time Series DataBase&lt;/h2&gt;" style="text;html=1;strokeColor=none;fillColor=none;align=center;verticalAlign=middle;whiteSpace=wrap;rounded=0;" parent="1" vertex="1">
          <mxGeometry x="277" y="240" width="274" height="40" as="geometry" />
        </mxCell>
        <mxCell id="pSxadLKcS4drCLlNTBEl-16" value="Query" style="text;html=1;strokeColor=none;fillColor=none;align=center;verticalAlign=middle;whiteSpace=wrap;rounded=0;" parent="1" vertex="1">
          <mxGeometry x="479" y="470" width="40" height="20" as="geometry" />
        </mxCell>
        <mxCell id="pSxadLKcS4drCLlNTBEl-17" value="" style="endArrow=classic;html=1;exitX=0.168;exitY=1.005;exitDx=0;exitDy=0;exitPerimeter=0;entryX=0.288;entryY=0;entryDx=0;entryDy=0;entryPerimeter=0;" parent="1" edge="1">
          <mxGeometry width="50" height="50" relative="1" as="geometry">
            <mxPoint x="518.6600000000003" y="440.5999999999999" as="sourcePoint" />
            <mxPoint x="518.6600000000003" y="520" as="targetPoint" />
          </mxGeometry>
        </mxCell>
        <mxCell id="pSxadLKcS4drCLlNTBEl-18" value="" style="endArrow=classic;html=1;" parent="1" edge="1">
          <mxGeometry width="50" height="50" relative="1" as="geometry">
            <mxPoint x="320" y="607.5" as="sourcePoint" />
            <mxPoint x="470" y="607.5" as="targetPoint" />
          </mxGeometry>
        </mxCell>
        <mxCell id="pSxadLKcS4drCLlNTBEl-19" value="" style="endArrow=classic;html=1;" parent="1" edge="1">
          <mxGeometry width="50" height="50" relative="1" as="geometry">
            <mxPoint x="613" y="353" as="sourcePoint" />
            <mxPoint x="683" y="353" as="targetPoint" />
          </mxGeometry>
        </mxCell>
        <mxCell id="pSxadLKcS4drCLlNTBEl-20" value="" style="endArrow=classic;html=1;" parent="1" edge="1">
          <mxGeometry width="50" height="50" relative="1" as="geometry">
            <mxPoint x="615" y="415" as="sourcePoint" />
            <mxPoint x="685" y="415" as="targetPoint" />
          </mxGeometry>
        </mxCell>
        <mxCell id="pSxadLKcS4drCLlNTBEl-22" value="" style="shape=image;verticalLabelPosition=bottom;labelBackgroundColor=#ffffff;verticalAlign=top;aspect=fixed;imageAspect=0;image=data:image/png,iVBORw0KGgoAAAANSUhEUgAAAMgAAADICAYAAACtWK6eAAAAAXNSR0IArs4c6QAAIABJREFUeF7tfQt4VNW59vutPSRAQDKTkFArXkgmXMRrRfFSK9oWq8dbpdq/2uOtHsgM0ovt09rWUuzfe//aA2QC2mJtj6einLbYesF6+6XeqNTWBgKZAbRgJZDsSVAuSWav7zxrkmASEzJ7Zs/M3pO1n2eenUnW+r73e9d+s29rfR9Bb5oBzcCQDJDmRjOgGRiaAS0QfXRoBo7AgBaIPjw0A1og+hjQDKTHgD6DpMeb7jVCGNACsTHQR698dWwnyidworOUiSaQECVSWqOFMIrVnmAUM8nRxKJ7L+VoFuIQsTjEJDuSe1gdQhiHpOzes5T7ibmdfEVtRWhp/9f8Mw7YgKSbZpmBES2Qo37eEPAliicRW5Mki0kEmkRElZIxicCTwAiAMIEZpSQwAYyiLI8HQOhkiXYitIHRDoLJoN2CsJuZmxm8W5DczWTsTvg6du/73Ewz65hGsIMRIZDyyPapDDkd4OmSaDqYZxAwHcDYAhj7Aww0gmizYG4EqJEgGltCU7YWQGx5D6HgBDJxxbagZcnzQfRhgM9AtxBE3pnOPQAJJRzQq2Bebxji+b0LqqK5h+Ftj54XiD+y/WTB8nwW/GEwzgcwydtDklX0u0F4niStlySej4emvJ5VbwVg3HMCKVvedJYUOF+APsxICmJCAYxDnkKgOMDPMOMZFniprTb4Wp6AuNat6wVSVr/9TIZUZ4dzwHwuCJWuZdP7wP4F8PMAvUJkvNhaO2WD90PKLAJXCsQf2XKygHEpE12aFIXe8sMA0QvE/KiE9Wg8NG1EXo65RiDlyxtrJPkuhUiK4qL8HBHa65AMED0NyY8KTjzasnB600hhKq8CKf/F3vF8qP0qFrgSzFeNFNI9HyfR70ji9zR6wu9abpn4jufjOUIAeRFI2fJtF0khryLgSgAfLGSCCzy2txj4vZDid60Lq54uxFhzJ5Cl0WL/KNxMjBsBnFmIZI7wmDYw4ZfxLqzComBHoXCRdYGU3v1aqSgedzMA9TmxUIjTcQzJwCYAq2THu6vavnham9d5yppAyu/e/AEuKrqZiZUwpnidKI3fNgPbiWkVdXauavnijLdt93ZJB8cFUr00Wtzqo0VEvAiMY1wSp4aRLwYIu5hpaVmCl8Y8eOnlqEACkW03AXIRgFPzNR7ar2sZ+Bsglpqhqvtci3AQYI4IxL9i+2UklTD4o14KXmPNBwP0FAuxNL5gyh/y4d2uz4wF4o9Ev0vA1+061u1HNgMMfC8eCn7D7SykLZDS+uhpgvEDAB93e5Aan2sZeFISvubmSZJpCSRQH7sVLH8AUMC11GtgHmGATZD4mllbfa8bAdsWSCDS9GOAvuzGYDQm7zJA4BWtoZpat0WQukAWNxSVVRSvYsJ1bgtC4ykYBl48aozvojduOuGQWyJKSSCBpdFj4OO/60sqtwxbQeN4FwJnmQuCm90Q5bACKV0WvUAYeNYNYDWGkcOAJJzuhpv3IwpEi2PkHJCujFTgxHyfSYYUSI841gE5yAXlytHRoPLPAB2A4Fn5FMmgAvEvazyJjFGPAHx8/knSCEY4A5sgcE2+RDKoQAL1sUfBfMkIHxgdvlsYIHrMrK2+NB9w3ieQQH10MRjfzgcY7VMzMCQDLJeY4ak5Py77CcS/fOslJMSjepg0A25kgKW8NL5w6mO5xNZPIIH62F/AyXSdetMMuI8BolfN2upZuQR2WCBl9dHPMuNXuXSufWkG7DJAhH9vrQ3+2m6/dNsfFoi/LvoMEeaka0j30wzkggFmPBsPBy/MhS/lIymQshXRK1ji97lyqv1oBjJhgASubF0QXJuJjVT7JgUSiMR+CfANqXbS7TQD+WSAGA+0hoPX5wID4SE2/HtjbxNhYi4cah+agcwZYNNsfqsSS+YkMrd1ZAsUWN70MQh6MtuOtH3NgJMMkMSVrQuzf5lF/rpoHRFCToLXtjQDWWeAca8ZDv5Htv1QIBJ9GcBZ2Xak7WsGHGbgFTMUnO2wzfeZI38kGiWgOtuOtH3NgJMMMBCLh4JBJ20OZosCkaZWvVIw2zRr+84zwKYZqilz3m5/i+oSi7PtRNvXDGSDATMUHHZFbKZ+tUAyZVD3zxsDWiB5o1479gIDWiBeGCWNMW8MaIHkjXrt2AsMaIF4YZQ0xrwxoAWSN+q1Yy8woAXihVHSGPPGgBZI3qjXjr3AgBaIF0ZJY8wbA1ogeaNeO/YCA1ogXhgljTFvDGiB5I167dgLDGiBeGGUNMa8MaAFkjfqtWMvMKAF4oVR0hjzxoAWSN6o1469wIAWiBdGSWPMGwNaIHmjXjv2AgNaIF4YJY0xbwxogeSNeu3YCwy4UyAsl4DEYi8QqDF6iIE0jivXCkT4jP8vJb4D5nM9NAQaqjsZeJGI7mRpnW/3H69rBZKsFfcs+/yNsbsIuMOdvGtUbmeAgB+2Tq/+JuZQIlC39duFJZAe9v2R2CeIcJcu3eb2w9E9+BjYCPDieKjmcD3MghWIor38F1vGyw5xF0BfcM8waCQuZeBnotj6Vsst097pi6+gBdIbaGBF9GxihJlxnUsHR8PKEwNEeIAJdeaC4EuDQRgRAjkslLrtHyeyFjJwWZ7GQ7t1CQME/IHZWG6GpxyxBs2IEsh7QonOY0KYgAtcMl4aRo4YYOA5YtSZ4eCaVFyOSIEcFkpk202AVQtQTmtcpzIwuo3TDPBfAKPeDFXdZ8fyiBZIL1H+yNZPENM8kLga4Al2CNRt3cwAtYPl/zDxmnho6uPpINUC6cNaWf3ODzJ1zoPkeQCflw6huo8bGKA/Q9Aa4qI1rbWT38oEkRbIEOyV1ccuBCuhYB5DV9rN5CDLRV8C9gJYA6I1rbXVzzjlUwtkGCaP+mlDwCgumksk5gKYC/Akp8jXdjJlgHYDWMcs11kdnev2fWmmmanFgf21QGwwOrGuYZwliuYC1P1hPtZGd93UCQaI/gnwOvUxZOe6veGZ7zphdigbWiDpsru4ochfUTwXpM4qmKsLjqZL5PD9VGFMdaYAY118T8c6LJnZOXwvZ1pogTjDI8rqts6SELOIcAYA9dh4pkOmR5wZAl4D6BVm/FX4eGPL/OBf80VC4Qikm8HHBejOllD1xnwR2uu3fOXmD7A0ZkMasxk8G5QUzZh843KffzoA4hcAvMBMG4oIG5trq/fkG2fpsugFZGBxOi+T3TndvS+jRL8RjP/nBqH0hVW+PHo6C3kSIKYDmCGB6SPp0kxdKgmgEcBmQDZaJF5vqw2+lm8x9PWvhCEEvgrCxenicr9ADkfG9wiIe9wmlH7EL24oKv3A2OlkJWaQENPBPAOE6WDMSHeA8t6PsBmMRhBtZikb2fBtbnv7QGMu7x3sclAaiX5EAGEAn7Lbd2B7DwmkFzrfQ8w/bw1P/Uumweeyf8XP/lHZNWZshbASlZJFJQlUEKOSmSshRIXaq+8QqACjKGvYCJ2Q2MOEZiJqhpR71F59Z4k9gmSzNHzNow4e2LPnCyc1Zw1HFgyre0cWYgEYNztl3oMC6Q6dgUfA4sH4nimrsYSkU4S4wc7x9+0Y3br/UIlvVFGJSFglJGVJYlTRWLUn5hIiKpHMJSBOfmei/WDaL4j2M/N+9Z2F2O/r6jyg9tJn7E90de4vKxm9/42bTjjkhhgdw7CYhb9i+7Ug+WkCLnfMbo8hzwqkDxGbAawWUjzYsrCqyWmCtD13MlC+fFuNFPLTAK5V94DZQlkIAunhhrsY9CDAq/sus8wWcdpufhjwR5ouBehaAn8aoFHZRlFAAulDFeEfYForBK1tWVD1arZJ1Pazy0D5im1nSMlXgPgKME7Krrf+1gtTIP1jfIYkr7WQWNu2cMabuSRX+0qfgdLlm48z4LuCBV0B4ML0LWXWcyQIpJehgwCvBfCkZdDz7fOD2zKjTvd2moGkKETRBQx5MZAURt5fxo4kgQwcz5cBXk/gJ1tDU59yerC1vdQY8NfHzhUs50jQRem86U7NS/qtRrJA+rLWzsCzxPSYYdBzexdURdOnVPc8EgMTV2wLWpY8H4SPAfg4AL+bGdMCGXx04gA2AHiFITZ0JeSGdxcF1SIevdlgYNzS6MRRPnEmQZ4J4CwAau9qQQwMTwsk9QHfoUTD4I2AaCBGgxmu3pl698JuGaiLTWZSs57lTAJ9qEcMJ3g9arcKRD1tOs4D5LYD2ARwA0E0gBKbfPA1uGEGa7a4q6yPVSSQmAn2nciQMwFSSwFOBOCBBBn0JsC2jit3CoTlEiYxhYDPZmugs2x3HwB1dtmV/LDcBYidENgFwk50Ype5KKjauGoLLI0ehSIcA8ZkSBwDyMkgcQygfk5+JgM4ylWgUwTDwH8Ry20Flbw6EIl+DsB3ABTi2vEDUMkJiPZCcgsT9qpkBQS0sNoL7LUSHDeADovQYaCoI0HUYSQ6OzuBjiKgwwQ6sCjYgaXR4gBQ3AkUFwHFlq+oyMdcbKGz2GAUW0Cx4SM/S0wkYCID5Sp5BTEmQlA5mCeiO5nF2BSPNw81o91gfMsMV99bOAumWC5Jlj9QSasjW6ZKNu4C4RoPjYqG6g4GHiZLfqv1tqlbFJyCFEgvz2X1sYXMfJfXnoK44zgZcSjiBF7cGqpZ1jfyghaICrS0rulUQVgE0E0jbsh1wCkywPdJxtK2cM3fBnYoeIH0BpxcSulDGAyVDE5vmgGAsEYmUNd2W/C5oegYMQLpJcBfF72MiBcCpN7I6m1EMsBPMtPyeDj4h+HCH3EC6SOU60itQSacPRxJ+u8FwgDjJQbq4uHgA6lGNGIFcvhGPhK7AWCVf/ffUiVNt/MWAwT8EaA1raHq++0iH/EC6SVMpeSxBOYRkvcoQbtE6vauYyDKwBpDYk3LwvQTz2mBDBzXla+O8ieOmkekhEKfdN2wa0DDMMC/ZcaauG/fGsw/o2uwxv6V2yZwpzyNfDwOEOOI1R7jCDROJjO48Lsg7ANxG0k+o6DepDt5/PjrN88kjLoanEwiNttJ29qWowy8DJbrWFhr4rUzGvpaPuanO8fsH3PwIsHiVAZOA8vTQJTVCZGunYvV+ybdUep7jJWvjJ7OlryYWaiE1ednw4e2aYMBxvNEch0Z4omBuXv9kS0ng3wXk1o7wnyRDauONB2RAunLnL8+NpOkvLg7szt91BFWtZEUGOCnVIZ3FuKJeG11vzOFygvWfiBxMxH+vWcdSQr2stNkxAukL61q3heTmMuMswk0i4Gq7NA+Eq3yVgJtBPErxHJdS2ja1oEsjF/eWOYTxs3UPVNC5Tx2w/aEAH0zmylvKRBRDyFsbESHwHSHGar6mY1ejjctW7ljGqQ1G+BZzKp6LusKuqmz/AIRvcASfzWAjXvD1aouyODbQw8Zgb2n3AkSShiuLGTEwK8M0NJsCMW+QA7TSE1g/kaqdbBTH7v0WqqbxEPFHbOZWN3kz2YkczRl9SYxPaQ577WDoXKR8QsQ4oUJo42NqaY4DdRH54Lpm94ptMr3MHx18dCU151iOQOB9EKgp8Dix2Z4ypNOgXLKTlI0JYemW5ZKf0nTAZ5B3fupTvlwjx3ayuBGgDYD3GgY2Dx6/+jGXV+afNAuxuTiLB/fCdCX7fbNe3tGMwl8pbU2+GsnsDggkG4YRHiACXXmguBLTgDLqo2H2PC3bptO4BmQcgaRqGBwJSAqkNxDfdy0Ok+tcGwGqBmQewjUzCz3QIjNDNocL6tqxDVkOcFZ2codZ7GVWAHgVCfs5c8G/8QM1XwlU/+OCaQPkPtAWG3WBtdlCi6f/dXTmrb9XGkYXZUSvgqSspJICUceJWGMJeISMEoIKJFQe/WdSkDJlX8lfT77AXR/GKrK034G7RfAfla/I+xnlf0d1gFA7GNGMwvRLJDYY1mjmktLqDnVS6JM+SqNRC8XgErgVyjbkwzjK5lccmVDID3k8p8J9GCnIVe/M39qS6EwXqhxlEVitzF4acHFx8kz7+fNcPXqdGLLokAO36PsVmcUMD9ohoIvpwNS98kuA4FI9DEAn8iulzxbl7jFXBhcZRdFDgTSBxLRY8xYO2qUWLvn1imeqpBkl1ivtPdHos+6Ma1oNvgjpttaw9XL7djOrUB6kTHaQLyWiNe27q5ZW2hVqOwMQD7bBuqiq7OWcIPobZL8DIP+RsAeBvYI5j1SYo/Z2rHn6KMDvoQ4NJ4tPopJjk904igyaBYRnwlOZnnMyjsXZv5qPFzzo1R5z49A+qEjVXlqLRPWxmurVZliveWAgUBd7D9BvMhBV+0geoGkfBGMp1oX1rySiW01gVXwqMsYuK4n+V0m5vr37ZOZZzijLhBIX4j0Oqus7izXwxKPuzGB23CEeuHvgfrY7WD+iTNYKc6EiFFUFGm55dh/OWOzj5WH2ChrabqeSVwHTibVdmQTwBUtoeAjwxlzmUD6wVVrDNYT8JQljMfaFkz5+3DB6L8Pz0B5XWyOJH5m+JZHbsFABzEiBihyxKkqmTrq0z9QF50HwhcAnJu5Wd4KFh8bLoezmwUykIO3iPAcQBuYeYPZXL1B37vYO0xK736tVBSPWw+oRNYZbMwrmWQkHprm2JQOO2jKIk23MUgJZYqdfu9vq56s1vyfI9nwkkAGiQ+vMrBBkNwApg2t4ZrGzAgr7N5lkeivGbg+syj5ZjNUc19mNjLvnUzUzXw3A5/JxNpwN+3eFsj7mVFvrBvAKqs7GmBwg6Cihpb5x7+dCYme6/sQG+Vt26usBFcJQhUzVxFQxcBlaceSnMXNc9z2LitQF70HhFvTjkt1lDjHXDj4FKlCE8gQPLEJogYCGhiIgbELErtQjJ3mrUGV5d2TW+ny7ccZhlQHfhVJWc0kqgFUA6ySYThYQ5Ca2KAz4/OrVEkJ123pJHwYEMTDZig4aH5p+wJhuQTC+CSYc1ryN6ujogQjsDMpHMYuJnpbEPZKyBZhYW9CFO81Ep0tuXiqVvnjv5fsLx471jcqUSLIN5YsUWJJWSIMVBNzMHsiGOp/C79ihmtcnyege2o+nsjgOLnGDAUfHtg/LYFYNPo/BTq/k0wIN4I2AjpUKQQwWpgRT35XT3O6f9+97/2efMojO0HGWGYuIUFjwWpCI5cw0djk5EbQWIBKkn9/b5Kjmxh9ywwFVe0RT2z+SNNnCJRysrp+QRFeMmuD5zgikN6kDYH66DXgZI2QGk8wqEHaYIDfYRLnDFyTbsNAXpr666NfI8b303JO+JJZG7y7b9+0ziB9s5qUL9tytDQMVfrglrRA6U6uZICk/GTrwqm/cyW4YUAFIlE1KdF+lQHGrk4Lp/ctCpuxQHqxlkViNzD4iwBO8SKpGvN7DBDRj1prq7/qVU5UwjqypLofsX3vxBC18VCVWjCW3BwTSNKaKjemSh9035tk+BLHq8Pjddy8tcvg87y+hscfabqUQH+0PRrMT5vhmsMpppwVSA+a8Su3lo9KYCFIKKGU2wapO+SPAcItZq39dRP5Azy050Bd9GEkU9va3JjONcPVLzp/BhmAY0Jk6xQDIqyedjFQbBOmbp5jBlR29tZQMP2XiTnGO5y7DOad/dQMBW/PukB6AyhdsfUUkr5biXgeOJkUQW9uZIB4nllb8z9uhJYuJn8kej8hmQXSzvZPgztO3Bue+W5WLrGGQjJ++a4yn3FoHiXLs7FOJWpnyLLdlvC8WRv8SLbd5Np+T5YW20u9SYirWxdU/TanAulLTqAudg6EOqMkrxEn55o47a8/A0R0U2tt9S8LkZdAfey/wXzEWbsD42ai78Zrq79JgfrYbluXPTZWY6VCdvkvtoyXHaJbKEQqcQCl0k+3cY4BNT8tHgoWbDGjQF30FhB+bo8xetwMVV9CgUhsg628tg4LpC9odVMvSKhM7nPBrNLq6xt7e6OaVmsGL4uHapxcfpsWjmx1Grc0OrHIh90ARMo+iJrN2upJ6hJrDYCrU+6YRYH0uwS7N3oMOqFqhMwFkoV1xqeMUTe0xQCDLomHqh+31cljjQORqEpkaKvispBiKgXqoz8FQ70BT23LkUD6gkkujgEnzyoMcS7Ax6UGVrcalgGiQ2ZttYNT44f1mJcG/rpoiAh1dpwzi8+Qv37bvxHLYetYv2eYnhKC7mhZUPWqHWdOti2tazpVQMyC4FlgVfaAPJ5H1kl2bNpi/MkMB239Z7XpwRXNey6z9tgBw8D3kjfEgUj0LQBH2+kMwiqL5XfbQ1O32+qXhcYTIm/6BbpmE7pLH/R83JR8OgtRO2SS+TdmuCajZasOIcm6mUAkZgLsT90R35MUiD8SVUq5I/WOfVqyXNLlw3K3zd1Rq+1IdM0gCFUNaUayKhJjBgilacVZqJ2Ylprh6s8Xanh94wpEYlvslb6g33afQVZEz4ZEcu5JWhtRM5h/ZCZQh0XBjrRs5KhT+co3PsBdHTNgGNPBPEMC0ylZ7kC94adAjmBk4IbfBcQbAN5kyO0CtBWQW5mNrVJylTDwrC3jzN8ywzVqTU/Bb4FI7HmAP5x6oKzSTnVvZZHoIxkt6u8283dm3GMVj35w3+cmm6kDcUnLxewrm9RUmbBEpUFUocodSJaVBKpgQiWpaTJE40GUXBmoyh+ADpc6sP3+pmcF4iEAqshN8sOggwQ+xIwWEvQGJL9J4DclyVg8YWw90j+g0mXRC+wKhCVC8YXBepeMQFZh2H5iCzQeHlT7N+tHjOVfKqM7Wbw60xSUWWXMQePHPLRzTHv8QInRNapE+KwSsmSJJUWJQXxQCt9Bn+CDlsWHunzWwbH7Dh1sfvfkg07n9UpHIGB8yi1l9BwcjkFNlUWiEQZqU/fDLf3+6zl0Funnn4A/SMLq+O5dq7FkTiJ1cLqlXQbSEYi0MKfttuBzdn15sX062U/6CcThs0h/DhlbALlajir6fdt/nPA3LxLsdszpCAQFOIN3qHHy10XriBCyMY6t77tuDtTHVoB5vg0j6TR9UtUJEUKuba2dqh4x680BBtIRCEPOj4em3uOAe9ebCESiDwH4VOpAqWnQG0vb87NS99i/JeEdYqxlgbUmVa/FfFIJq/WWJgNpCYRwR7w2+IM0XXqqm+1iQYSXBhdIsgww1FMoI4cMbAf4KQatN4yup1vmzxhZ6UIdIDodgQD0EzNUnXE1WAfgZ91EIBJtsFNrhAh/HPLRZPny6OlSYGPWUQ/pgNcz43mC9ZgZnp7+O5r8BZBzz/5ljSeR4bObcf0+MxS8Oedg8+DQXxfdQ4SJqbpmxq+O+Ow+sCI6AzKZCDrPW/Jx25MMepZhbMikrG+eA8m6+0AkynacMPBIPBS8wk4fr7a1yw0Ydw/7cqtHJC8BcNPcpkMgbADzBlUvREpjQ9vCKW96deCcxB2IxHYAfHzKNgn/MGuDJ6fc3qMNA5GoujlXN+mpb4QvDSsQZa1HJMr4ialbz3FLVQ+b6FViuQmCGiygoU1UN4y0G/901j0YTMFcVYnK8VFx2F0gEnsQ4Gtt+Zc4JyWB9BGJqmvntXraTQA1ANygLhctIGZJ7OybXtIWaS5rPLFuzziJtskMUuv6JwNyMkgstgOTQItaQ9XL7PTxWttApKkFoDIbuA+aoeDYlAXSazhQH7sLzHfacOTKpioLOwBVG2Rncq9KHwA7mbDLYPF2Qna1FInEXpX6JZ8BHH/fjtH7O+RkyTwZjMlMOBbMx4FxLIhUqeRjAc50wdPjZih4ST7jzKbvsrqmTzKRrXRGDDwXDwXn2BaICqQ8Er1cEr6fnD5e8BsdBLhFlT0gTn6SPwOID1r6gIwOKa1OQeiQCXSIUTSaGGMkyzFE3T8z8xgiMVqCx6jvRBitfgchRnPP73ru+ZQA7K3TSXM8JPNpbeGagpzhUFYfrWO29QYdxPyj1nDNV9MSSFIkKqu7EN8F0Y1pjonu5iYGmJea4ZqCWxdSWr/jeAHrZVuZe1RqHearW8M13etBMtn89duuIym/BdI1QjLh0QV991koOq09dFzeV4g6yYXtnAs9zonkMWoaVMYCUfYm1u2YJEXiTrunMSeJ0LacYID/rxmq8fz9ZS8T5Su2nSGZ1dnD1owQAv6rNRT8rLLjiEB6AambIUn0dQI+5MRwaRs5ZyDOVuIj8dum/yPnnrPg0F8f+xUxJw90WxvhYrM2qNIEOSuQw0Kpj93IUt4CovNsAdON888A4yEzHLT3viD/qN+HILAidjEk28/1RfS0WVv9Xn2QbMYWqItdCySF8rFs+tG2HWfgVjMUtJmq03EMaRvMpMLUwBzFjl5iDRWReixsATcRcGXaUeuOuWTgTQhcYi4Ibs6lU6d8pV2jENhsNlefgiV0eOVrTgTSG3hpJPoRAb4BoBts5Ul1ijltxw4DmwzumJ3vF6V2AKu2mVS5JeDrraFgvwq5ORVIb7D+ldtOIsk3gOWNNl//2+VLt8+MgU1mKDgzMxO5651JnXQGtnUlcPbAKUh5EUgvZYF7o8dQF13FYDW/y2tzvHI38vn19KIZCp6bXwjDew/UxS4GpXFT3mOaGeF4OBgZ6CmvAukLZmJdrFoSPqHFMvzBkOsWal4SYHzeretwyuqj32fG1zLg5QkzFBz0H7RrBDKYWCRwIYEvAHS60AwG36muuxl8ezxU899OGXTCTiDStAag1Mt3vP8U0SkZn2oLBR8ZDI8rBdIXqJrN2n5IfpRYXgRAiUVncnfiyErThsp4Hg8Fv5Fmd8e6JYstQfyCuo+JtLfhige5XiADI0/m1pVdH2WJC0BQLyJr0mZHd0yLASaslQK3t88PbkvLQIadyiKxGxj8ZQCZPkDYBIFrjvQ423MCGcitqvtQLOR5TKqwDs4D4awM+S/U7u+AkkuU14PxbQeC3M3AKmlgVa6E4o80XaoWd9mtFDVMrEcUiecF8r7gF7OvtDx2Hhk8jUBTAUwDaJqtddoOHD15NvEOAxuJsREGXjasjj/vDc9UNfqSm8PJAfeB+D5m36ps3cSXLW86C4IWMZCkg22nAAADWElEQVStOiZDiqTwBDLEkanuZdoOdE0jwdNIYhqEmAzuWZHXvUpvdJ4PapvuSTJ4OwHbCNjORMk9WbSpZWFV03DGyiLRtQxcPly71P9OFoA1BF5PUvwpFQxHsp2Hp5qDimTECGS4gVZ1EC2iYxk4lqVaxmp9kEEVqnYIARXcXT+kAoBvOFuZ/Z2kWsEIoAWMFlD3zwxqAeSbQvi2Jbq6trffNm1HZn6ShZOezfQmd2gM9DqY/yQl/ugzjLctg3fH51e1D9a+9O4dpaPGyImWxROJ+AJmvhxE+bhUfp9ItEBsHmXjlzeWFZFRYUmqFD4US0axAIoZKCbu2YuevZSjiURHcmkuUycLtbc6JRkdQsrknqTVyYY8YDBaOotK9ua6rkog0vQbgD5tk4Z0mx8E824QqayZY9VSIoArABqVrsEs9OsnEi2QLDDsNZOB+uhih27cvRb6UHgPi0QLpFCGNMM40qmdkaFLt3d/2AwFr9ECcfsw5RBfoD52O5h/mOOk5TmM0K4rvlkLxC5nBd6+vC42RxJ+CKj6817e6H6w9YbdJHr9Imb+jRaIl4+BLGEvvfu1UjF6/A9yUEgpGxG8woxl8XDwAWU8w0vHwQvoZAO1tuk9BgJ10XkgfAGA66e7A+gE4XudXYgMXNORgUj26TOI947bnCMuizTdxiAllCk5d56CQzU3TFj8/SNVVE5TJOu0QFIYAN0EUC9SE8yfY+B6ANPdwAkDvxZS3N+6sOrpVPDYFgnLJVogqTCr27zHwOKGokBF8WeZcH323sIfkfB2MN8vmO5vWRj8q92hsSGS5HJjLRC7DOv2hxlQy1xJYA5LvhCEM7JFTU+S8OfA8mUpin7ZVnvCG5n4SkkkAieqafBaIJkwrfseZqCsfusHIY2LWOA8MJ8J4JQM6XkZTH+C4BfQhZfMRcF9Gdrr172sPnYVwD9mRlV/u7TegnVje2hqMkexFoiTrGtb7zGwNFrsLxazyJJnElElmMdLYDxA44gwniQfYEGtYDaJyZSCTZLSJPK1ckJucFoQgw1N+Q+3jE+MNT4kBH0IxP+EwKaBi6e0QPRBrRk4AgNaIPrw0AxogehjQDOQHgP6DJIeb7rXCGFAC2SEDLQOMz0GtEDS4033GiEM/C+6OrlFqgEbsgAAAABJRU5ErkJggg==;" parent="1" vertex="1">
          <mxGeometry x="527" y="356" width="78" height="78" as="geometry" />
        </mxCell>
        <mxCell id="pSxadLKcS4drCLlNTBEl-23" value="" style="shape=image;verticalLabelPosition=bottom;labelBackgroundColor=#ffffff;verticalAlign=top;aspect=fixed;imageAspect=0;image=data:image/png,iVBORw0KGgoAAAANSUhEUgAAAMgAAADICAYAAACtWK6eAAAAAXNSR0IArs4c6QAAHiZJREFUeF7tnXt0XNV977/fffQ02JZmjC0MXMe2xg9KE4c8GrAJr/aalIeblGLayyIlbWJ7xjgkC9pVsniFtskqqSjGGtkhKS23SZFv+IOI1HaSAqmNcUpDSGrIyCNZ+EJ8ZawZWXGi99m/u/bIMsLWY+bMe2aftWbpaLR/r88+X50zc/bZm7BbWgR8W6Nz3NpKf8Xw0DyB4xeIXynxi9AvgJ+gHxQ/BLMAVoFSBS3VoNlHFQRVifch1YDZT2zDAIcAGQYxDDEvGYbiEITDp97vh0hMyB5qHSOcHq3QQ1fHtMMepdlTU3EidnTDh/vTKrDMjVnm9c9Y/nnNB88drahdrEb0ElFqscBdosjFIlgCJF41MzrJZwPBCRJdAnYB8iaFXZrsotJdNex70wpo+s6xAjnF57zmjsYRysUEVhJcCdErQC4GMD+fx3fWYxPHIOgCGRHRb0A5r4sMv3Fi08o3sx67CAKUnUDmbo0udaqcD0K7F8MIgbISgosBVBZBf+Uyxd8A8gaoXh8XzihH//PkhuU9uUwi37FKXiC+cPRjEK4GcTlgXtKQb+hFHv8QgJcA7IfC/vjGwBtFXs+06ZeUQOZ9MzIbQ87VIrJaEoKgEYUq5Q7Me22CEyBfImS/62L/iTsDL+Y9pwwmUPQC8bdErtHiXEvI7wL8aAbZWFfeCAwKuBvQe6i5N7458Lo3N4VhVXQCqdve/gFHeKUIrgTMi/7CQGmzmJQAESHwvKbaB+Kl3g1L/28xkSoKgczb9otlrnLWEVwHYHUxAba5vpcAgTYh2xzttB0PLe4udD4FK5C6J7vqnAF3nQjWgWKEYT9LFPrRlFp+vyLRJpptNRWz2o5uWFiQNzQLTiD129p/n4rrIFwHYkFqzG3roiRAvE1BmwbbeoONuwqphoIQyHnNBxtcVK0HeSuAjxUSIJtLzgkcgMjTDoZbj4cuyfslWF4FUt/cuQbUtxJYD2BezrvCBixkAj0CtELU072hpfvylWheBOILH7oDoBHF2nwVbuMWFYE9gLTGg8uezHXWORVIfbjjc4B8jsCHcl2ojVcSBH5MsCUWbPznXFWTE4FYYeSqO8sjDoEfibAlHmpszXbFWRWIFUa2u6/s/e+hRktsc+DZbJHIikD829qvhVL3SeJOt90sgewSEOCpCuHDx0ONHZmOlFGBvO/Jrpq+gdH7CfxVphO1/iyBGQj8UsAv9wYbv55JUhkTSH2483rCvd8OGMxk91hfKRMgdgr4cO+mxoMp205ikLZALmx6q7a/dvBvIPhCJhKyPiyBDBCIQeTheGjZY+n6Sksg9eHI+wHnMQJXpZuItbcEMk1AgP9dWenc885nlxzz6tuzQPzNhz4l5DNeA1s7SyA3BOTnEN4TDwW+7yWeJ4H4WqJN9pLKC25rkzcCCZE0fi3V+CkLxNfS0Q0RO8o2VdK2fd4JmEuu3mDg9lQSSUkgvnBHLyB1qQSwbS2BQiJgHtiKBQM3JZtT0gKpD0ejBBqTdWzbWQIFTOD5eDBwbTL5JSUQX3N0P4jLknFo21gCRULgQDwYmPGYnlEg9eHoswSSPiUVCRybpiVgCOyPBwPTznEwrUDqm6PNJIKWpSVQqgREEO4NBUJT1TelQOrDh+4h+HelCsbWZQmMExDitt5NgW9NRmRSgfjC0T8CsNMitATKhoBg7WQ3E88SiL+58yMa+nskzisbOLbQsicgguOisPbEpsBPJ8I4SyC+cNRMu3Jd2ROzAMqRwO54MPCJKQXib+64XSg5e963HHvA1lzYBCj8dCzU+NR4lu+eQR44WFXfUP0yBZcWdgk2O0sgewSEeLW3e+gyPHTJsIlyWiC+5o67QXkke6GtZ0ugSAhMGNiYEMjc8JF6h8M/h+DCIinBpmkJZI8A8faIO7rq5OaVsYRAfM0d60F5OnsRrWdLoLgIUOSOWGjZP40JpCX6TQg+U1wl2GwtgawSeCYeDNxMPHCwytdQ0weRwl7OOKssrHNL4CwCw/FRzKF/e+enRGv76Kw9QiyBMwkIb6UvHP17AF+0dCwBS+AsAk1GIObDuZlp3W6WgCXwXgKt9DUf2gtyjSVjCVgCZxAQ2WfOIJ0Allg4loAlcBaBw/SHo4MCVFs4loAl8F4CBIbMGUQsGEvAEpicgBWIPTIsgWkIWIHYw8MSsAKxx4Al4I2APYN442atyoSAFUiZdLQt0xsBKxBv3KxVmRCwAimTjrZleiNgBeKNm7UqEwJWIGXS0bZMbwSsQLxxs1ZlQsAKpEw62pbpjYAViDdu1qpMCFiBlElH2zK9EbAC8cbNWpUJASuQMuloW6Y3AlYg3rhZqzIhYAVSJh1ty/RGwArEGzdrVSYErEDKpKNtmd4IWIF442atyoSAFUiZdLQt0xuBlAUiwHcJ3OQtnLWyBPJHQIhnKViXSgYpCwSiHxKoQRJfSSWQbWsJ5I0AMQzNLwHuuaB6IJU8PAkkHlr+YN32Qx9XWn0NkI+kEtC2tQRySUCAFwjcGw8GDvia2x/MmUBMkRfufKu2//jQV0HZksuibSxLICkC5MPxTY33j7fNuUDGA9eHo7cR+CqAC5JK3DayBLJKQF4BeV98U2DPxDB5E4hJYl748HJN/RWIfDKrtVvnlsB0BIhHK8+Zfd+x2xt+c2azvArk9Nlke+cfU7t3Afyo7UlLIFcECLSRaOrZFHhxqpgFIZBEciL0hTvuAvl5QBblCpKNU4YEiJ+RbIptbHxqpuoLRyCnMp23443zxa38vAbuol1iYab+s39PiQB7CTRVO7Oajm5Y2J+MacEJZDzpuuauVYoj5rLr08kUYttYAtMSIJ+gcppiGxZHUiFVsAIZL8LX3HEdlPwZBDenUphtawkkCBDfgXaeiIeWfN8LkYIXyOkP8uHD7wfc9QpYL8BSL8Vam/IgQKBTA62A09obXPLzdKouGoGMF/m+J7tqTg646wViVtn9RDrFW9uSI7CLYOvsWqf1zTsWD2aiuqITyMSifdujl0FkPYRGLA2ZAGJ9FB2BblBaQbbGNwZeznT2RS2QcRizt/3CX8GK9YRcD6q1gDiZBmX9FRIBuhC9R8Dvjcpo68nNK2PZyq4kBDIRztzHI4sVnetArCWxFkBNtuBZvzklMCiCPRDs0eLu7rtzRVcuoudGIMRJEd7dG2z8ei6KGo/h2xq9EE5CJAnBAJidy/g2VtoEThpBANgNF3viWwJvp+0xBQf+lo4tIvK3AM5JwQypD3c/5Z3Aj1wXD564c+pb+6kkkkrb+f9weIFbqdcK9HUgjVh8qdjbtjkjEIfIHkLtdkbUnnfuWnIsZ5FPBapv6byB4t4P0NNjGZ4FMl6oCMK6Ak19GwKduS7exKvf0TkXI6Or4TiXQ2Q1gdUAKvORS9nHNA8mCV6A6ANQ6mWM4OX4lsCv8sHFv6NrhWj3LyHyp+nET1sgJrgIjivFx7Titt4NS/vSSShd27pHu+qc6uGrhOrjkIRY7KDJdKFOa8+9EPf5fAtiPEXzD1Np2SwiXwDgT7f0jAjkdBJEhIJtsWCgOd3EMmV/WjBQVwK4CsCqTPkuRz9CvEqR5yHq3+HK/nydISZj7w9HQ0JshmBFpvomswJ5N6sDAnm8N7js25lKNFN+Fu44OmvY7V/pQlYCWElwBU7tZypGCfgZARGBmBcjQh1xNCNVledEkh0YmEsG9eFDf0LwTgAfy3TcbAlkPM9dUM4/xjcu+U6mE8+GP3/zoYRoQCMarNQJAcG8Nysb8QrAZw8gEYARkBERHdEOI/n6PJkqD9/2wzdDu5/J5iiMbAtkrGbyvynYSc2dPZuXHkoVRL7bz/nGQV/FaHUDhQ1adAPBBoANQmlg4q4/GyD6fIDz8p0rAA2RbqH6fwS6AbPPbgV0C6VbXNVdAekGBruPhy75dQHkm1IK87Z1LhMltwhxC0R+OyVjD41zI5B3ExsxQnGJnSeCge96yLewTR54ocLnv7BB0W0Qp7JOK11LV88iWKsVaymopZh9nfhJoFbIWiTel1lCqU38PwH7BRiAyACJARH2gzJAcECg+oUyoDQGzE/zu6IMaBntqWJF97FNje8UNiRv2dWFozc5gjFh5PBbylwL5DQdAX4CkZ26gs8UyyndW9daK68E5u6ILlWj8ocgbyHwIa9+0rHLm0AmJO0K2EaR5yoV20r1P2A6nVROtgtaOuaPaLlRyBsIuRFAXsfiFYJAJvb/CQGeI9FWo/qeO7rhw0k9SllOB1Ap1rpwx3/NGtRzbxDBjQRuAFBXKHUWmkAmcnmLwHMabDtnsPrFt7940UChQLN5pE/APAvUN+BerSA3ypgoLkrfa+Y9FLJAJlbbI8A+AnsF7g97gyvSerIs8xitx2QI+B9vX6EdXsXETVu5BsD8ZOzy2aZYBHImI/NV8X9QZFftUO0ue3bJ5yE0dezEWWJIX0Otfw+Aef1WYWY6dVbFKpD3VCTAi4Tsg1Tsramo2VeId3uL7cDwkq8ZpTA4OrgGHL1CwDUcG9pT1FtJCOTMHhDBq1TcCy37Kqqcve98NvfDrIv6qEgy+flPHF4wOuxeAcU1ouUKEpcmaVo0zUpSIJPQjwKyj6JeFdHtoIrEQ41vFU0vFUCivuaOiyB6BamWC/WlANcACBRAallNoVwEMglE9hPSLpB2iLSLciJmf5bqay/Xr5fN1639eu5ygsup3RUgE/sCLgekVMejTSuwMhbINFwEx0A5Aqo3IThCyBFtflfOEQ7pI4U0xDuVf5++rdE5Uq0WQbuLlHCRgItALILo90ES+wtS8VcOba1AvPVyL4AjAMyAwJiIxEHGzL4WiROMKTI24o7GHXFi2RLUnG+85aseGvJp0X6tlA8UnxL6RFy/kGP7TDyOfD4AM4l4vbdyy9cqLwIh8FMhf0aRqIb6maL26cRDLryYkD8owe4QAYYJDAMyjMRPnvo59r75+6n3zDOaVQSqZOxVbfaReEkVwFP7iffslmUCuReI6IdqKk7+3VTX+b5w9M8BbAWQGNlqN0sgnwRyKxDiujOXxZqqeF9LdD8El+UTjo1tCeRMIBR8KxYK3JYs8sQANnfuWctoJWtv21kCmSCQK4H8OB4MpPy8cH1Lx60U+ddMFGp9WAJeCOREICII9YYCYS8J+sJRMwOfXT3XCzxrkzaBnAhEu7ja6wyM9eGoWQi+6Mf0pN1T1kFeCOREIMOjmP/rLYHjXir0hw+1CLjRi621sQTSJWAFki5Ba1/SBHIiEHuJVdLHUEkXlxOB2A/pJX0MlXRxOREIAPs1b0kfRqVbXK4EAnujsHQPolKuLGcCSUC0Q01K+VgqydpyKxCD0A5WLMkDqVSLyr1AEieSshvuXqrHT8nXlbJABPgugZtKnowtsOQICPEsBetSKSxlgZhLJIEaJPGVVALZtpZA3giYtRM1vwS454LqgVTy8CSQeGj5g3XbD31cafU1QDytHppKkratJeCVgABmLN+98WDgQG7WSRf9kBGISfjCnW/V9h8f+iooW7wWYO0sgawRIB+Ob2q8f9x/zgUyHrg+HL2NwFftsPSsdbV1nBIBeQXkfWc+vZo3gZjc54UPL9fUX4HIJ1OqxTa2BDJJgHi08pzZ9x27veGsp1HzKpDTZ5PtnX9M7d4F0K5PnsmOt76mJUCgjURTz6bAi1M1LAiBJJIToS/ccRfIzwNi5mOymyWQHQLEz0g2xTY2PjVTgMIRyKlM5+1443xxKz+vgbsIVM9UgP27JZA8AfYSaKp2ZjUlO5t/wQlkvNi65q5ViiPmsuvTyQOwLS2BKQiQT1A5TbENiyOpMCpYgYwX4WvuuA5K/gyCm1MpzLa1BBIEiO9AO0/EQ0u+74VIwQvk9Af58OH3A+56BawXYKmXYq1NeRAg0KmBVsBp7Q0uSWvpvaIRyHjXmiW6Tg646wWyHsAnyqPLbZVJEthFsHV2rdP65h2LB5O0mbZZ0QlkYjW+7dHLILIeQiOWhkwAsT6KjkA3KK0gW+MbAy9nOvuiFsg4jNnbfuGvYMV6Qq4H1VpA8rqQfKY7yfo7kwBdiN4j4PdGZbT15OaVsWwxKgmBTIQz9/HIYkXnOhBrSawFUJMteNZvTgkMimAPBHu0uLv77lzRlYvouREIcVKEd/cGG7+ei6LGY/i2Ri+EkxBJQjAAZucyvo2VNoGTRhAAdsPFnviWgJlSNmebv6Vji4j8LYBzUgma+nD3U94J/Mh18aDXKUVTSfLMtvP/4fACt1KvFejrQBqxmFWU7FZ4BOIQ2UOo3c6I2vPOXblfbbi+pfMGins/QE+PZXgWyHhfiCCsK9DUtyHQmY/+qd/RORcjo6vhOJdDZDWB1QAq85FL2cc0DyYJXoDoA1DqZYzg5WwtPzcTa/+OrhWi3b+EyJ/O1Ha6v6ctEONcBMeV4mNacVvvhqV96SSUrm3do111TvXwVUL1cUhCLHbQZLpQp7XnXoj7fL4FMZ6i+YeptGwWkS8A8KdbekYEcjoJIkLBtlgw0JxuYpmyPy0YqCsxNkv8qkz5Lkc/QrxKkech6t/hyv58nSEmY+8PR0NCbEZivcvMbJkVyLs5HRDI473BZd/OTJqZ87Jwx9FZw27/SheyEsBKgitwaj9zUYre0wiICMS8GBHqiKMZqao8J5LswMBcEqgPH/oTgncCSHmRppnyzJZAxuPugnL+Mb5xyXdmSqQQ/u5vPpQQDWhEg5U6ISCY92YVQn5ZyKEHkAjACMiIiI5oh5F8fZ5MtT7f9sM3Q7ufyeYojGwLZKxm8r8p2EnNnT2blx5KFUS+28/5xkFfxWh1A4UNWnQDwQaADUJpYOKuPxsg+nyA8/KdKwANkW6hMmu4dwNmn90K6BZKt7iquwLSDQx2Hw9d8usCyDelFOZt61wmSm4R4haI/HZKxh4a50Yg7yY2YoTiEjtPBAPf9ZBvYZs88EKFz39hg6LbIE5lnVa6lq6eRbBWK9ZSUEsx+zrxk0CtkLVIvC+zhJJY+ppgvwADEBkgMSDCflAGCA4IVL9QBpTGgPlpfleUAS2jPVWs6D62qfGdwobkLbu6cPQmRzAmjBx+S5lrgZymI8BPILJTV/CZYjmle+taa+WVwNwd0aVqVP4Q5C0EPuTVTzp2eRPIhKRdAdso8lylYlup/gdMp5PKyXZBS8f8ES03CnkDITcCyOtYvEIQyMT+PyHAcyTaalTfc0c3fLi/nA6Ocq114Y7/mjWo594gghsJ3ACgrlBYFJpAJnJ5i8BzGmw7Z7D6xbe/eNFAoUCzeaRPwDwL1DfgXq0gN8qYKC5K32vmPRSyQCZW2yPAPgJ7Be4Pe4Mr0nqyLPMYrcdkCPgfb1+hHV7FxE1buQbA/GTs8tmmWARyJiPzVfF/UGRX7VDtLnt2yechNHXsxFliSF9DrX8PgHn9VmFmOnVW9Iejg1LkU/II8CIh+yAVe2sqavYV4t3eYjswvORrRikMjg6uAUevEHANx4b2FO1GYMicQcwo3CVFW8UkiYvgVSruhZZ9FVXO3nc+m/th1qXEc6pa5j9xeMHosHsFFNeIlitIXFpidR+mr/nQXpBrSqywM8uJArKPol4V0e2gisRDjW+VeM0ZLc/X3HERRK8g1XKhvhRIHDOBjAYpNGci+8wZ5GkAZqKEMtvYT0i7QNoh0i7KiZj9WaqvvVy/XjZft/brucsJLqd2V4BM7Au4HJBSHY823XHfagTy9wC+WGbqmL5cwTFQjoDqTQiOEHJEm9+Vc4RD+kghDfFOpd98W6NzpFotgnYXKeEiAReBWATR74Mk9hek4q8M2jbRv73zU6L1M2VQbCZL7AVwBIAZEBgTkTjImNnXInGCMUXGRtzRuCNOLFuCmvONt3zVQ0M+LdqvlfKB4lNCn4jrF3Jsn4nHkc8HYCYRr88khJL3JbyVeOBgla+hpg8iOZ4xhK+Q8grAH0LjAqFeDdA8AViQN4zSPBhEgGECw4AMI/GTp36OvW/+fuo984xmFYEqGXtVm30kXlIF8NR+4j27ZY/AcHwUc2j8+1qi34TAjKvP+kbg2wSbeoKNP5ksWH1Lx19T5EtZT8QGsASmJ/BMPBi4eUwgzR3rQTEf1rO6CeSG3uCy7yUTxNcS3Q/BZcm0tW0sgUwToMgdsdCyf0oIZG74SL3D4Z9DcGGmA437o+BbsVDgtmT9JwawuXPPWkYrWXvbzhLwTIB4e8QdXWVmeUwI5NRZ5G5QHvHsdHrDH8eDgZSfF65v6biVIv+apZysW0tgcgLCe+Khxq+ZP54WiPmwXt9Q/TIl83dDKbwzFmrc5qU/fOHoLwEs9GJrbSyBVAmYWVt6u4cuw0OXmC9RJgjETCLU3HG7UP45VaczttfyP+Obl/1gxnaTNPCFO/YCUup3+r2gsTZZIEDhp2Ohd9c7fPcMMn6pFY7uSsx/m8lN+D+8Du3wtXQ8me7seJksxfoqaQK748HAe9apOUsg9c3ta0hl/ttn7L5I5W/6zz12zwc8feD2hQ89AvDuku4WW1whEDAzgl4XDwYOTEzmLIEkPrCHo3cBeDRTWVPUR2Ohpa948ecLR/8tm/MeecnJ2pQiAflMPLjsyTMrm1QgppG/OfovQvyvTKAY/07Zi6/6cDRKoNGLrbWxBJIjII/Eg8v+YrK2UwokMbyZ+gdIjORMb0v1Hsh4tPqWjtUU2ZdedGttCUxNgEBbLBi4aaoWUwokcRbZ1v5JUc7/ycgyaKIfioeWP5hKZ9m76anQsm09EHjdEf7B8VBjhyeBGKP68KHrCZpJqOd4SOA9JvFgYFpBTmzsa442gTBT2NvNEsgGgdehcEt8Y+CN6ZwndcDOa+64WhPfAsQMm05rE3DDdMu3+cLRPwL414AsSyuQNbYEpiaQlDiMeVICSVxu7ej6He2O/ksmPjCbaUcpfAnAfpeV31cYuEjBMQ/6X4GxNdPtZglki0DS4khJIGOXW5H3E04LgMuzlb31awlkjYD5wsfhhpkuqybGT/oMMm50XvPBczWrHhFwY9YKsY4tgcwTaIqP4l5sCQyl4jplgYw7rw93biS0Gf17bioBbVtLIMcEDkN4bzzU2OolrmeBmGC+5o7LTw2Rt5dcXuhbm2wTaHWh7+0LLj/sNVBaAjFBzSWXq6q/DLFfyXrtBGuXcQIxiDwcDy17LF3PaQtkwiXX9URiwXa77HK6vWLtvRMgdgr4cO+mxoPenbxrmTGBGJdjU9qP3k/grzKRnPVhCaRA4JcCfnm6e2wp+DrdNKMCGffq39Z+LZS6TwCzNrndLIGsEhDgqQrhw9MNGfGaQFYE8u5lV8fnAPlcvtaX8wrF2hUNgT3UaIltDjybrYyzKhArlGx1W3n7JfAjEbZ4/eo2FXo5EYgVSipdYttOQ+DHBFtiwcbMz5swRdCcCmQ8B1/40B0AzZirtfZwsASSILAHkNbJnvhLwjatJnkRyOkzSnPnGlDfyrHlF+alVYk1LjUCZl3KVoh6uje0NG8PzeVVIOM9el7zwQYXVetB3gog5QnmSu3IKPN6DkDkaQfDrcdDl3Tnm0VBCGQihPpt7b9PxXUQrrPrVeT78MhRfOJtCtrMkt+9wUYz7VTBbAUnkHEydU921TkD7joRrANlHQBVMNRsIpkg8CsSbaLZVlMxq61QF14tWIFM7IF5236xzFXOOoJGKGYNEbsVKQEzSYKQbY522o6HFuf9EmomjEUhkIlF1G1v/4AjvFIkcZf+SoD+mYq0f88rgS5AfiDgXtEje09svtiszFU0W9EJ5Eyy/pbINVqcawn5XTtQsmCOu+dB/psSvDjVQkkFk+kMiRS9QN5zKfbNyGwMOVeLyGqheSyY5jkV+9klu0ejBmQ/BftJvlTlnPPDQv084QVDSQlkMgC+cPRjEK5GQjDmJQ1eQFmbcQI0nxvM6l/7QXnpzLlsS41TyQvkzA6buzW6VFXqjyhRqwRYBeCDAOaXWsdmqJ53APyUwGua+jU9ol7p2xLozJDvonBTdgKZrFfmPR5Z6FZWrlJarxKRDwq5KhPTGxXFEXAqSQE6KPIayZ9qpV5zRkZe67lzxdFiqiEbuVqBTEV1a7R6boW+QDkVCzkqF4ByAYCxl5jfuZDABWaZ5mx0TAZ9ngTkqIBHFfBLkEdF66OJn+RRPTp6tE+co6nO9pHB/AralRVImt3j2xqd49ZW+iuGh+YJHL9A/EqJX4R+Afw0X0NT/BDMSqxxTqmClmrQ7KMKYtY7N2ufixHa+NrnZs30ocSa6sQwxLxkGIpDELO+euL9fojEhOyh1jHC6dEKPXR1TDvsUZo9NRUnYkc3fLg/zRLL2vz/A0gqBKNRNBapAAAAAElFTkSuQmCC;" parent="1" vertex="1">
          <mxGeometry x="474" y="558" width="100" height="100" as="geometry" />
        </mxCell>
        <mxCell id="pSxadLKcS4drCLlNTBEl-24" value="" style="shape=image;verticalLabelPosition=bottom;labelBackgroundColor=#ffffff;verticalAlign=top;aspect=fixed;imageAspect=0;image=data:image/png,iVBORw0KGgoAAAANSUhEUgAAAMgAAADICAYAAACtWK6eAAAAAXNSR0IArs4c6QAAHHBJREFUeF7tnXu83FS1x38rM5M5pYigotB2Mi3t6WROy0sQsC8KBwSuiDwUEeUlCoKgXITrBR+AXFB5iIIIXBERUC4IRcCL2FZaoC0vlVJKZ6aFtpM5vMSPotDSycxk3U9OH7e055FkspOdc3Y+n/7B56y19tq/lS+ZJDtrE9QRuwIlQ7+YgA8D2AuAA+AJBpYVLfvi2JMb5gnQMJ9/rNNfYehdDnA3A5P6SeSVlsNHT+ppPBVrosN4cAVIjMUvGzp7Gd60bFUnL0IJsFHCCxDVS8iKkb2Jwad5sQXjKrNmn+/JVhmFqoACJFQ5vQcrG/qLAMZ79FhtWvY4j7bKLEQFFCAhiuk11OIxI0Z3aK0er/auXbqZMia88k7Nj4+ybV8BBUj7GvqOUBqTnkmaNs+PIzvOAcWe5nw/Psq2fQUUIO1r6DuCAsS3ZLE5KEBikF4BEoPoAYdUgAQUrh03BUg76kXrqwCJVu/e0RQgMYgecEgFSEDh2nFTgLSjXrS+CpBo9VZXkBj0bmdIBUg76gX0VVeQgMLF4KYAiUF0BUgMogccUgESULh23BQg7agXra8CJFq91T1IDHq3M6QCpB31AvqqK0hA4WJwU4DEILoCJAbRAw6pAAkoXDtuCpB21IvWVwESrd7qHiQGvdsZUjpASqOzE9MpTtcd+7XJPfh7O5OT1VddQd5dmdJovB+kj0oTre2s1V+SqW7SALLcyB7urP8E9RObCTSbwHcUrMbtMonWbi4KkPUKVozMCQz6PICPbabpAwS+R5aaSwFIJadfyITL+jvxGLitaNkntXtiyuKvAAHKhu7+T8+Fo++D6AazWj8z7prFDkjZyN4A8Jc9CHGFadnf8GAnvclwB6SSy1zFRF8fvFB0o2nVzxjcTpxFrIA8n8uOzxAvBrCtxyl+xrTsuz3aSms2nAEpG/qxAO7yWJy3G0x77BrjfUmsgGzoKHiRR7HAhKfMqj2F1ncfTOwxXAFhQCvn9UXE2Ndr8Ri4JM4Ok7ECUjayNwJ8ulexXDsmOr9YrV/lx0c22+EKSCmfPY+Yr/RVD8ItZtU+1ZdPiMbxApLXfw/GoX7mw8BrRNoUs7pulR8/mWyHIyDlfMc4ZmcRATv5rMVs07IP8ekTmnmsgPj9ibVx1sz8k2KtcXZoKkQcaDgCUsplriOis3xLHXNXyVgBqeTS05m0x3yLBiDlODM7e5qPBvGN22e4AbJiTHr/lqYF6unFTIcUa/XZcdUsVkDcSZcNfSGAKQEEeMC07E8G8IvdZbgBUjb0+wEcEUD4RaZlTw3gF5pL7IBU8vpRzJgVZEYO+KQuq3FbEN84fYYTIMuMzIka6JdB9CbC0YWqfV8Q37B8Ygdkw1Vk4Leq/c2W8dx2LXvKqFewNixBoogzXAB5ZRS2+VdKXwTC7gF0vcO07BMC+IXqIgUgldGZ3TlF7k+tkb5nR/i2WbX/y7dfjA7DBZByXv8WGJcGkHoNtXhq4eXGcwF8Q3WRAhB3RkGfaAF4UyNMmVi1S6EqIzDY0h2xbXqE/pavIdba25l/gz8fXwOEa7w8rxcdxiIA2/uNHPfLwc3zlQaQ3pNmG30hGLv5FRSgm02r/iX/fvF5+Hw48YRp2UEeZMQ2wbKR/RnAX/SdAGFJc609dfIbeNu3rwAHaQBx57Zh+XOgm25mOrRYq/9BgEZCQpaMzGkEuslL8LgfdXrJcXObUi57CBE/7NfPtSfwibIsdV+fj2RHOa/fB8aRftNi8Jyi1dj8uwK/ISK3L+f0h0A4bJCBf2NatrvALzFHycjMJtDBvhMm/Nas2kf59hPoIB8gRnoqoC0IMmcGn160Gv8dxDcun3IucwaIftr3+HSTadW9fAoQV/pbjevnyrh10s4002q6D2ukOaQDxFXG+/cCW+lYGenYU3IJ+1S3lMt+TCPei9H7OLThgP4M4IUuqz5HmjPFQyK1MXjfGk13b8wLHszfZULMVxdqjfP8+om2lxKQVWNH7mQ7jYUM7OJXACZcXqza3/Trp+zbV6CU1y8jxoV+IxGwUtcyU8etXvOaX1/R9lIC4k56WS5zpkZ0fQAB1rWIp0yqNp4N4KtcAirwQj6zZ4rJvXp0+A3hMH+lq9bo52em32jh2ksLiDvNkpGZQ6CDAkxZirewAfJOrMug35j3MzMGzy1aDf839BEpJTcgbTwudBhHddXs30ak47AeZllOP1IjBFozJfvjeakBcc+6IF8drj9b6XHTqs8Y1mduRJMvG9nHAJ7ufzj5n9JJD8iyMdlOjZyFINoxQAG+Zlr1a/37KQ+vCpSN7FcB/rFX+012zG84rE3t6qmv8O0boYP0gKy/iuj/AeAHAXSprnNSU/foeeflAL7KZRAFFo8ZMbpDa7nvLfIBxPqGadlXBPCL1CURgLjdMJbn9IVM2M+vOkz8w2K14aEHk9/Iyr6Uz1xNTOf6VYIYT06s2VOT0J0mEYC4BVie149xGPf4LYZr32CaEGdvpSA5y+6zbFxHXms5q4PkqRE+NbFq3xvEN2qfxADiClPK6b8iwvG+RWI+w6w1bvTtpxz6VaBs6G7bUN89k5nx62LN/lxSpE0UIBteRrm/eUf4EZgZ9xVr9tF+fJTtwAqUDd3tcPlpnzq90yKemqSXuIkCpPeGPad/F4Rv+yzMvaZlf8qnjzIfQIFKXr+TGcf5EolxqVmzv+PLJ2bjxAGyYgK2a9m9nVAme9WOiK8pVBu+bya9xh+OdqVc5iry1IB6kzpLU7o9tfNF/CtJeiUOEFfcipE5iUG3ehVahu4YXnNNip3fbjQEPrlgNQJ1N4lTk0QC0gtJXp/FDC8f18TeWynOAosc2+tnw8SYVajZx4jMRVTsxALi9noFO48DGD2AOP8kwilx91bamJ/73X1qm/Ru5NBupFGOmUcC2kgiHsmMkQQeyUQNMNYwsIaI1rDDa0Bw/z1PGi01V9Urok4Gv3E3rMH6xYCNGRiWk9ZmdK1aV/UbXwb7xAKy/oY9ewSI3Zu+vbYUkxlPQnO+Xqw23SXYkR9LDOygO9l9WeP93EYUGmE3BsaHkIgNYCn3/qNnM+Q82hnj0v7lYzP7MtOPua8tDZjna5p21cRq/X9DmHcsIRINyEbF3P0NW+C93f/WmP/aYG325J76i1EqWhrbMZZarQNB2j4E3oeBPSMc/00Q5pODZzTQnzpj6GX7fF4vZpgOZvD7euftOPOLPc1A/Xgj1G3QoYYEIIPOUqBBJZ/9NzB/mte/E/Df+E5MbotBmJVizOq07BfEDDE8oipAAtT5+VEjcpmMc5wLBoCPBAgRpcv9BJ711o6NO/f+MxpRDjwUxlKA+KjiinxmzxbjRIBOBLD+p0RCDgKWOcDtxOnbzNraVxKSduxpKkA8lGBFLvuxFrELRWLWEPU7LaI3GM7tmobbCqvi733rQf5YTRQgA8jv3nhrjnMRAyfHWiVBg8vUA1fQFNsOqwDpR8JSLnMyEbk78I5tW2WZAzDPZ+ZLhsITJxEyK0C2UHWoXzX6O4nU1aRvZRQgm+lSzumfBOFqhPNCT8T/0ITGJPBcZlxg1hp/EjpQgoIrQDYUq5TTLyTCZQmqnZBUCXiTmV1I1AdmMnZ3F1L1AYK6bU7rrcbVCPKlYtTJRjke089TjfoFna/hjSiHlW2sYX0F6f1C0V02H2jTHtlKKSAfxnNaik+fuLrxlIDoiQg5bAGpGOlpDM3dnjhRL/yiP6v4r+zwZ4brU64+AXE3mQSnXqF6/dUk7Yvn9eRpZwckr2MMNTt2nAOGIiTlD+A9nM3uDGqN6mt+7wKklMv8hIjc3Z02fWNBwEsMmqMRz0ml7D+OX4l/Jrn4lVz2XCZ2n1Spw6cCQwGSyih8ACm9G0TdAHdvscXGaoDvN63GORul2QSI1y4VbtMvBuYQnDkTa80FBLBPnWMzb2Mn3dhylm3gFNOEzlr9Jdny6i+fpV3QM2uy3XCcXigY2MND7pu2vesFJPCOpMA6FxaNaDa3+DGzx17iYfBYTBQc4cme1TI7y7jZzcYZlo30VILW7RAdSMzTAKR8z57wC7Nqf4FeMDq6U3Dm+g7QlwPDAmgOiOezpi0orl4XqPNeKLlsFqRsZL8G8I/CjjuM4y1+U7f330+SDiWlMfqupFE3iPcH0zSAPxBSbY6lsqG7T3KOCCnglmHcvfb+mAItqDv1hZNj2DuwlNM/S4RfC5rfcA57/xLLPuZYoBW1CCvHdeRtp9UN0DRmTCdggpAcmOdTOZeZB6KZQgZ4d9AmGO6VagGzs8Ds6b1/ESqu+54jzXiYQR+MYH7DcIho9veoGthhHekzHfB06r1CRPSRWsSAbHkCvUrAYyBa0ISzMOx2lLwXMpU3Mn8A6IBheOZGNmUGfbVo1a8Lc0AGUpV8xwzAmQaGC4S7OY+vdrOh5OMCItHNa4kI99nAHbtW7VK7E6wYmWsZdHa7cZT/wAow0CDSDjGr6+a1q1XJyOylQTuNwYcDGNVuvHb9GfgeVXLp6UzaY+0GC9HfZuDiomV/L2jMkpE5nUBqsV1QAX36EfDsuox+6O4vvf1Xn66bzCs5/UKWbLFoipwpvY95S4b+OwI+HnRyQvyITzWrjVv8xn5xTHZCM4VFYA6wZZvf0ZT9JgU2PBYNokjJyJxGoJuC+IryYebri7XGWb2ArBw38kO205gt26I9blGh+HJ9uR8Rykb2BoC/7MdH2YajgMM4rqtm3+Un2oYOmSv9+Ii2JeCZt3a0p7pdYDa9SXchqTvNEwh8giygMNN5xVrd87KQZUb2IA08R7SAKn4/ChCWZFL2DD/LkSr5zBeZ6WdSaEpYwqDbs1r69l1WrXndzanPxYruSlcHmvt8eZr7j4HtYpkA83yz1vD8FKqc0x8C4bBYclWDblTgStOy3U1XPR0RvmboKx93XaF7/70QcBaYVtPdVuNdx6DL3d39OJp2dn9C7yt793HbRz3NPByju0zL9rRJSzmfORVMN4czrIrSlgKkdZvVdY94iVE2dHcbN3c7t4gOngemhe6/Zr2+YPIbeHuggQcFZEvnFaNHjGmkmgcStGka2L26FEXNzM8OtWVDd5tURwmvqGknPq77uL5Q9bblXSmnX0mE84RNmrAEzI8AtNCh9MKu6tpX/YzlG5Atgy819K4UqJvAM4Delzo7+UlgIFsN9ImJVv13g8VrZwfcwWKrvwdTgOBML1jNBYN5u43HHfCDg9n5+PvL5K42Z360ydrCrp76Ch++W5m2DciWEZeNzeyntaibiGcyyP1Jlg2Y4IOmZXtaIyZ4PVnA9Ie3G4N+VrTqp3lRoWzoDwD4hBfbPmzWAZgD0NwUOY+HvRVE6IBsPgEGtHIuexARdwNw/221j0dfohDwggYc22nZywYTbXkuPcMh7dHB7NTfI1dgHVK0h5cNf1YYepcD3M3AJI9ZLmJgrsbO3Im15kICHI9+vs2EArJlNqvGYvsG690O00Hu11wAOre0cTe+SRNO9QKH61vOZW8G8am+Z558B3c5jrD7vzDkYcLlxar9TS+xeiEh3NLnRjxAhZnnEmhOKmvPi3Ij0EgB2VKol3bpMBoN3oPgjHH/5nfjm95NaxxnqUT7cng5F0KxIcZxTPifUIKJC7LqVc3uOmA13J9Bno6NG/EQO02G1tNs0uLJr66zPDkLMIoVkHbnU85nzwfzFe3GSaD/FcT0mvuUT/bcNcbxE2v2nbLn2V9+yQbE0J+O7NsAeSr8tGnZ+5Zz+pUQ+Xg0vPneY1q2u9FQIo/EAuJufcbMid0cMujZ0mJnxqRa8/FyTv9VErpBuh/FOS3q8rumLqg+YfslFxBD/8VQ3bej3yITvmNW7Uvdv8e8RMPXeUjABQXL/r4vJ0mMEwtI2dDdFaDjJNExgjT4EdNquE/+eo+Kob8Y0rbSEeSOJ0zLnhLFQGGPkUhA3EeCLWA47d7a0DTeZ+LqxmL3BJgHpHc29Lq763XYJ4SoeHoqs9PGFbKixhARN5GAlA3dXdzmLnIbJgf9u2nVN7UtWrpzh5HOONUkTZ4IRxeq9n1JytnNNZmA5DLXg+jMpIkdMN/7Tct228FuOnqX8zj0RMB48bgxrjJr9vnxDB581GQCktefk+WjruDSD+7JwD9aDu0zuaf+4ubWpbx+NDHuHTyCVBaLTMueKlVGHpJJHCBLd8S26RH6Wx7mlngTh/hLXdXGVt+4lPLZs4g51FY7UYhlWnbizrfEJVzKp6cQa1t9+RVFgSMe4w7Tsk/oa8ySoV/uPjqNOJ+2h0szdp1Qs92lQYk5EgdIOZf5MohuSIzCQRJlWHo6s09/T30qhv5LBk4MEjpOH2YcX0zYspPkATIMupa4CxELA3QHKRvZxwB2v7VJ1EGEywseV/fKMrEEAqK7P68S+dLJW9HpRtOqnzGQbcXQLQZy3uJJZfWAadmflCqjQZJJIiDuDfq2SRLZa67uh2Lr6va+u7+ONQP5lA09MZsWbTGPVaZl7+JVDxnsEgXIqrHoqDv6OzIIJyIHIvp4oVp/aKDYS8eO3CntNHw1HhCRa9CYSyw7HceWCUHzTRQgpdF4P6X0vwWdrOR+nvpJLctnPqwxufuuJPJI6fZ7o/wisF2REgVI7xeIzWQtsfBSIGY8VazZ+3mxLRnZwyncLiBehg3NxqH0KL+td0IbPECgRAHithhKD8FFig47+3fVmp467MvY6NnPeZd2qHPCFisD/PhHbZsoQCq5zEeYyP2KcMgcBFxUsOzvep1QydC/R8B/erWXzY5SvEdhVeM52fLqL59EAVIak55Jmtb2Ri2yFIfBc4tW42A/+VTy+p3M8NSO1U/cqGyZnKnFatPtgpmIQwESU5kIWKcRT/Hb6KyU158kxr4xpd32sOw4BxR7mvPbDhRRAAVIREJvOQwxnVuo1a/xO3zZyLyOBG9KqgDxW3Ef9kPlJxYx7ivUvDV33lKeBL8k7J2KAsTHCe/XdGgAQn9zHEwJ0lR5KLwHUoD4Pet92A8FQBh8WtFqBNpRqTRG35U0LPEhmXSmChCBJUk6IATcVrDsk4JKtDyf/bjDPOh2EEHjR+GnABGocsIBWZXVMlPGrV7zWlCJKvnsWZzALwk3n68CJGj1PfglGRBifLZQs9tqNl3KZ652n355kEpaEwWIwNIkFhDmn5q1xlfalaaS0+9lwtHtxonTXwEiUP1EAkJY0lxrTx1ss0gvslUM/S8M7OnFVlYbBYjAyiQREI3o8InVeihNtsuG/g8A2wuUWHhoBYhAiRMIyA9Myw5tYWHJ0C8OLC/jFCIYgf1DclSAhCRkX2ESBog0jdLKhn4HgM8JLI3n0AoQz1L5N0wSIOw4M4s9zdg3F5WtTZICxP9579kjMYAQvmVW7cs8T0yQ4QpDn9QEHidgB0FD+A6rAPEtmXeHhADyB9OyD/U+K3GWMu4frwARV28kAJA1DvGMrmrjLwJl8BRa1g1OFSCeyhfMSH5A6BzTqv842OzC81oxNrNfy6EFAFLhRQ0nkgIkHB37jCI5INLs5lo2Mo8AdIDAUgQOrQAJLN3gjrICwuDXdUebPr6nvmLwWYi1KOf074LwbbGjBI+uAAmu3aCesgIC4lPNauOWQScg2GC5kT3YAc8WPExb4RUgbck3sLOMgDBwa9GyTxE4bU+hF43BiPdputtba29PDjEZKUAECi8bIAS82KL0DBk6BZaNzDUAnSNQ/lBCK0BCkbHvILIBAuBY07J/I3DKnkIvz+tHOwnZs1AB4qmkwYxkAoTA1xWsxleDzSQ8r+fGb/tBvWEvIKAzvKjiIilAxGmbhBeFnmYf5maW5Vz2ZvchgaeBJTBSgAgsgkxXkDamWTUte2wb/ptcK0bmJAbdGkasqGIoQAQqPRQAIdBjBau+f7syPZ/Ljk+Ts5BAH2o3VpT+ChCBag8FQAD0u72zH+nKhn6X+5DAj48MtgoQgVUYEoAQLjOr9rfakSnJ7X8UIO1UfhDfoQAIgU8rBOys6MqzdGxmj7RD7vYBIwRKLSy0AkSYtBgST7FSTId01uqBl4OU8/rvwZDie5MgpVaABFHNo8+QuIJoKBZW22WPU36XWcXQL2Dg8iC+svgoQARWYigA8nfH3mZKD3xvZf1CLj09RZqnfQwFlqDt0AqQtiXsP8AQAKRlWnY6iERlQ18IYEoQX5l8FCACqzEEAAn0kjDpG3dufkooQBQgAyngu1dWJZ89jJkfEihrpKEVIALlTvoVhIC7C5b9Ga8SlQt4D97R3Ue6k736yG6nABFYoaQDwsQ/LFYbX/cqUTmXuR5EZ3q1T4KdAkRglZIOCEBfM636tV4kKhu6u4zEXU4ypA4FiMByJh4QxpFmzb5/MInKuW1GgZpPAsgNZpu0vytABFYs6YBoGu85cXVj8WASlQ39dgCfH8wuiX9XgAisWtIBaTr2+yf34O8DSVTJZ77ITIF2wRUofWihFSChSbl1oIQDUjctu2MgecrjsgW0+CkA7xUoY6yhFSAC5U84ICtNyx4/ICCG7t6fHCFQwthDK0AEliDJgAz2JWEllz2Xia8WKJ8UoRUgAsuQaEAIdxaq9vF9yVPOZfYG0dMASKB8UoRWgAgsQ5IBYcZVxZp9fj+AzAPRTIHSSRNaASKwFEkGxO162NfWCCVDv4SA7wiUTarQChCB5Ug2IPi0adn3bC5POd9xINj5o0DJpAutABFYkiQDktL4o52rG+7b8d6DZyJdWam7j3Q/LFAy6UIrQASWJMmAgNOjzdraVzbKk5Rm02GXUwEStqKbxUsqIAysLVr2yI1TqeT0I5lwn0CppA2tABFYmqQCAsJys2oXXGmqBnZ4B/ozAAZ8aShQxlhDK0AEyp9YQMDzTKtxoCtNOaf/HIQvCJRJ6tAKEIHlSS4g69uNVozMiQz6pUCJpA+tABFYoqQCQsD3MyntRrvZegZEOwqUSPrQChCBJUoqIEx0NjG7Hd0/JVCeRIRWgAgsU1IBIaKzmfk6gdIkJrQCRGCpkgoIgDqArEBpEhNaASKwVAkGRKAqyQqtABFYLwWIQHEjCq0AESi0AkSguBGFVoAIFFoBIlDciEIrQAQKrQARKG5EoRUgAoVWgAgUN6LQChCBQitABIobUWgFiEChFSACxY0otAJEoNAKEIHiRhRaASJQaAWIQHEjCq0AESi0AkSguBGFVoAIFFoBIlDciEIrQAQKXTIy1xLobIFDqNCCFWDgkqJlXyx4mNDCJ6rVZcnQVxAwIbTZq0CRK0DACwXLTsyei9ID4m5kqb2TPbkFvpCAnSKvqBpQhAI9DL5UTzfuGr8S/xQxQFgxpQWkYnR0O9w6ioiOBDA6rAmrOPIowODXCdqDDDxQtOoPypPZ/2ciHSAr8umPOqz9iIF9ZBRM5SRGAQbP7dD0E8atXvOamBGCRZUKkFJeP4YYNwPYPth0lFfCFfhHi7h7UrXxrCzzkAaQZUb2HA18jSzCqDziUyAFTOq07GXxZSDZT6xlY/SjNA2zZBBE5SCFAmtSwD4yQCLFFaRsZOYC1C1FaVQScihAeNis2ofFnUzsgKhug3GfAvKOT+CTClbjtjgzlAAQ/Sn1xCrOU0DesQl4umDZ+8aZYayALB2TnZDWeEWcAqix5VaAwXsXrcaf48oyVkBKuewhRPxwXJNX48qvQNxrt2IFZFk++xWN+Sfyl0llGJcCBNxasOxTYhw/rqGBUk6fRYSj4stAjZwABWabln1IXHn+H0VbmqL1f7BfAAAAAElFTkSuQmCC;" parent="1" vertex="1">
          <mxGeometry x="702.27" y="392" width="42" height="42" as="geometry" />
        </mxCell>
        <mxCell id="pSxadLKcS4drCLlNTBEl-25" value="" style="shape=image;verticalLabelPosition=bottom;labelBackgroundColor=#ffffff;verticalAlign=top;aspect=fixed;imageAspect=0;image=data:image/png,iVBORw0KGgoAAAANSUhEUgAAARoAAADICAYAAAA3Mi4qAAAAAXNSR0IArs4c6QAAF6NJREFUeF7tnXuUG/V1x+8daf3E3tVIZrFjgx87a2yDXWObVyHg9ITTAoEmjelJSM+BkrKsFruxQ2j5I7HpHz11SQx4V5K3vNIUGmo3dcorPYHEDo/wiIHaGHu1o7XNo+a1O/ID7LV3NbdHfgHGkuY3euxI8/U/OSe69/eb+7k/ffhJq/kNk0f+6THzCmL5KhFfzEyNItRIRKd55PJwGbVBYD8Rb7Yz8sM9i42NTkpqTKROHxD+NpG9iIhme3xNfsxMH4jQByT208J1v0lHpz7npM5yx3C5Jyg0fijW/S0m+ltivqBQLF4HgZIR0GiWdYuxrdB4ejz1CpEsKBTn2ddFXhaie9NtzT8fymscUtHocXMtEWX/S4F/IFBpAm+OHRmcv+vGKf25JtZjyRXE2vJKX1hZ5hNZb7U1f6MsYzsYdMhEo8fNl4gIuxgHTUJIeQhwxp7Rt3h6V07RJFIPkcgN5Zm98qMyU09fq9FU+ZmJhkQ0ery7j4j1oSgYc4LAcQJsy4V9tza/nHtH0/0kMV9ZY8TesaLGmZWuqeKiCcfMh4Xp+koXivlA4GQCg8NGhPd9d5KVe0djriKhpbVHTn5sRZt/UMm6KioaPdH9FyT8n5UsEHOBwCkJiH2n1TZ9RT46ety8kIie9vhfmtw1mOWbVmvzL9wlq2dVVjTx1LNEcqn6ZSIDBEpK4FdW1HD0kaghbl7DREuZ6PKSXsGQD8bPWdGmL1fqMiomGj2W/Eti7VEHhe0l5vUk8oKdoZSDeISAgCMCwQDvH6C6HXujZ6UdJXwmqKHd9LxoAgG7wSb+ChPdQMRjCtUoTN9JtxqPFIorxesVE00oZsaYKZr/ovlJjbTv90anJktRHMYAAT8SiHTuGi+ZgU4h+lq++lnokb424zuVYFRJ0XzITOPyFLWPNLrIyY+oKgEGc4BAtRMIxc0N+T/yiWVFm8OVqLMiohnTsT1cpwV78xbk4Mu5SgDBHCBQKwRC8e6rmPiJfPUM2IOR/bfO6Ct3zRURTah9+7kcCG7JV4wwfyvd2uTkO5xyM8H4IFATBBoS2ydrEtyZ932XGZydXjzjjXIXXBHRZL9I0wK0IV8xdoYWOr3RrdxQMD4I1AoBPW6KF953EE2trCjUAQKnIADRnAQFOxq8T0Cg9AQgGoim9KsKI4LASQQgGogGbwoQKDsBiKYMotHvMyfSAF1EQheRRhce+V/8A4GqISDPs/DzwvRaQPj1j9qaiv5lPERTYtGEEt23s/DKqllTuFAQKEhAHtUODS7rXTrzvYKhOQIgmhKJpqFjx1msZX5aeze9uV1ayKstAnxA2F6Wbm3udFMXRFMC0dTUUYtuVhFy/EOA+Smrtekq1YIhmiJF05Aw52pCr6mCRzwIVCsBJvvrfdHpv1S5foimSNHo8e4uIp6uAh2xIFD1BAZpkrXEeNdpHRBNEaIJJ1IrReR2p7ARBwK1QoCJ/r0vajg+CheicSmacbGdZ2R40PW38LWy4FCHjwkILbLaDEdH4kI0LkUTiqf+jEmeKrTMhOgxFvv1QnF4HQQ8Q4C1mc6ecyZ3WdFmRzt6iMalaMJx8w4h+sd8iwP3TXnmrYMLUSRw7KSD7PGaE3KlCtHGdNRY6GRoiMalaPR46gkiyf1nPhyg5WT9IcbDBBz8bOOAFTVGOykBonEtGnMPEdXntL2mXZW+ZVrBj1ZOmoQYEBgKAk4OrNICNK+3xSj48w6Ixr1oPHGQz1AsQMzpHwKlEkSpximWfNUdfOUVcMWCRz4I5CQgwnoiZZfie0ivvF8gGqx3EPAaAYjGXUdKeWawVwztjgSyQMABgeWi6Y2pDHY0Dlh9NgSiUQSGcH8TWLQ2oC+cOwjRKC4Dr4rm6K0MdJ5iOUMTzrTZam26bWgmx6wVJbBWAnpvCqJRhe5F0YTiyZuZNFdnfKjWX6p4JlnSF21uL9V4GMejBJZvCOqNEwewo1HsjxdF4+BHUYpVlj+cmf6pr9W4o/wzYYYhJbBcgnpjCqJRbQJEo0rs1PEQTWk4en6Uzk11eqb+MHY0ip2CaBSB5QiHaErD0fOjQDTuWgTRuON2chZEUxqOnh9l+dZheuPwQ9jRKHYKolEEhh1NaYBV6yhrtw7TeyEa5fZ5UTShhHk9Cz2sXMxQJrB2k9U67cGhvATMXQECq83hepD6saNRZO1F0WRLCMXMKDPPUSxnSMKZaGtftAl/2h4S+pWdtGm1OdyCaNShe1U06pUgAwTKT2DyQztH7Ds4eBA7GkXWEI0iMIT7mgBE47L9EI1LcEjzJYGJq94ZeWBE/wHsaBTbD9EoAkO4rwlM6Nw0qj9T/wlEo7gMIBpFYAj3NYEJnbtH9Wc+gWhUVwFEo0oM8X4m0HjX5tEDo0d9jB2N4iqAaBSBIdzXBBp/9v7ogY/3QzSqqwCiUSWGeD8TGBfbelqGh+/HjkZxFXhZNGM6toeHj+S8d8oqlotwRQKHZXTdvu9OshTTajYconHZWi+KJtTZcyYP2k8Q07kuy0JaKQkIvRigQ1d81HZO3o8MpZzSq2NFVnaNsccE9mFHo9ghT4om1n07M69ULAXhZSUgf21Fmx8q6xRVMHjkga4x9iGIRrlVXhRNNZ6wpwy+yhJEqC3dZsSr7LJLfrn6anMsBWkvdjSKaCEaRWA+DYdojjYeonH5BoBoXILzWRpEc7Thoc6ees7Y2WfM5/xnZ2jhnsXGxkJLxCvPQfPtkyrx0anQEq386xANRFPUqvPmjqb7h8T8D0UVhuSSEhDmW9KtTVX1CJySAjg2WMPdOxu04YNp7GgU6XpRNKHOnks4Yz+nWArCy0fgIIvM62tr3l6+Kapj5Pr4llCARub9XRE+Op2il14UTfYy6+/bNUXLZGaQPSjVsQRr9SoDFMgMbu5dfPbuWq1Qpa76+FuhAB2GaFSgZWO9KhrVOhAPApUgMHbVVj04YngfPjop0oZoFIEh3NcExt7/jh483A/RqK4CiEaVGOL9TCB7/12dFuzFjkZxFUA0isAQ7msCEI3L9kM0LsEhzZcExnQmI3UZ7SPsaBTbD9EoAkO4rwlANC7bD9G4BIc0XxI4bbU5bliQPsSORrH9EI0iMIT7msAZD5rjDvdDNMqLwKuiCcWTlxLxLOWCkFA1BDSSgyP7R619d9mkvE9+9FJBjYnU6QMiH2BHo9gVL4om1JG8kjXtScVSEF6VBOR5K9p8abVcOkTjslNeFI2eMJeT0AqXJSGtygjYhz4O7Vk6N+/RC14p6fR7djQODsu8jx2NYkc8KZpYcgWxtlyxFIRXKYERgdGjd7dMyPuYWa+Udvp9OxoHByAa5X5ANMrIkFBiAtUkmnGxnWdkePA97GgUFwFEowgM4SUnUE2iidy9bbw9vC7vnew4JuIUSwSiKfn7BgMqEqgq0XTuGm9nBiAaxR578pgIPWYuJaZVqrUgvioJDFgfvDuK7lw4WA1XH2nvmmAHAv+Hj06K3fLijuboQ7qC/0EkFyiWg/CqIiD9xNoqq7XpJ9Vy2RCNy055UTQuS0EaCJSdQDiR/JKI9i52NIqoIRpFYAj3NQGIxmX7IRqX4JDmSwL6anMiBekd7GgU2w/RKAJDuK8J6PeZE2kAolFeBBCNMjIk+JiAHktNIpa3saNRXAQQjSIwhPuaAETjsv0QjUtwSPMlgVBnz5mcsd/Cjkax/RCNIjCE+5oAROOy/RCNS3BI8yWBho4dZ2laZhd2NIrt96Jojvwy+DT+vrB2mWI5vg1nsX8nWnBTunXaE76FUIHCGxLbJ2sS3AnRKML2omicXJNimb4IF6KN6aix0BfFDlGRDYmdkzUZhGhU+Tt5U1f6tncdB1+ptvFEvBU12HUyEgsSqG/vmhIIBHZgR1MQ1ecDIBpFYB4Ph2jK2yCIxiVfiMYlOI+mQTTlbUx9PDk1QFoPdjSKnCEaRWAeD4doytsgiMYlX4jGJTiPpkE05W1M/WpzWiBIKexoFDl7UTSReGqeTbJJsRSEE62zosZ1AFE+AvWd5rRABqJRJuxF0WSLOHJdmn25ckE+Tcj+hiagBV7tbZmc94R+n+IpWdnjYqmmDIuJHY0iUq+KRrEMhINARQhANC4xQzQuwSHNlwTGrekxMrbdjR2NYvshGkVgCPc1AYjGZfshGpfgkOZLApGOnmZbs5PY0Si2H6JRBIZwXxOIxLum2xTogmgUlwFEowgM4b4mEInvmG5TBqJRXQUQjSoxxPuZQLg9ebYEtO3Y0SiuAohGERjCfU0g3Jk8WzIQjfIigGiUkSHBxwTCse4ZwrwNOxrFReBF0UQ6d423MwP3EtEixXIQXmECQvRvTPS4FTXWVXjqIZkOonGJ3YuiCSV6rmaxH3dZEtIqTYD5p1Zr042VnnYo5tPXmDPJpjexo1Gk70XR4IQ9xSYOcbifjhCFaFwuNojGJTiknSDgK9F0mLNIo63Y0Si+ASAaRWAI/wIBiObzSCp9xnaxS7Iih0xDNMW2Cfl+Ek0okTqHRd7AjkZx3XtRNOFY9w3C/JBiKQgfIgJC/Mt0tOnrQzR9RaeFaFzi9qJojt249l9ENMtlWUirHIFuEbo33WbEKzfl0M0Uau85lwP2FuxoFHvgRdEcLyF7bYrlILzCBPb0Hvo93XnO4QpPO2TThTp7zuUMRKPcAC+LRrkYJIBAmQmE4jtmM2U2Y0ejCBqiUQSGcF8TaFidnKMFtf+FaBSXAUSjCAzhvibQsCY5R7MhGuVFANEoI0OCjwk0xLr/SGN+HTsaxUUA0SgCQ7ivCUA0LtsP0bgEhzRfEmhImHM1odewo1FsP0SjCAzhviYA0bhsP0TjEhzSfEkg0mGeZ2v0KnY0iu33qmiyn4WZAjOIMkoVBUh7v7etaYNSEoJBwCGBSKd5np2BaBzi+jTMi6IJr+n5E7HtZ5SLOZYgRH+fjhor3eYjDwRyEYjEU/Nskk3Y0SiuES+KRo+bPyKiOxVL+TSc6Wmr1bjCdT4SQSAHAYjG5dLwpGhiyRXE2nKXJRFBNK7RITE/gcianvm2bf8BOxrFlQLRKAJDuK8JQDQu2w/RuASHNF8SCMd6Fgjbr2BHo9h+iEYRGMJ9TSC8Onm+BLWXIRrFZeBN0XTfRsx3KZbyabjIequt+Ruu85EIAjkIhBPJ80UgGuUF4kXRnPGgOe5wP60noguVCyJ5i0la+qLTXf95XH1OZPiFQLij+wLR+CXsaBQ77kXRnCihc1MdtcwfUCwJ4SBQNgIQjUu0nhaNy5qQBgLlIqDHzewu+0XsaBQJQzSKwBDuawIQjcv2QzQuwSHNlwT0DvMi0uj32NEoth+iUQSGcF8T0NeYF5EN0SgvAohGGRkSfExAj6UuJpYXsKNRXAQQjSIwhPuaAETjsv0QjUtwSPMlgVAi9ccs8jx2NIrth2gUgSHc1wQgGpfth2hcgkOaLwmEYj2XMNvPYUej2H6IRhEYwn1NIBRPXsqkPQvRKC4DiEYRGMJ9TQCicdl+iMYlOKT5kkBDR/eXNY1/hx2NYvshGkVgCPc1gYY13V/WbIhGeRFANMrIkOBjAg1x8zKNaCN2NIqLAKJRBIZwXxOAaFy2H6JxCQ5pviRQi+8XrkQnSwkuFDc3MNHlOa+baZnVatxdibowBwiUg0Ao1n07M+d9OKE1SCNoiXGo0Px63JRSfAQrNE+h16tONLqD5zFZUaMidRWCi9dBwA2BQnIgphetVuNiJ2MXGsvO0MI9i4283wc5madQTEXekCXd0SR6rmaxHy9UmIj8ndic95EVhcbA6yBQSQJakOaS0KqCcwrdbbUZywrGERFEcxIlp2aNdO4ab2cGdjuBjBgQqFEC11lRY52T2iAal6LJpulxM/sdzPecgEYMCNQYgV9YUeObTmuCaIoQzVHZpHYTyXinwBEHAjVBYJBmWUuMbU5rgWiKFo25iIjWOgWOOBCoAQJLrahxj0odEE2RosmmhxPm4yJ0tQp4xIJAtRJw89dUiKYEojkim3jyz4W07BMn8Q8EapKAED2WjhrXuikOoimRaI58X7PanMhBWilE33bTDOSAgDcJSJKY/9lqNR50e30QTQlFc3yo8BrzWrJppk00g5lnkMhMIhrltknIA4GKEmB6g4XeIOLtImQOBDO/2d8yvbeYa4BoyiCaYhqCXBCoRQIQDURTi+saNXmMAEQD0XhsSeJyapEARAPR1OK6Rk0eIwDRQDQeW5K4nFokANFANLW4rlGTxwhUtWiOHPsQ1MJCmYhmU0RI6vLzDZwlLJPzxbDwLqLMWx7rEy4HBKqagLB2WSned0yBXlujXs7YfWNH1z2368Yp/SpgHJ9HE+pIXskcuIY0uoYENzOqQEYsCNQggXVC8tu6w8H1H35v6geF6isomlCi52pN7JuF6GuFBsPrIAACfiOQ/SQi7VZgbzu1zB/IVX1O0UQe6BpjHw48SEKOz77wG2LUCwIgcJSAML1GGVmevrX5iVMxOaVoGjq2naVpw35NJM0ACQIgAAJOCTDRrX1RI3Zy/BdE4+R8X6eTIg4EQMCHBE7xJJLPiQaS8eGiQMkgUB4CnzvX+IRoQvGu2UyBp4joS+WZF6OCAAj4jMAJ2ZwQjR7v7iTimx2DEFlPJFtE6BWqC76Qbpm213EuAkEABKqGQOSBtyfIwKEFtsgCFl5ARFc4uXghejUdNeZnY4+IJhJPzbNJNjlMTmnMLX2tTb91Eo8YEACB2iLg5CGOxysW4pZ0tOlfjojG6W5GSNrT0eYltYUN1YAACKgSGNOZjNRltGeIaE6+3OO7Gp780M4Rew8Mvs1M4/JPJlusaHPeQVUvFvEgAALVTaDQvVTZ6oT4StZjqT8lll8VKpcDwRl9LVO6CsXhdRAAAf8QCK3puZJt+8n8uxpp51DMjDFTNC8a4R9YbU0/9g8+VAoCIOCUgB437yeim3LFC1GK9bj5MhGdn29Q2x6YvOfWmbiz2il5xIGAjwiEE+ZfidDP8pWcFU0PEU3NE9RtRY3pPuKGUkEABBQIROI7ptuUyfu1SlY0e4ioPue4Ij+32prxvCQF8AgFAb8R0GPm+8TUmKvurGgOE1Hug6uEfmK1Gbf5DRzqBQEQcE4gHDdfE6K5uUWTSO3Od5CVEG1MR42FzqdEJAiAgJ8ITOjcNKo/U/9Joe9o3iCic/IE7bdmNOm0kAf9BA+1ggAIOCOgd3R/lTT+dV7RhOLmBia6PO+QGl1s3WK86GxaRIEACPiJgB5L3UYsd+Xf0cTMm4gp+3fw3P+YnrVajbyHHPsJLGoFARA4SiB7w6V96NAfiGhCLiZC9BiH7uk5k4fZDn4jw/9qRZtuAGAQAAEQOE4gHDcfK3ieONNNR26qdBR87J6FdLSp4O0KaAMIgEDtE3B4F/fugYA954hosk86YLEfd4Imewe3jKz70Z4bp2R/f4N/IAACPiOQffSSFtBWi9C0gqWLfafVNn3FiYOvnO5qsgMfuXdBuJPE3jyibt8Lu1vmHyg4IQJAAASqlkBjInX6YbEXsMgCYm25w0J2a4G6+b0tk9/79ChPhV3NyZMw0es2kedO2GPmzSTyqBU1XnIIxnHY2Pvf0YOHD95BxLOEaKTjRASCQJUR4KNf9Ko/EeXYbiZb7ucOJw8lUrezyMoq41Docj/WiK7vjRqPFQp0+noovmM2U2az03jEgYDvCHxGMl8QTfb/cPgFT7Vxe8GKGpeU6qJDcXMTE80r1XgYBwRqjMA6K2pc99maTvkAOd3Jb2uqjYxGs6xbjG3FXraTO1WLnQP5IFCtBHLdspTzkbh63FxERGurteCTr1soMycdPXtLsfXoa8yZZNObxY6DfBCoQQL3W1Hjb05VV07RZIOzf/bWxL654A9yPE4s+1ey0f0jZr+7bNLBYi81e8byvoOD3UQ0qdixkA8CNUJguzC1p1uNRK568ormeFK1Cyd7OHIpf2iIJ3rWyNsDZRRHgKmLbX5YMtJuLTH25RvMkWiOD1AfT04NiHatMF3DRBFiDpNIJO95NsWVUlQ2Cz0iTP9tRY11RQ10iuRjH6HuI6LZRHRaqcfHeCDgMQK9RNJHxL0k9jPE2v+o/Gzk/wGdaFdrIsZ0sgAAAABJRU5ErkJggg==;" parent="1" vertex="1">
          <mxGeometry x="700" y="333" width="46.53" height="33" as="geometry" />
        </mxCell>
        <mxCell id="pSxadLKcS4drCLlNTBEl-28" value="&lt;font style=&quot;font-size: 13px&quot; color=&quot;#ff0000&quot;&gt;&lt;b&gt;异常检测定制化优化&lt;/b&gt;&lt;/font&gt;" style="text;html=1;strokeColor=none;fillColor=none;align=center;verticalAlign=middle;whiteSpace=wrap;rounded=0;" parent="1" vertex="1">
          <mxGeometry x="436" y="358.5" width="83" height="73" as="geometry" />
        </mxCell>
        <mxCell id="pSxadLKcS4drCLlNTBEl-29" value="" style="shape=image;verticalLabelPosition=bottom;labelBackgroundColor=#ffffff;verticalAlign=top;aspect=fixed;imageAspect=0;image=data:image/png,iVBORw0KGgoAAAANSUhEUgAAAMgAAADICAYAAACtWK6eAAAAAXNSR0IArs4c6QAAHiZJREFUeF7tnXt0XNV977/fffQ02JZmjC0MXMe2xg9KE4c8GrAJr/aalIeblGLayyIlbWJ7xjgkC9pVsniFtskqqSjGGtkhKS23SZFv+IOI1HaSAqmNcUpDSGrIyCNZ+EJ8ZawZWXGi99m/u/bIMsLWY+bMe2aftWbpaLR/r88+X50zc/bZm7BbWgR8W6Nz3NpKf8Xw0DyB4xeIXynxi9AvgJ+gHxQ/BLMAVoFSBS3VoNlHFQRVifch1YDZT2zDAIcAGQYxDDEvGYbiEITDp97vh0hMyB5qHSOcHq3QQ1fHtMMepdlTU3EidnTDh/vTKrDMjVnm9c9Y/nnNB88drahdrEb0ElFqscBdosjFIlgCJF41MzrJZwPBCRJdAnYB8iaFXZrsotJdNex70wpo+s6xAjnF57zmjsYRysUEVhJcCdErQC4GMD+fx3fWYxPHIOgCGRHRb0A5r4sMv3Fi08o3sx67CAKUnUDmbo0udaqcD0K7F8MIgbISgosBVBZBf+Uyxd8A8gaoXh8XzihH//PkhuU9uUwi37FKXiC+cPRjEK4GcTlgXtKQb+hFHv8QgJcA7IfC/vjGwBtFXs+06ZeUQOZ9MzIbQ87VIrJaEoKgEYUq5Q7Me22CEyBfImS/62L/iTsDL+Y9pwwmUPQC8bdErtHiXEvI7wL8aAbZWFfeCAwKuBvQe6i5N7458Lo3N4VhVXQCqdve/gFHeKUIrgTMi/7CQGmzmJQAESHwvKbaB+Kl3g1L/28xkSoKgczb9otlrnLWEVwHYHUxAba5vpcAgTYh2xzttB0PLe4udD4FK5C6J7vqnAF3nQjWgWKEYT9LFPrRlFp+vyLRJpptNRWz2o5uWFiQNzQLTiD129p/n4rrIFwHYkFqzG3roiRAvE1BmwbbeoONuwqphoIQyHnNBxtcVK0HeSuAjxUSIJtLzgkcgMjTDoZbj4cuyfslWF4FUt/cuQbUtxJYD2BezrvCBixkAj0CtELU072hpfvylWheBOILH7oDoBHF2nwVbuMWFYE9gLTGg8uezHXWORVIfbjjc4B8jsCHcl2ojVcSBH5MsCUWbPznXFWTE4FYYeSqO8sjDoEfibAlHmpszXbFWRWIFUa2u6/s/e+hRktsc+DZbJHIikD829qvhVL3SeJOt90sgewSEOCpCuHDx0ONHZmOlFGBvO/Jrpq+gdH7CfxVphO1/iyBGQj8UsAv9wYbv55JUhkTSH2483rCvd8OGMxk91hfKRMgdgr4cO+mxoMp205ikLZALmx6q7a/dvBvIPhCJhKyPiyBDBCIQeTheGjZY+n6Sksg9eHI+wHnMQJXpZuItbcEMk1AgP9dWenc885nlxzz6tuzQPzNhz4l5DNeA1s7SyA3BOTnEN4TDwW+7yWeJ4H4WqJN9pLKC25rkzcCCZE0fi3V+CkLxNfS0Q0RO8o2VdK2fd4JmEuu3mDg9lQSSUkgvnBHLyB1qQSwbS2BQiJgHtiKBQM3JZtT0gKpD0ejBBqTdWzbWQIFTOD5eDBwbTL5JSUQX3N0P4jLknFo21gCRULgQDwYmPGYnlEg9eHoswSSPiUVCRybpiVgCOyPBwPTznEwrUDqm6PNJIKWpSVQqgREEO4NBUJT1TelQOrDh+4h+HelCsbWZQmMExDitt5NgW9NRmRSgfjC0T8CsNMitATKhoBg7WQ3E88SiL+58yMa+nskzisbOLbQsicgguOisPbEpsBPJ8I4SyC+cNRMu3Jd2ROzAMqRwO54MPCJKQXib+64XSg5e963HHvA1lzYBCj8dCzU+NR4lu+eQR44WFXfUP0yBZcWdgk2O0sgewSEeLW3e+gyPHTJsIlyWiC+5o67QXkke6GtZ0ugSAhMGNiYEMjc8JF6h8M/h+DCIinBpmkJZI8A8faIO7rq5OaVsYRAfM0d60F5OnsRrWdLoLgIUOSOWGjZP40JpCX6TQg+U1wl2GwtgawSeCYeDNxMPHCwytdQ0weRwl7OOKssrHNL4CwCw/FRzKF/e+enRGv76Kw9QiyBMwkIb6UvHP17AF+0dCwBS+AsAk1GIObDuZlp3W6WgCXwXgKt9DUf2gtyjSVjCVgCZxAQ2WfOIJ0Allg4loAlcBaBw/SHo4MCVFs4loAl8F4CBIbMGUQsGEvAEpicgBWIPTIsgWkIWIHYw8MSsAKxx4Al4I2APYN442atyoSAFUiZdLQt0xsBKxBv3KxVmRCwAimTjrZleiNgBeKNm7UqEwJWIGXS0bZMbwSsQLxxs1ZlQsAKpEw62pbpjYAViDdu1qpMCFiBlElH2zK9EbAC8cbNWpUJASuQMuloW6Y3AlYg3rhZqzIhYAVSJh1ty/RGwArEGzdrVSYErEDKpKNtmd4IWIF442atyoSAFUiZdLQt0xuBlAUiwHcJ3OQtnLWyBPJHQIhnKViXSgYpCwSiHxKoQRJfSSWQbWsJ5I0AMQzNLwHuuaB6IJU8PAkkHlr+YN32Qx9XWn0NkI+kEtC2tQRySUCAFwjcGw8GDvia2x/MmUBMkRfufKu2//jQV0HZksuibSxLICkC5MPxTY33j7fNuUDGA9eHo7cR+CqAC5JK3DayBLJKQF4BeV98U2DPxDB5E4hJYl748HJN/RWIfDKrtVvnlsB0BIhHK8+Zfd+x2xt+c2azvArk9Nlke+cfU7t3Afyo7UlLIFcECLSRaOrZFHhxqpgFIZBEciL0hTvuAvl5QBblCpKNU4YEiJ+RbIptbHxqpuoLRyCnMp23443zxa38vAbuol1iYab+s39PiQB7CTRVO7Oajm5Y2J+MacEJZDzpuuauVYoj5rLr08kUYttYAtMSIJ+gcppiGxZHUiFVsAIZL8LX3HEdlPwZBDenUphtawkkCBDfgXaeiIeWfN8LkYIXyOkP8uHD7wfc9QpYL8BSL8Vam/IgQKBTA62A09obXPLzdKouGoGMF/m+J7tqTg646wViVtn9RDrFW9uSI7CLYOvsWqf1zTsWD2aiuqITyMSifdujl0FkPYRGLA2ZAGJ9FB2BblBaQbbGNwZeznT2RS2QcRizt/3CX8GK9YRcD6q1gDiZBmX9FRIBuhC9R8Dvjcpo68nNK2PZyq4kBDIRztzHI4sVnetArCWxFkBNtuBZvzklMCiCPRDs0eLu7rtzRVcuoudGIMRJEd7dG2z8ei6KGo/h2xq9EE5CJAnBAJidy/g2VtoEThpBANgNF3viWwJvp+0xBQf+lo4tIvK3AM5JwQypD3c/5Z3Aj1wXD564c+pb+6kkkkrb+f9weIFbqdcK9HUgjVh8qdjbtjkjEIfIHkLtdkbUnnfuWnIsZ5FPBapv6byB4t4P0NNjGZ4FMl6oCMK6Ak19GwKduS7exKvf0TkXI6Or4TiXQ2Q1gdUAKvORS9nHNA8mCV6A6ANQ6mWM4OX4lsCv8sHFv6NrhWj3LyHyp+nET1sgJrgIjivFx7Titt4NS/vSSShd27pHu+qc6uGrhOrjkIRY7KDJdKFOa8+9EPf5fAtiPEXzD1Np2SwiXwDgT7f0jAjkdBJEhIJtsWCgOd3EMmV/WjBQVwK4CsCqTPkuRz9CvEqR5yHq3+HK/nydISZj7w9HQ0JshmBFpvomswJ5N6sDAnm8N7js25lKNFN+Fu44OmvY7V/pQlYCWElwBU7tZypGCfgZARGBmBcjQh1xNCNVledEkh0YmEsG9eFDf0LwTgAfy3TcbAlkPM9dUM4/xjcu+U6mE8+GP3/zoYRoQCMarNQJAcG8Nysb8QrAZw8gEYARkBERHdEOI/n6PJkqD9/2wzdDu5/J5iiMbAtkrGbyvynYSc2dPZuXHkoVRL7bz/nGQV/FaHUDhQ1adAPBBoANQmlg4q4/GyD6fIDz8p0rAA2RbqH6fwS6AbPPbgV0C6VbXNVdAekGBruPhy75dQHkm1IK87Z1LhMltwhxC0R+OyVjD41zI5B3ExsxQnGJnSeCge96yLewTR54ocLnv7BB0W0Qp7JOK11LV88iWKsVaymopZh9nfhJoFbIWiTel1lCqU38PwH7BRiAyACJARH2gzJAcECg+oUyoDQGzE/zu6IMaBntqWJF97FNje8UNiRv2dWFozc5gjFh5PBbylwL5DQdAX4CkZ26gs8UyyndW9daK68E5u6ILlWj8ocgbyHwIa9+0rHLm0AmJO0K2EaR5yoV20r1P2A6nVROtgtaOuaPaLlRyBsIuRFAXsfiFYJAJvb/CQGeI9FWo/qeO7rhw0k9SllOB1Ap1rpwx3/NGtRzbxDBjQRuAFBXKHUWmkAmcnmLwHMabDtnsPrFt7940UChQLN5pE/APAvUN+BerSA3ypgoLkrfa+Y9FLJAJlbbI8A+AnsF7g97gyvSerIs8xitx2QI+B9vX6EdXsXETVu5BsD8ZOzy2aZYBHImI/NV8X9QZFftUO0ue3bJ5yE0dezEWWJIX0Otfw+Aef1WYWY6dVbFKpD3VCTAi4Tsg1Tsramo2VeId3uL7cDwkq8ZpTA4OrgGHL1CwDUcG9pT1FtJCOTMHhDBq1TcCy37Kqqcve98NvfDrIv6qEgy+flPHF4wOuxeAcU1ouUKEpcmaVo0zUpSIJPQjwKyj6JeFdHtoIrEQ41vFU0vFUCivuaOiyB6BamWC/WlANcACBRAallNoVwEMglE9hPSLpB2iLSLciJmf5bqay/Xr5fN1639eu5ygsup3RUgE/sCLgekVMejTSuwMhbINFwEx0A5Aqo3IThCyBFtflfOEQ7pI4U0xDuVf5++rdE5Uq0WQbuLlHCRgItALILo90ES+wtS8VcOba1AvPVyL4AjAMyAwJiIxEHGzL4WiROMKTI24o7GHXFi2RLUnG+85aseGvJp0X6tlA8UnxL6RFy/kGP7TDyOfD4AM4l4vbdyy9cqLwIh8FMhf0aRqIb6maL26cRDLryYkD8owe4QAYYJDAMyjMRPnvo59r75+6n3zDOaVQSqZOxVbfaReEkVwFP7iffslmUCuReI6IdqKk7+3VTX+b5w9M8BbAWQGNlqN0sgnwRyKxDiujOXxZqqeF9LdD8El+UTjo1tCeRMIBR8KxYK3JYs8sQANnfuWctoJWtv21kCmSCQK4H8OB4MpPy8cH1Lx60U+ddMFGp9WAJeCOREICII9YYCYS8J+sJRMwOfXT3XCzxrkzaBnAhEu7ja6wyM9eGoWQi+6Mf0pN1T1kFeCOREIMOjmP/rLYHjXir0hw+1CLjRi621sQTSJWAFki5Ba1/SBHIiEHuJVdLHUEkXlxOB2A/pJX0MlXRxOREIAPs1b0kfRqVbXK4EAnujsHQPolKuLGcCSUC0Q01K+VgqydpyKxCD0A5WLMkDqVSLyr1AEieSshvuXqrHT8nXlbJABPgugZtKnowtsOQICPEsBetSKSxlgZhLJIEaJPGVVALZtpZA3giYtRM1vwS454LqgVTy8CSQeGj5g3XbD31cafU1QDytHppKkratJeCVgABmLN+98WDgQG7WSRf9kBGISfjCnW/V9h8f+iooW7wWYO0sgawRIB+Ob2q8f9x/zgUyHrg+HL2NwFftsPSsdbV1nBIBeQXkfWc+vZo3gZjc54UPL9fUX4HIJ1OqxTa2BDJJgHi08pzZ9x27veGsp1HzKpDTZ5PtnX9M7d4F0K5PnsmOt76mJUCgjURTz6bAi1M1LAiBJJIToS/ccRfIzwNi5mOymyWQHQLEz0g2xTY2PjVTgMIRyKlM5+1443xxKz+vgbsIVM9UgP27JZA8AfYSaKp2ZjUlO5t/wQlkvNi65q5ViiPmsuvTyQOwLS2BKQiQT1A5TbENiyOpMCpYgYwX4WvuuA5K/gyCm1MpzLa1BBIEiO9AO0/EQ0u+74VIwQvk9Af58OH3A+56BawXYKmXYq1NeRAg0KmBVsBp7Q0uSWvpvaIRyHjXmiW6Tg646wWyHsAnyqPLbZVJEthFsHV2rdP65h2LB5O0mbZZ0QlkYjW+7dHLILIeQiOWhkwAsT6KjkA3KK0gW+MbAy9nOvuiFsg4jNnbfuGvYMV6Qq4H1VpA8rqQfKY7yfo7kwBdiN4j4PdGZbT15OaVsWwxKgmBTIQz9/HIYkXnOhBrSawFUJMteNZvTgkMimAPBHu0uLv77lzRlYvouREIcVKEd/cGG7+ei6LGY/i2Ri+EkxBJQjAAZucyvo2VNoGTRhAAdsPFnviWgJlSNmebv6Vji4j8LYBzUgma+nD3U94J/Mh18aDXKUVTSfLMtvP/4fACt1KvFejrQBqxmFWU7FZ4BOIQ2UOo3c6I2vPOXblfbbi+pfMGins/QE+PZXgWyHhfiCCsK9DUtyHQmY/+qd/RORcjo6vhOJdDZDWB1QAq85FL2cc0DyYJXoDoA1DqZYzg5WwtPzcTa/+OrhWi3b+EyJ/O1Ha6v6ctEONcBMeV4mNacVvvhqV96SSUrm3do111TvXwVUL1cUhCLHbQZLpQp7XnXoj7fL4FMZ6i+YeptGwWkS8A8KdbekYEcjoJIkLBtlgw0JxuYpmyPy0YqCsxNkv8qkz5Lkc/QrxKkech6t/hyv58nSEmY+8PR0NCbEZivcvMbJkVyLs5HRDI473BZd/OTJqZ87Jwx9FZw27/SheyEsBKgitwaj9zUYre0wiICMS8GBHqiKMZqao8J5LswMBcEqgPH/oTgncCSHmRppnyzJZAxuPugnL+Mb5xyXdmSqQQ/u5vPpQQDWhEg5U6ISCY92YVQn5ZyKEHkAjACMiIiI5oh5F8fZ5MtT7f9sM3Q7ufyeYojGwLZKxm8r8p2EnNnT2blx5KFUS+28/5xkFfxWh1A4UNWnQDwQaADUJpYOKuPxsg+nyA8/KdKwANkW6hMmu4dwNmn90K6BZKt7iquwLSDQx2Hw9d8usCyDelFOZt61wmSm4R4haI/HZKxh4a50Yg7yY2YoTiEjtPBAPf9ZBvYZs88EKFz39hg6LbIE5lnVa6lq6eRbBWK9ZSUEsx+zrxk0CtkLVIvC+zhJJY+ppgvwADEBkgMSDCflAGCA4IVL9QBpTGgPlpfleUAS2jPVWs6D62qfGdwobkLbu6cPQmRzAmjBx+S5lrgZymI8BPILJTV/CZYjmle+taa+WVwNwd0aVqVP4Q5C0EPuTVTzp2eRPIhKRdAdso8lylYlup/gdMp5PKyXZBS8f8ES03CnkDITcCyOtYvEIQyMT+PyHAcyTaalTfc0c3fLi/nA6Ocq114Y7/mjWo594gghsJ3ACgrlBYFJpAJnJ5i8BzGmw7Z7D6xbe/eNFAoUCzeaRPwDwL1DfgXq0gN8qYKC5K32vmPRSyQCZW2yPAPgJ7Be4Pe4Mr0nqyLPMYrcdkCPgfb1+hHV7FxE1buQbA/GTs8tmmWARyJiPzVfF/UGRX7VDtLnt2yechNHXsxFliSF9DrX8PgHn9VmFmOnVW9Iejg1LkU/II8CIh+yAVe2sqavYV4t3eYjswvORrRikMjg6uAUevEHANx4b2FO1GYMicQcwo3CVFW8UkiYvgVSruhZZ9FVXO3nc+m/th1qXEc6pa5j9xeMHosHsFFNeIlitIXFpidR+mr/nQXpBrSqywM8uJArKPol4V0e2gisRDjW+VeM0ZLc/X3HERRK8g1XKhvhRIHDOBjAYpNGci+8wZ5GkAZqKEMtvYT0i7QNoh0i7KiZj9WaqvvVy/XjZft/brucsJLqd2V4BM7Au4HJBSHY823XHfagTy9wC+WGbqmL5cwTFQjoDqTQiOEHJEm9+Vc4RD+kghDfFOpd98W6NzpFotgnYXKeEiAReBWATR74Mk9hek4q8M2jbRv73zU6L1M2VQbCZL7AVwBIAZEBgTkTjImNnXInGCMUXGRtzRuCNOLFuCmvONt3zVQ0M+LdqvlfKB4lNCn4jrF3Jsn4nHkc8HYCYRr88khJL3JbyVeOBgla+hpg8iOZ4xhK+Q8grAH0LjAqFeDdA8AViQN4zSPBhEgGECw4AMI/GTp36OvW/+fuo984xmFYEqGXtVm30kXlIF8NR+4j27ZY/AcHwUc2j8+1qi34TAjKvP+kbg2wSbeoKNP5ksWH1Lx19T5EtZT8QGsASmJ/BMPBi4eUwgzR3rQTEf1rO6CeSG3uCy7yUTxNcS3Q/BZcm0tW0sgUwToMgdsdCyf0oIZG74SL3D4Z9DcGGmA437o+BbsVDgtmT9JwawuXPPWkYrWXvbzhLwTIB4e8QdXWVmeUwI5NRZ5G5QHvHsdHrDH8eDgZSfF65v6biVIv+apZysW0tgcgLCe+Khxq+ZP54WiPmwXt9Q/TIl83dDKbwzFmrc5qU/fOHoLwEs9GJrbSyBVAmYWVt6u4cuw0OXmC9RJgjETCLU3HG7UP45VaczttfyP+Obl/1gxnaTNPCFO/YCUup3+r2gsTZZIEDhp2Ohd9c7fPcMMn6pFY7uSsx/m8lN+D+8Du3wtXQ8me7seJksxfoqaQK748HAe9apOUsg9c3ta0hl/ttn7L5I5W/6zz12zwc8feD2hQ89AvDuku4WW1whEDAzgl4XDwYOTEzmLIEkPrCHo3cBeDRTWVPUR2Ohpa948ecLR/8tm/MeecnJ2pQiAflMPLjsyTMrm1QgppG/OfovQvyvTKAY/07Zi6/6cDRKoNGLrbWxBJIjII/Eg8v+YrK2UwokMbyZ+gdIjORMb0v1Hsh4tPqWjtUU2ZdedGttCUxNgEBbLBi4aaoWUwokcRbZ1v5JUc7/ycgyaKIfioeWP5hKZ9m76anQsm09EHjdEf7B8VBjhyeBGKP68KHrCZpJqOd4SOA9JvFgYFpBTmzsa442gTBT2NvNEsgGgdehcEt8Y+CN6ZwndcDOa+64WhPfAsQMm05rE3DDdMu3+cLRPwL414AsSyuQNbYEpiaQlDiMeVICSVxu7ej6He2O/ksmPjCbaUcpfAnAfpeV31cYuEjBMQ/6X4GxNdPtZglki0DS4khJIGOXW5H3E04LgMuzlb31awlkjYD5wsfhhpkuqybGT/oMMm50XvPBczWrHhFwY9YKsY4tgcwTaIqP4l5sCQyl4jplgYw7rw93biS0Gf17bioBbVtLIMcEDkN4bzzU2OolrmeBmGC+5o7LTw2Rt5dcXuhbm2wTaHWh7+0LLj/sNVBaAjFBzSWXq6q/DLFfyXrtBGuXcQIxiDwcDy17LF3PaQtkwiXX9URiwXa77HK6vWLtvRMgdgr4cO+mxoPenbxrmTGBGJdjU9qP3k/grzKRnPVhCaRA4JcCfnm6e2wp+DrdNKMCGffq39Z+LZS6TwCzNrndLIGsEhDgqQrhw9MNGfGaQFYE8u5lV8fnAPlcvtaX8wrF2hUNgT3UaIltDjybrYyzKhArlGx1W3n7JfAjEbZ4/eo2FXo5EYgVSipdYttOQ+DHBFtiwcbMz5swRdCcCmQ8B1/40B0AzZirtfZwsASSILAHkNbJnvhLwjatJnkRyOkzSnPnGlDfyrHlF+alVYk1LjUCZl3KVoh6uje0NG8PzeVVIOM9el7zwQYXVetB3gog5QnmSu3IKPN6DkDkaQfDrcdDl3Tnm0VBCGQihPpt7b9PxXUQrrPrVeT78MhRfOJtCtrMkt+9wUYz7VTBbAUnkHEydU921TkD7joRrANlHQBVMNRsIpkg8CsSbaLZVlMxq61QF14tWIFM7IF5236xzFXOOoJGKGYNEbsVKQEzSYKQbY522o6HFuf9EmomjEUhkIlF1G1v/4AjvFIkcZf+SoD+mYq0f88rgS5AfiDgXtEje09svtiszFU0W9EJ5Eyy/pbINVqcawn5XTtQsmCOu+dB/psSvDjVQkkFk+kMiRS9QN5zKfbNyGwMOVeLyGqheSyY5jkV+9klu0ejBmQ/BftJvlTlnPPDQv084QVDSQlkMgC+cPRjEK5GQjDmJQ1eQFmbcQI0nxvM6l/7QXnpzLlsS41TyQvkzA6buzW6VFXqjyhRqwRYBeCDAOaXWsdmqJ53APyUwGua+jU9ol7p2xLozJDvonBTdgKZrFfmPR5Z6FZWrlJarxKRDwq5KhPTGxXFEXAqSQE6KPIayZ9qpV5zRkZe67lzxdFiqiEbuVqBTEV1a7R6boW+QDkVCzkqF4ByAYCxl5jfuZDABWaZ5mx0TAZ9ngTkqIBHFfBLkEdF66OJn+RRPTp6tE+co6nO9pHB/AralRVImt3j2xqd49ZW+iuGh+YJHL9A/EqJX4R+Afw0X0NT/BDMSqxxTqmClmrQ7KMKYtY7N2ufixHa+NrnZs30ocSa6sQwxLxkGIpDELO+euL9fojEhOyh1jHC6dEKPXR1TDvsUZo9NRUnYkc3fLg/zRLL2vz/A0gqBKNRNBapAAAAAElFTkSuQmCC;" parent="1" vertex="1">
          <mxGeometry x="91.5" y="321.5" width="37" height="37" as="geometry" />
        </mxCell>
        <mxCell id="pSxadLKcS4drCLlNTBEl-30" value="" style="shape=image;verticalLabelPosition=bottom;labelBackgroundColor=#ffffff;verticalAlign=top;aspect=fixed;imageAspect=0;image=data:image/png,iVBORw0KGgoAAAANSUhEUgAAAMgAAADICAYAAACtWK6eAAAAAXNSR0IArs4c6QAAFkVJREFUeF7tXQuUG9V5/v7RLsaAjTVacDDYPKxZm3cCTkzLI4HwSIgJBCgUShJoHrZGa7c8XdK0QHpCCkl5eFcjTCCk+ARCXCikDaTGxBSwwytpoAR7d7SACdgxWCMbU8D2av6eWRuyK412pdFIe3fnn3N8OIe9/+N+3/1053HvfwlyCQKCQEUESLARBASBygiIQGR0CAJDICACkeEhCIhAZAwIAsEQkBkkGG5iFREERCARIVq6GQwBEUgw3MQqIgiIQCJCtHQzGAIikGC4iVVEEBCBRIRo6WYwBEQgwXATq4ggIAKJCNHSzWAIiECC4SZWEUFABBIRoqWbwRAQgQTDTawigoAIJCJESzeDISACCYabWEUEARFIRIiWbgZDQAQSDDexiggCIpCIEC3dDIaACCQYbmIVEQREIBEhWroZDAERSDDcxCoiCIhAIkK0dDMYAiKQYLiJVUQQEIFEhGjpZjAERCDBcBOriCAgAokI0dLNYAiIQILhJlYRQUAEEhGipZvBEBCBBMNNrCKCgAgkIkRLN4MhIAIJhptYRQQBEUhEiJZuBkNABBIMN7GKCAIikIgQLd0MhoAIJBhuYhURBEQgESFauhkMARFIMNzEKiIIiEAiQrR0MxgCIpBguIlVRBAQgUSEaOlmMAREIMFwE6uIICACiQjR0s1gCIhAguHWMKs9re6DNpszXmlYAHFcEwIikJrgalxjPdN9LZM2h4CjAb4foPsc01jauIjiuRoERCDVoNSENrplvwTg0AGhljqmcV4TQkuIIRAQgSgwPCZ12p/RYlhRmopjGsLPCPMjBIwwAV54EYgCJFRIQQSiADciEAVIEIGoS4IIRF1uZAZRgBsRiAIkyAyiLgkiEHW5kRlEAW5EIAqQIDOIuiSIQNTlRmYQBbgRgShAgswg6pIgAlGXG5lBFOBGBKIACTKDqEuCCERdbmQGUYAbEYgCJMgMoi4JIhB1uZEZRAFuRCAKkCAziLokiEDU5UZmEAW4EYEoQILMIOqSIAJRlxuZQRTgRgSiAAkyg6hLgghEXW5kBlGAGxGIAiTIDKIuCSIQdbmRGUQBbkQgCpAgM4i6JIhA1OVGZhAFuBGBKECCzCDqkiACUZcbmUEU4EYEogAJMoOoS4IIRF1uZAZRgBsRiAIkyAyiLgkiEHW5kRlkJLm5hjV97959WeM5xLBKU+Fi3xF9hHVbOg7Oj2SaUY4tAmki+/Fs7xzi4hkM7WgC7wvgY1WG3wbQOjCvB9xlTPxAwZz5YpW20qwOBEQgdYA3nGnb4tf2KRb7ziC4pwF0KoA9hrOp4e+/B3A/w11eMGc8WYOdNK0BARFIDWBV21S37K8DdBbApwFoqdaujnYvg3k5U8udBfMgmVnqALLUVAQSIpi6Zf8FCB1gnBCi21pcfQBwl+u2dG3qOGhtLYbS1h8BEUgII0PP2KcSoYOBM4K74w8YeJcADdAI4HhgX4wNRNzlxmKdhbnTNwf2I4YQgdQxCBLZ7k+5rHUQ8OUa3LxF4OUMeo6YXyfS1m6N7bZ2y9wpGwf5uIa1SR9bM4143FRwcRo0TCWXjwdppwEcqy4edROhK59KdlXXXlrJLVZIYyCesU0iZIZ1x9zHRE8S81OA9ksnnVw1rM0QDZKL7HH5Fj6ZmD4L4FTQoJNxK90nPOoCCzeljP+pJ3YUbWUGCcB6Ipu7gZmvGsZ0NRM6Y33FhzbOn7kuQJiqTBKLX53Nxb5vAPjaMAYbAb7KMdvvqsqxNOpHQARSw0CYsLi7raWoLSXgMxXNCBvIpU4ucqezwHinBvd1NY1nc8dqzCYDFw7liMGdBbN9QV3BImQsAqmS7DYrd7QLfn6I5tsBdLrU17kpdfBrVboNvVnC6j2ZuWiC6EuVndOTjpkcqTdtofe5kQ5FIFWgq2e6rwVp1wzRdJnm4uqNHcZvq3DXlCZ6tvccsPsjABMrBHzXMY0JTUlmFAcRgQxDXqLLPpM1PFi5Gf/AMduvrHcM7PyGcikY4wlYykxLnHTyD/X4bcvkTnTJEwkd4OuH8IKTMj5eT4yxbisCGYLh+OLeaVR0K35wI8JX8iljSb2DJG7lvkngxQP9MKGrkDLm1+t7x1svrCTgaD9fDOosmEl5JqkAtAhkiBGoZ3pWg2im/8CKHRnGsg7v2YbBKxkYVxrH2bB1HK47bFu9IvHsdcv+NwDnVBDJ3IKZvD2MOGPNhwikAqN6NncPmC/w+7NjGqHhpmd6ngTRcX5xtFjrlI1zD1gf1qCLW/b1BFzt5480nJWfZzwUVqyx4ic0oscKIF4/4lbuSgLfWOHX9vSCmXwkjP7qlv0vAC7zfz7gx5xU+8lhxBnoI27Z/0rAV3z8vg/gJMc0ng475mj2JwIpYc9bPsKsPVOB1Fsc07g0DMLjt7w0jXYZ5y1Z910CH9bzjV+uerZnOXZ8iR90MeO3hbfemI3rTuwLo49jwYcIpITFuGXfXWFt1VLHNM4Li3Q9Y18Kwk3+swfd6qSSfxtWrFI/E+/4g96y9f2VFZ6vLnVM45ZGxR5tfkUgAxjzVuWC8F8+JK5yTOPYMMnVLfspAD4+6amJ42OnvHbJgR+EGa/UV6KrZzZreBSgQd9CiNC7rTh+9paO/WSbryw1GTxsEpb9c58l69s1F8eE+RFwx/cJ/pXvMw7RBYVU8qeNFMeHvnds7MIPy2Kxe52TnnFtM3JQPYbMIDsZ6v9QB/zMh7CbHNO4PEwiE5ncDUx+ix3pvV1jm/ZaN3fWe2HGG8pX3LJXlK8t43yxj2ZvXmD0NisPVeOIQD4USNb+77KdgIQNLvqOCXttlZ7JPQBin7VS/FPHbPd9tdyoAZTI9JzNRPf7+A/thUSjcm+GXxHIjo9ovrcaxPTtfDr53bCJ0K1cN8DtpX6ZkS6kjbLyP2HHL/WnW7n7AT675P/3aTHM3jhXnfVljcbBz78IBEDCsh9i4IslAK1GH44Je8n6Xpm39ijS5i1+ZLhFnLhpvvF4swdCpcJ1AK5xTOM7zc5HpXiRF8jkbG7v7cxvAGgdSAwTzELKyIZNVtttvbNc133Oz++2Puz97gLj7bBjVuNPt2zvYd2bSQdeKx3T8P3KX43PsdAm8gKJZ3ouIKJ7Ssjc3tIam/rWNw7aEDbJiUzvJ5ncZ/38xnjrhLfTh70bdsxq/CUyvWczuWXPIpqrzdjYMb2nGh9jsU3kBaJnc3eB+eJB5BI97KSSX2gE4W3WmhkuYmv8fBf7kBypN0eTbn51kjauuA7g8YNyY7rCSSe9JTGRvEQglu2VxRm8qYjpSied/EEjRkTb4pf3cYut/nvUmY6tt6hDPTnrGXsZCKeU/Fg85qSSoa8JqyfPZtpGWiD921PhPloKuAaatdFM/qYRREz+/gu7b999t0q3USO6zCNh2d9ioOytnbalOHHjwpm+LxYagZFKPiMuENtiIFXyi7neSSWnNJIk3bK9JexlhasZ9GDBTA6xl7yRWQGTMj0f14jKSgMxaxcW0tPvbWx0Nb1HWiBxK/c8gQfttGNgScE0/JaDh8ZgImt/jxl/5+NwUxHu0ZvNGa+EFqxGR7ple2/0vMrzA6/QVxPUmNaINY+0QCr8kjf8NmfHQkGqtO8i1FXDtY6seMZ+kAhnDrZr/hf+WvNuVPvoCsQ7vGZyrlgKLDGfk0+3P9AowD/0q1u2J5DZfnEItCBvJjsbnYOffz2TuxXEg/eoE55wUsanRyKfkY4ZWYHomdxUEL/ezAf0gbGqKCU0sPk7AD9LTM+7Gl4il56ot+JJpYGnZ3KXg3jQGzwCevOmkRzpwToS8SMrkEq3Odtju+9VVki6QczoVs8LAB0RwH0BzEu0WGzJxnnThypmV7NrPWOfC8LSEsP3HdPYrWZnY8AgugLJ5r7EzKW3Uu85prF7s3gdYol9LSncx9CWFMzpv6jFqFLbxKLuT3FL+Zbjvg+2Jt657DAnjBijyUd0BZLJdTBx6X3+asc0Dmkmgbple3tQvL0o9V0hbXLa+5ZXJvftUvxjaTJMdHghlXypviRHn3V0BWLZVzNwfQllTzum8WfNplG3bA4lJvO/O+n20mXrNbn2Cs05LSjf7qvhz515xq9rcjYGGkdXIJmei5mo9CiANx3T2K+ZvPpVVawnvrenPJ8K/kC91229RtF1yxYnutR3YNgbx+rpZ7NsIyuQSgUanA3JGK4jt1kE6Jb9MIDP+8QrsOteRNT/0W5faNpUME0DuIp1UfRHx0zuE6QPiWzuJGZ+rNTWads6DueFU+UxSF4jZRNZgcQ7Vx9OsZayE2Gb+Uvpnemx4+Sp8ouYb8yn2xeW/iVhdX+VWbschMOHGjREdGM+lSyzH26gJfxn1rxjGm3D2Y7Fv0dWIBO6VidatZbB5wICYMROKJgHNeXccT1rrwLD95mHyN0vn5rxpt+g69+ViMIVwxzJACb3gkJqRk0VUvRszz+AafAuQqL/dVLJIK+jR71mIisQjzndsrcC2GUgi8y4qJA2ftJoZvWMfRMIlao03ueYxl8Ol4Nu2V5xuZuHaLedyD0un5rhu0HLz07P5m4Hs3ek28BrmWMa3pnvkbsiLpDcqwAPOjuDCVcXUsY/N3Ik6JbtFac7tVIMhjan2u8aicWvzuRi3+qK+TJ+5qSN86vtj27ZvwQwWAxEP3ZSyUuq9TGW2kVbIBl7FajkFof5YSfd3pjdhF32Ua5GtwH8yYriIFpYSCV9C2dXstlzsT09VkSuwt+LYDqw2qUpumV7NbkG7Spk4HsF0/jWWBr41fYl4gLxO1qNinof755bYHi3X6Fck7KrD9C4xTsMx/s3qDjEwAAE/EfeNEqrq1SVw1DHUjPzwkK6fVjR6Znc50BcVrmeoJ2SN6cvryqRMdYo0gKJW2uOIMReKOWUwXMKZntdSzcmdb28P2mtxxP4eBCdCcbk4cbObh/sutsbl031jiEIdOkZ+xEQPlfWH69qe9rwPWFqYNu4ZXcRkB5sz45jticCJTQGjCItEI8/3bK95ROHDuKScbOTNvzP7SghPd7VfTrFYmeB+yslBn4VGsbbM7+VuB+mS9x6SD59QOVnFQ+LbO5FMA96fUyMn+TTxkVjYKwH6oIIxLKvA/CPJQL5vZM2DqsG0XjGfosIe1XT1rcNYQMIJznzjJcD+9hpOGlR95Fai/Y7Pz/DFaWblLU/oTHKT+l1cb7TYfjVLK433VFhH3mBxK3u4wnaE6VsUazlmPzcAysdpNPfPJ6xM0QwAzPNeCKGree/nT6sbHFgUJ96xn4aVL4RaziB+L8yZsfpoykI8XksaL9Gyi7yAtl5m+Wd9FS6ivdOxzRKKw0O4km3bO8bRJCDbtaB3R86LVu+i7mztodJvn6bfQjc/ir1A28b73JM468rxlnBLfpq+zmABh0JHfXbKw8vEYh3753puRVEZUchM9FxhVRyZaWBlcjaX2bG3TUM8HUg3K5prbeHeThnafx+kTB9k71vPIyXh3tFm8j2LGCmW0v9MOGiQqrxH01rwK/pTUUg/Yd2vnIEoejdTu06kAEC7smbxl8NxcqOWxO6vqwi4Z+MVgL8ayJ6kbTW5Y0URpDR03bnmgnuttizYJQedx36qVpB8htpGxHITgZ0q+f7AF1R9ixSxTcAr54UIXYwgacQYZsL5FoY9tvpZKWPdyPN+0fx45a9kICylQPMfGEh3R7JWlglP5LKcDWiiUzqemV/jYrPgEq+V4SwCWlEOzZE8B2V7fEswPuXNHvEMY3TVc27mXnJDDIA7YTV820G/VMZAaSd66Sm+53C1EyuQo9VqbIKg0I7Cz70pJvsUAQyAPD44t49qcjPADyjhId3NKazNqaTK5rMT8PC6Rn7ayDcUf5jQPc6qeSFDQs8yhyLQEoIS2RzHcxlxRy8nSKv6X00M8w1WiM1VvSsfRoY3qrd8muEK8yPFCaV4opAfJDRs/YycMkxAP2bqfCbgmnMUo3EWvLZ+Z3E++5TdnlFLAqm8fe1+BvrbUUgPgzvXHaxrMLaqvsd0zh3NA4MfZE9ES3wzkPxu4b9MDoa+1xvziKQCgjqVs8lAP2owi/tqNsfsfMsxkpHyq10NiRPaGaxinoHbrPsRSBDIB23ehYRyNvD4Xc7cnfBNL7aLKLqiZPIrjmJOVZWqeRDn1qsdYpqHzDr6W+YtiKQYdDUrdwT8PZ0+F3Ej/W1jj/vna9PVbYkZ8LKzWfwokrddJk/sSnd7rsCOMyBNlp9iUCqYE63bO/4sT18mzKvIcbF+Y72IVf+VhEm9CbxbO4qYr6hkmMiuiSfSv449MBjyKEIpEoy9az9OzCO9G/OWwC6zDGN8u8KVfoPs1n/84ZbNIcqC0TEf5NPtVecWcLMZzT7EoHUwF7cyi0isO8zieeGgcc15s5mHMDjl7a38LC4NWYSKOWzfOQjE9a0LxTmTfcqOso1DAIikBqHSHW1dOkBt8idm+Ybj9foPljzFdySWGOb7AmjfFXuQJ89Gopf3GjO7A4WKHpWIpAAnCdus89kF95K10HlcXxc3UGsPVLcpv1q06UHbgoQakgTvcs+FMQng3Bx6WanUkMCfp5vS56N86js2Lmw8xpL/kQgAdnULfsYZnhbbo8a3gW9D+aniPB4kfnhet4aTbLsT9OOonOnETBspRIvt6B1eofv19hvIQKph+NrVrTok/frIEIHM6bX4OpNZjxPoLUAXgd4LRXd12Nu69qJWnHT5l20aS7zVLjuNNYwFfAqu/M0AN7r5uqPQiO6Fy66nHRyVQ25SdMBCIhAQhgOE7reSLTS/80HUQdAKtSQeoRBnQUzWVYELoTuRsqFCCREuvdcZE+PtaAD6P/XEqLral2tYuYu2QlYLVzDtxOBDI9RzS3aFttHuUXM2Vmg+tiaHdRgwIy3ifCfrGmPFuZNj/wW2Rqgq6qpCKQqmII3auvqbXeJz4CGz4P5s8E9/cnSEwWApYhpvyisf385roveyU9h4FiNDxFINSiF1KbthjUTinu0ziFyZwE8BURTiLEvA1MqvDLOg2gdmNd7/2Xm9VzEsqZ9Xwmp36PZjQhEEfYm3vSSHhu/6xQinuBy3/pNieK6KJ4JqAgdH6UhAlGNEclHKQREIErRIcmohoAIRDVGJB+lEBCBKEWHJKMaAiIQ1RiRfJRCQASiFB2SjGoIiEBUY0TyUQoBEYhSdEgyqiEgAlGNEclHKQREIErRIcmohoAIRDVGJB+lEBCBKEWHJKMaAiIQ1RiRfJRCQASiFB2SjGoIiEBUY0TyUQoBEYhSdEgyqiEgAlGNEclHKQREIErRIcmohoAIRDVGJB+lEBCBKEWHJKMaAiIQ1RiRfJRCQASiFB2SjGoIiEBUY0TyUQoBEYhSdEgyqiEgAlGNEclHKQREIErRIcmohoAIRDVGJB+lEBCBKEWHJKMaAiIQ1RiRfJRCQASiFB2SjGoIiEBUY0TyUQoBEYhSdEgyqiEgAlGNEclHKQREIErRIcmohoAIRDVGJB+lEBCBKEWHJKMaAiIQ1RiRfJRCQASiFB2SjGoIiEBUY0TyUQoBEYhSdEgyqiEgAlGNEclHKQREIErRIcmohoAIRDVGJB+lEBCBKEWHJKMaAiIQ1RiRfJRC4P8ByuOyIyR0rz0AAAAASUVORK5CYII=;" parent="1" vertex="1">
          <mxGeometry x="67.5" y="395" width="85" height="85" as="geometry" />
        </mxCell>
        <mxCell id="pSxadLKcS4drCLlNTBEl-31" value="" style="shape=image;verticalLabelPosition=bottom;labelBackgroundColor=#ffffff;verticalAlign=top;aspect=fixed;imageAspect=0;image=data:image/png,iVBORw0KGgoAAAANSUhEUgAAAMgAAADICAYAAACtWK6eAAAAAXNSR0IArs4c6QAAEfBJREFUeF7tnX+MHOV5x59nLtTBIQm3CyWlBkV4Zq9qSCPnCGlpSnEDBZy0QPjVNnVwAzHeGdtqo6BKaS2gpIoAlVQ2OxsI1FHi/ggQIGkTExrAwRCTxggI9BRuxooQjVV+7LtGTa2Q+uap9uw7/7q7nXf3mZlndp/7x5L3nef5vt/vfPTs7M3tIOiPOsDkwAlhPD4FMI6QjBPgOAKMA8IOSOApdOCZhEaea/un/YipXS5lMJcu2mSgHaiGL55LhBsA8eyuGyV6HJFuavlj3+26VsACBURACGWVcNJX/vtt+372PxsI4C9t94AAN7/luLff9Mon3vW/tsfmuV4BydPtAepV/WJ0UZLAhum3UT3+EMDTjgM3tdZ43+ixROaHKSCZWzx4DSphdDkA3MO2M4QrTd3jq8cmDEABYTRzGEqxwzFjGuEfmcD9mjQPFRBpiQjWkxkcB/ZMiH/crrv/IskCBURSGoK1ZA3H7CAB+njbr/2TFCsUEClJCNaRFxyzkBD8aTvw/lGCJQqIhBQEa8gbjoOTBFa2fW9L0dYoIEUnILh/UXDMWIIIn2jVva8WaZECUqT7gnsXDccsJA5e1VrjfqUoqxSQopwX3FcKHLOQEP1ZK6h9uQjLFJAiXBfcUxocB62iTxq/tjlv6xSQvB0X3E8uHAdMQ7ja1L1/yNNCBSRPtwX3Eg/HwY+3rjGBd3deViogeTktuE9p4Djo4aeM792Vh6UKSB4uC+5RQjj2u4m42tTdL2VtbSaAnNSMf/kXNDWG5NQAklOy3kTm9dH5z8QZmTxmau+u14LTf5Z5v5walBaO2bdbuNoE2ULCBki1+eKvEo1sBKAPAED5oZjvJEWYIKJH2n5tfU7ncSZtSg9HTtckLIAcvyk6xxmBzr0zJ2eSpsCiBBAD4Pq2724VKG9BSQMDx+wunU8af2kmHwH3DUil8eINgM71ZTtJuPQS0KYyTZPBg+PAJUlGv0zsC5BKGHX+Cqzz12VD/kN3Gr92rXQTBhWOGd+R8KpWwHtbSs+AVJrRXwDBbdJPirz0EeAKyW+3Bh2OWUgAVrYY7wLuCZDK7dFvgQPfz+vkK0ufEULvtcCNpekdFjgOXrc7H2/7S1n+6KonQEbD6DEEOEfaiSBAz1bjeysE6JiVMGxwzEJC9CftoPbP/WZhDciJjdidQor6bTyoxzuJM/b62qWTEvY3rHDMes/wRRDWgFSa0flA8JCEE0CiBkLnD9r1pf9WtLahh+NgAFcY37u31zysAamGUUAAt/facOCPI/yMCdy/K3KfCscR7qNzmakv/XovmVgDMtqIGojg99JsOI4p9iNfhWPuswyJLm0Ftfttz0F7QPQCfUGPCWBb2/eW2wbBsV7hWNhFBLyk5bsP2nitgNi4lWJtUYAoHCnCAQAH4KLXfe+b6Vb38NWj+hHvwtYWAYjCkfZ037/O5oMUnSB23nZdnTcgCkfXSOZcQEAfbfu1b3U7WgHp5pDl63kConBYhnPE8jS3Bykg/Xl81NF5AaJwMAWHcIGpe9+Zr5oCwuTzTJk8AFE4mENz6PfNmtq/z1VVAWH2OmtAFA7mwA6UQ8c5t7Vm6SNHVldAmP3OEhCFgzmsI8ohTn24Vf+1Rw/9bwWE2fOsAFE4mIOap5yDsPz1urdt5mUFhNn3LACpfClaAv8H3wOA05jlarm5HNgHp5j13n91XlJAmE+RTAAJJ+8AwNXMUrXc/A48N0JvfqjzFU8KCPNpwg2IvrViDihtOYT7TN27XAFJa1jKdZyAvDN8aXSEfvE9QHhvyva6jNMBB85SQDgN7dznw3g3b7UZrSSCwh4ew2xN+coRblRAmGPjBKQSTt4KgJ9hlqjl0jvwqgKS3qxUKzkB0TunU1me6SIFhNleZkB+jgCLmCVqOQsHFBALs9Is5QLknbdH7x9x4Ok0PXVNdg4oIMzecgFywh0Tv5JMHbObWZ6Ws3RAAbE0rNtyLkA6fSph9BIAnNqtp76enQMKCLO3rIA0o3uB4DJmiVrOwgEFxMKsNEtZAWlMbgDEv0nTV9dk4sCjCgizr5yAVMP4YgJ6gFmilkvrAOFqBSStWSnXcQJy4DrkPgC4NGV7XcbmAL7kLNr3XgWEzdD9hdgB2Rj9OrwFHwGgdzFL1XILOEAAK9u+t0UBYT5NuAGZniKN+FOAdCezVC03jwNIybpWMDb9/dMKCPNpkgUg+99qxV8GoKuY5Wq5Ix1A/Lapux+Z+W8FhPkUyQqQA9cj+kxI5rwOK0fwuAm83z30/xQQZsOzBEQhYQ7r0HJET5ig9jtHDRTblnqH6cKOZQ2IQmJ7xqZZj08a3/3QXCt1gqTxz2JNHoAoJBaBdFuKsMPUvbPmW6aAdDPQ8vW8AFFILIOZe/kPjO/95kKVFBAWnw8WyRMQhaSf8OiHxq+d2a2CAtLNIcvX8wZEIbEMqLMccaepux9Ic6QCksYlizVFAKKQWARkAcc0Sxalp5fqp1gLO1YUIApJmjMZf2h8t+vbqkMrKSBpfLVYUyQgCsmCQf2H8b0PWkQ5vVQBsXWsy/qiAVFI5giI6AcmqC34adV8sSogAwiIQnJIqF1+z9EtfgWkm0OWr0uYIDOSK2E07Pdufd/43m9bRnjYcgWkH/fmmuaMXz3KIW2IIXnS+N6ct4/Y+KqA2LiVYq2kCTK8k4SeMP7RNx6miO+oJQpIL64tcIxEQIbrmoS2G792NlesCgiXkwfqSAVkKCAhetwEtcP+nqPfeBWQfh084njJgAwyJIiwrVX3ljPHqb8H4TZUOiCDCAkBPNb2vd/jzrJTTycIs6tlAGTAIHnU+N6HmWOcLaeAMDtbFkAGAhKiR0xQO5c5wsPKWQNSacabgWhVlqLKXJsAtrR9b2VZ9lDe35PQd41fOy9rn60BGQ0nr0PAW7IWVtb6CLih5bufK5P+EkLysPG98/Pw2BoQ/b7YLrEgXGnqXucWj1L9lAiS7xjfuyAvc60BGW3GpyPR83kJLFufhGjZnqD2bNl0l+Sa5CHjexfm6a01IEtue/nYvW/9+Y/1wS5Hx4QIuxY5b/zG7mvP2JtniJy9BE+Srcb3VnDuNU0ta0A6RUeb8bVI9MU0DYZpDSJ+rFV3S/+4AnGQEH3bBLXZrwPN85zqCZD9kEQPIsFFeYoV3YuSG00wdoNojRbi5EBC3zJ+7aMW0lmX9gzIgfesbwLAL7EqKmUx3Gt8922llL6A6KIhQYB/bfneHxbpa1+AVG+f/CA5+FSRG5DQO0F4/56694wELdwaioIEAb7Z8r3C36H0BchMGJUw+gIA/Dl3OOLrET5gAvdj4nX2KTBvSAjhG+26d3GfslkOZwFk+u1WI7oMEG4GgNNYlMku8hQQ/r0J3K/JlsmnLi9ICODBtu9dwqe8v0psgHRknHDzj9++b/HIuOPgOEAyDtj5F2r9SRRwNMIOSOApdOCZhEaea/un/UiAqtwlZA4J0QMmqImayKyA5J6YNszdgQwh+brxPXHPhFdAcj/Fyt+QHRKE+0zdu1yiMwqIxFRKoIkRknuN710hdcsKiNRkSqCr2oj/ipB6vnMZCf+6Fbh/K3mrCojkdEqgrdKIL+hAggCdD2RS/RDA0x04TOA+lOqAAhcpIAWaP0itR8N4NQCtXgiUDhgAeGfbd0vzzHcFZJDOUgF7qTSj8wngBIewQjRVJXBeBQcNJmRM4D0sQKKVBAXEyi5dPGwOKCDDlrju18oBBcTKLl08bA4oIMOWuO7XygEFxMouXTxsDiggw5a47tfKAQXEyi5dPGwOKCDDlrju18oBBcTKLl08bA4oIMOWuO7XygEFxMouXTxsDiggw5a47tfKAQXEyi5dPGwOKCDDlrju18oBBcTKLl08bA4oIMOWuO7XygEFxMouXTxsDrACcvIdOxfv3feOmuNgDQlrCdAYACwpvakEEw7CBCHEIwnuei1wY6l70gx4k2EDZDSMLwSgjQjg8kqUWA23E8Dn2767VZK6ajO+BIBuJYKlknRloaXzNGFM4LNmrbcji/ozNVkAqYbxOgLamKVQibUJaFPbr62XoK3SjK4HgoF5PklqTxE+bepe58vTM/npG5DRMNpp85UvmeyiwKIEELd9zytKwvHNaJlD+AQALS5Kg4C+mX35XF+AVML4JwD0bgEGFSqh83U2bd87owgRlTCiIvqK65nRE756BqTSjDcD0SpxRhUkCAHXt3x3U57tK83oYSA4L8+eknslU7B8zzpvG6fGngCpNiZXEeJmTiGDUIsAV+R14V5txGsJKVcgS5DRbsTkzFZ97KdcWq0B2f8Y6Dcn9K3V0RF0rkeOHXnjfVk/BvrExgvHTeGiCQA4hetEGJw6eL/x3Uu59mMNyGgzPh2JnucSMGh1EqJle4Las1nuq9KIzwKkJ7PsUeLaLxvfO5VLvzUg1TC+mIBK/yxwLgOPqoNwpal792RWv/MI7nDXGoSkmWWPMtc+BvGkV+ruqxx7sAZkNJy8DgFv4Wg+iDUQcEPLd3t+JEAaTyphdBcAXJ1m7TCuIUjObvtj2zn2bg2Ifnq1sO0EsKXteys5wpmvRiWMXgCA92TZo9S1Ca4xgXc3xx6sARkNo8cQ4ByO5oNYo3MLRNv3lme5N/3dRxd3GX8nooAwn8kKCLOhvZRTQHpxLZ9jFJB8fF6wiwIiIIR5JCggArJRQASEoIAIDiG50QRjLHc26zUIc8w6QZgN7aWcTpBeXMvnGAUkH5/1GkSAz71IUEB6cY35GJ0gzIYyllNAGM3stZQC0qtz2R+ngGTvcdcOCkhXiwpboIAUZv3BxgqIgBD0Y17BIejHvGLD0QkiIBqdIAJC0AkiOASdIGLD0QkiIBqdIAJC0AkiOASdIGLD0QkiIBqdIAJC0AkiOASdIGLD0QkiIBqdIAJC0AkiOASdIGLD0QkiIBqdIAJC0AkiOASdIGLD0QkiIBqdIAJC0AkiOASdIGLD0QkiIBqdIAJC0AkiOASdIGLD0QkiIBqdIAJC0AkiOASdIGLD0QkiIBqdIAJC0AkiOASdIGLD0QkiIBqdIAJC0AkiOASdIGLD0QkiIBqdIAJC0AkiOASdIGLD0QkiIBqdIAJC0AkiOASdIGLD0QkiIBqdIAJC0AkiOASdIGLD0QkiIBqdIAJC0AkiOASdIGLD0QkiIBqdIAJC0AkiOASdIGLD0QkiIBqdIAJC0AkiOASdIGLD0QkiIBqdIAJC0AkiOASdIGLD0QkiIBqdIAJC0AkiOASdIGLD0QkiIJoiJ0ilGW8GolUCbBApgQC2tH1vZZbiKmH0AgC8J8sepa5NcI0JvLs59oC2RUbDyesQ8Bbb44ZlPQJuaPnu57LcbyWM7gKAq7PsUebaBMnZbX9sO8cerAGphvHFBPQAR/OBrIFwpal792S5t9Fw1xqEpJlljzLXPgbxpFfq7qsce7AGZLQZn45Ez3M0H8QaCdGyPUHt2Sz3VmnEZwHSk1n2KHHtl43vncql3xqQJbe9fOzet745AUDv5hIxKHUIID525I337b72jL1Z7unExgvHTeGiCQA4Jcs+5ayN9xvfvZRLuzUgncbVxuQqQtzMJWJQ6hDgirbvbs1jP9VGvJaQNuXRq0Q9diMmZ7bqYz/l0twTIJ3m+mnW4REg4PqW7+Z6wlaa0cNAcB7XyVD2OskULN+zztvGuY+eAZmGJIx/om+1AAjg6bbvncEZTNpalTCitGsHeh3CDabu3ci9x74A6YgZDaOdCDDOLaws9TrXHW3f84rSe3wzWuYQPgFAi4vSIKDvvcb3rshCR9+ATF+ThPE6AtqYhUDJNQloU9uvrZegsdJ48QZA53oJWnLVgPBpU/e+kFVPFkD2T5L4QgDaiABuVmLl1MXtBPD5vC7I0+672owvAaBbiWBp2mPKuq5zSw8m8Fmz1tuR5R7YAOmIPPmOnYv37ntHzXGwhoS1BGgMAJZkuYFcahNMOAgThBCPJLjrtcCNc+nbQxPNoAfTFjiEFRBeaVpNHSjeAQWk+AxUgWAHFBDB4ai04h1QQIrPQBUIdkABERyOSiveAQWk+AxUgWAHFBDB4ai04h1QQIrPQBUIdkABERyOSiveAQWk+AxUgWAHFBDB4ai04h1QQIrPQBUIduD/ARi0KEkeO8n4AAAAAElFTkSuQmCC;" parent="1" vertex="1">
          <mxGeometry x="89" y="508" width="42" height="42" as="geometry" />
        </mxCell>
        <mxCell id="pSxadLKcS4drCLlNTBEl-32" value="" style="shape=image;verticalLabelPosition=bottom;labelBackgroundColor=#ffffff;verticalAlign=top;aspect=fixed;imageAspect=0;image=data:image/png,iVBORw0KGgoAAAANSUhEUgAAAMgAAADICAYAAACtWK6eAAAAAXNSR0IArs4c6QAAFuxJREFUeF7tXXuUHFWd/n7VA8gjJF0zSSQBX+nqkRB56iocd5eXqCvgIiiLLAISmHR1CAbxIKgLkZUoKpJHV89MQFwI+MgekIeABBZWhQPHoOCTdPWwaDAhJl0NBAVmpuu3p2ZIxJwk04+6XffevnXOHP7g3t/v+33f/XKrum7dSzCXYcAwsFMGyHBjGDAM7JwBYxAzOgwDu2DAGMQMD8OAMYgZA4aB5hgwM0hzvJleHcKAMUiHCG3KbI4BY5DmeDO9OoQBY5AOEdqU2RwDxiDN8WZ6dQgDxiAdIrQpszkGjEGa48306hAGjEE6RGhTZnMMGIM0x5vp1SEMGIN0iNCmzOYYMAZpjjfTq0MYMAbpEKFNmc0xYAzSHG+mV4cwYAzSIUKbMptjwBikOd5Mrw5hwBikQ4Q2ZTbHgDFIc7yZXh3CgDFIhwhtymyOAWOQ5ngzvTqEAWOQDhHalNkcA8YgzfFmenUIA8YgHSK0KbM5BoxBmuPN9OoQBoxBdiC0vdTfH6lwLkAHk0UHM3AAGBujPwYegEW3VHOZ36g0RuxC+QAiPouBjxBhOjOmA2AAGwDeCNBNgetcr1JN7cBqDPIGlicve/rtVio1l4C5AKbtWgC6LQyHL35h/uw/tEOoVnLYXukaEF0Exu4TxHmMQP0VN/NfreTTqa8xCICe5UPZ0OK5QPSHdAMC/x6EhUHO+XEDfdrWdGqhnAmJr2XgpMaS8k8Z6K+62Vsb66df6442iD3oH4TRsdki+tunWXkZ1Fd1M4PN9hfRb9qKZ6aPjozeH90mthD/fwD0B66zqoUYSnftSINMKfqHUYi5FuE8BvaIQ0FC+IGK2/tAHLHiiGF7/qZocowjFkD3kcX9lXnOHfHEUydKRxnEXurviy4sAnARgNhrJ+ZzK/nsd5KUv8fzTw4BIQOZCXdYNV5cmZ99PMka25k79kHSTvCN5EoXSycipEVEOLyRfo22ZWBx1XUub7RfHO27Pf+rDFwaR6ydx+ARgBYHrnOF2DxyRNfeIPtfu27Pv77plUUAfa59lNN9FvDFzW7miXbk7Bl4dr+wNroY4LPbkW88B/2cCJ+v5DLRc4q2l9YGsYv+B8H4PoDJySjIgxasQVFGGTPG6Gt9IOt8ADOSqRHXB64T5dfy0tMgVzzU1T1t/+8w4Uw5VIvXKJIY4w3U8npw7eNB/sBH5eA7PhTaGcQulE8H8ffioyjWSI8Q8DNY1urKvFkPNhLZ7vdnU42OZcIxYD4WhCmN9G9T2xsC14l+Mtfm0sogtldeDfDxiqjzMoBHQbSemTdY0X8RbkDYtQXEMwk8E8BMgGcycAiAtyhSFwLX0WZcaVOI7fnfAvAZVQaR3jh5MHCzfTrUqIVB0sWhE4nDu3QQRJsaOFwU5HuvVL0eLQzS7fl3Nr7eSHXppMe/3krt9u7NfW/bID3SXQBU3iBm9pB4+GkwiyhvkLGl3G19CSjxgJQP2uOB67xPPlj1I1LfIMXyjWA+p/6STcs2MvDHwHXe2sZ8sadS3yCeH32LcULszJiAcTAwHLhOLKul4wDTTAz1DVIo3QaiU5op3vQRzkA1cB1beBaBCZQ3SLdXKjJonkCOTOjmGfh94Dqzm++efE/lDWIX1l4Jsjpi6XXyw6UxBAw8XHWdYxrrJVdr5Q3S45WPCMFr5KLVoIkYYEa+mnc8ldlQ3iAR+bbn/ynB5d4q6y8U+/Aopr28wIk+/VX20sMgRX8VGKcpq4KewNcFrqPMAsudSaCHQbzSVQB9Uc9xpmhVRA8GuYwqK6t3SrIWBkkX/DOJsFLRoaQlbAKKFddxVS9OC4P0DPiHhzW05ftv1QVvI/6Fgetc18Z8QlJpYZAZA+v3erX2l78IYcgEbYoBBv1L1c3c21RniToZg0gkhk5QOAw/Up3fe4/qNWlhkPFtNmvPqy6GVviZ/i3IZ6IdZZS+tDDI1P4hpxaGJaWV0A08hxcE+d4VqpelhUHMQ7qUw/CzgetcKyWyBkBpYZApy/yjrRQeaqBu01Q0Axp8TRhRpIVB0gV/cbQNpmjNTfz6GdBhoaI2BrGL/qNgHFm/fKZlOxhI8eRJm/LTov2/lL2Un0H2WepP3b0Lf1ZWAY2BM/jEqpv9kcolKm8Q2/M/DuAHKougK3ZiuqaSzwg+jkEse8obxHxRKHaAtBSdaE2Qy7ynpRgJd1baIJOX+rNSXXiylfMFE+Zf+/TEdHYln7lJ1UKVNoj53Fb+Yaf6r1nKGmRq4Tf7hNYeTzJjlvzDpLMREvOplXz2NhVZUNYgaW9oHiEsqkh6p2Em4O6K6zR4VrscLClpkHTxd3OId78f4P3koNGgmJAB5s8F+ew3JmwnWQMlDWJ75bsB/ohkXBo4u2bgFQDHBq7zmEpEKWcQ23x/rtL42g4rPxC42Q+oVIBSBtHwpeAWABsYWE/MGwBaDxpbHzcTzDNBNIOA6Ag2pfe3/TtDKLaIURmDaGMO5sdh0b0grArmOb+r519Tu98/kkOcREQngvld9fSRuo1CJlHCIBqY4zdgvh4pWl2vKXY2wLuXl97LxB9O+Gz01v1HuDLIOYtaDyQ2gvQGUdwcfyZgSdc+k5Zs/NSbY91UQr6z0psYqArMJNIaJHoROEp7XE7AZU1Qn3wXoiW1rq4lL57/tv8TCWabUSzrMjB2F5lLRGxi3MIpXN3qzCoCWxRTSoNEs0ZkDAYOE1W4qLgMlC1YuYo76wFROXYU1y6UPwSLV4CxfzvzxpOLA5B1dZDLfDOeePFFkcogdqF8FIjnAjg3vhLbGunekXD0rC3zD6y0Nevryfa9fp2dGnl1NTEOTyJ/yzmJHiSgUMllbm85VkwBpDBId7F8CofhWSqfFMXgZVU3uyAmXVoK013wVzLhzJaCJNv5UYZ1cxe/snJTfk6iXyQmYpCxfayGa4cAdDCIo+PTjkpWj9ayR/fRlbzz761Fibd32istJdCF8UZtbzQiDHEYriQr9dToCP/qxQXOUHsRtPEZZNLA2p7dQutkZnyUgJPbXaiofEz4RTXnHCEqfitxbc+Pdjb8cCsxZOobLZ0HY9VIDavade5IW2YQu9+fjXDss9iDZCK8ZSyE50Z3e9MhL809IGg5loAAk5b/vrvL6nqMgIyA8AmGpGcZ4ReqbvZW0SCEG2TsxZZFSi1Qq4t0wjBC+miQz9xXV/uEGnV7Q8czwtUJpRealgmXVXPOV0UmEWoQrbcEZf6PIJ+9SqQ4ccW2i+XrwHxRXPGkihPyCcH8rLB/AIQZJLPU3yPoQjRzHCoVoTGAid511F597b0vXTxHylur7UucvOLZt6dGRiItpsVQvnQhQsLhL+ScX4oAJswg3V75QgYvFQE68ZiMi4O8863EcTQAoNvzL2fgKw10UanpqsB1PiECsDCDpD3/IQKOFgE62Zj8VLBx+B+waM5wsjgayz79puf3Hnl5SzSLzGmspxqtRZ2oK8QgPcuHsqEVrlWD2sZQEmhBxc0sa6yXHK3tor8QDOV3XN8Rm6LOZBdiELu//CGErPzxWzsSIsXkbMpnynIM+cZQ2Mv9I2Hh0cZ6KdP62sB1Phs3WjEGKfinRR8ExQ026Xiq7/EU8WcX/HUgFRc0Tqj+jYHrfHrCVg02EGKQ7kLpHCa6sUEs8jdnuiTIy7fitBHibM+PXthG+xlrdTHoh1U3Ey1bivUSYxDPzzOwPFakEgSzQqt38/xZSh/1Zhf880C4XgI644XA/JMgn/3neIMKWouV9vxLCRD6hjNuIuqItyVwnX3raCd1kx6vfEQIXiM1yGbAEX4d5JyDm+m6qz5CZhC7WP4ymL8UN9iE45UC1+lNGEPL6ce+QKyNrG85kGwBCM8FOeeAuGEJMoh/LRgL4wabZDwdHtC38md7PifJpaDcfw1cZ++4Y4sxSMEfBOH8uMEmGo/5u0E++8lEMcSU3Pb8PwGYEVM4acLYo3hTeYHzWpyAhBik2/NvYUCLwbSNbMY3g7xzSZzkJxUr7flrCJDyG5ZWOLFeG5mxeeHsDa3E2L6vEIOkPf8OnT6KGiPNGCTOcScmloWD4t4dRYhB7GL5ATAfJ4aFhKKaW6yEiK8/LRO9v5rLPFJ/j4lbijGIV74HYG0+9RyfQPBw1XWOmZhS+Vto+pAOK4UjNvc5v4hTAUEG0fJtrfmZN86RJyBWrVZ7x4sXvjPWjfrEGKRQuhFE5wjgIMmQ5kVhkuzXkZtT1pRq36wX62hadxMhBkkX/GVEmF83CkUamqUmUgtVC1ynK26EQgzSXfAXM+HzcYNNPJ5ZrJi4BDsDQMCmiuvE/kmxIIOUv8DE/yktm00C0+FBXd/l7rQ2cDPvbFLanXYTYhC7ULoIRNfFDVaGeOaDKRlU2CGGxwLXOTJudIIMoumS6rHt8M0nt3EPwljiMd8T5LOxH+wqyCDl00H8vVgKlywIA09UXefdksGaEM5k7w/pFIajl2gHTthYwQYErKy4zllxQxdikPTy0olk0V1xg5UlHoP6qm5mUBY89eBIe/5XCLi8nrZKtmFaGuQzsW+OJ8QgU5b5R1spPKQk0XWAVm0W6ekfenfI4SMqnkBVhxzjTQQd5ybEIBFe2/OjbX+ydReoWEOVZhHb86Pb3dMVo7gxuAIWKkYAxBmksPZKkHVFY1Uq1JrxW4tHP7Z5/oFSf6NuF/1Pg3GDQsw2DFXkz+/CDDKlUDrUIopus6Y0XLE6HR4PXOd9ssLt8Z7uDZF6WlZ8ceFiojOquYyQH4WEGWT8NmvoXCD8dlxESBmH6MEglzleRmy2V/olQNptHv5Gronpwko+I2wHHaEGGTOJ7rda42rdELhOdPioNJdd9AfBmn32vB27Im+ttqYSbpDXH9ijjcqiDcu0vQj4WsV1pFh/lvb82wn4V23JHv8+5+aq63xKdI1tMUhUxOvvRqKCtNvVb5tIhBVBzrlAtGg7i5/2nvlHQu1mAG9NCoPgvCMA30lEd1RyTlSn8KttBtlaydgGyoRTmXDE6xsHTBJeZVsT0G1EtQWVXG+0c0jbru5ieQEzL2lbwnYlYqxh4DEL/MQo8U9edHufaVfqKE/bDfLG4vZZ6k/drYtPJeBUgKR80G1ODPoVA4V2vG0fewkYhtFuK5q95+Afga2bg3zm+81pEE+vRA3yxhJsz38fQKcCfF50RxZPeclGid64AzQowijR2ioLw5cQ4RLN3pDfENaw8oULnYeTVW88uzQG2UpGemDoXVQLo21LtXlWiYxCzDcjRatb3ZZmaqGcCQkfZnBOq4WHjPuIw29U5vc+KIMxtmKQziDbjOKVL6Bof1/dzrJgfhzg+5CyflCvWcZO7CI+iYlP1O9YOyqB8I0gl1khkzGkN0gEcLK39h0pWFfrd3+9bShsAbCBgfXEvAGg1zeV5hlMtB+Nbw+6HwDNfsjYVv+qkVTobunr3SyjOaS8xdoRUbbnR+dZRM8m5tKHAWEn08ZJkbS3WNsXaRdKS0C0IM7iTazEGFDCHMrMIFtltL3SVQB9MTFZTeI4GFDGHMoZJAJse/5/Y+y9iblUY4CBMoZfO676mTl/VAW7MrdY22aRpf5sdNGDAL9ZFZINznEGmPmT1Xz2uyrxoZxBxmaRQvl8ECv1TbhKg0IE1vGVBY5yu20qaZDxW63ydwA+W4SYJmbcDPBTo68OH/vSxXOCuCOLjqeuQQrlo0Ac61kQosnu1PjMyFfzjqdi/coaZPxWq3QbiGI/PF5FIeXFzGv3enXPw567+IBX5MW4c2RKG6S7WD6FmW9TkfhOwcxEl1ZzmWtUrVdpg4w/i/jRbdZRqgqgOe4/DY/isJcXOJtUrVN9gxT9hWBcq6oAWuMmGghymXkq16i+QaIvFC08qrIIumJn8JlVN3uryvUpb5Dxh3V/nXbL4lUeVVuxj+KAYIHznMql6GEQT8tDQ1UeVxH2JwPXOUz1IvQwSEHf80gUHmDXBa6zUGH8Y9D1MEi/fyRC8xwi02Bk5kur+ayyP+9u5VILg6SLv5tDvNuvZRognY6FCW415xRV50EPgwwMvYVq4R9UF0Mn/AScVXGdlarXpIVBJnu/Sqewp3IL4VQfPLvCTwhPqbi9P1S9Ri0Mgh9wyt5cHlVdDJ3wUxgeL9sWPs3wq4VB0uYWqxnthfYhprMr+cxNQpO0IbgWBrELz5wAqv24DXyZFHUywMDiqusof2ioJgYpXQSi6+rUzjRrBwNEtwe5zMfakUpkDi0M0u2ViwxWelGcSJETic38dJDPKn8muxYGSXv+Q/ptyZnIsI41aeA6yo8v5Qvo+drTk8JJqZdiVdYEi4UBJuukam7W3bEESyiI8gZJF4bOIAqVXlKdkPZtSMuDgZvta0MiYSmUN4jtlb4OUHSAjLlkY4CxJsg775ENViN4lDdI2vNvipY1NFK0ads2BtYFrvOWtmUTkEh5g9ieH73/OEEANyZkqwwQhoOcs0erYZLsr4NBzF69SY6gXebmIHCz3dLCqwOY8gZJe/5yAvJ11GqatJ+B3wauM6f9aePLqLxB7MLaK0HWFfFRYiLFxQABd1Vc5+S44iURR3mD9Aw8u19YG1mD8ePKzCURA+Y9iCRimFlEEiHeAEOH2SMqR/kZJCois9TfI+jCYwAOlW+odCaikHD4Cznnl6pXr4VBIhGm9g85tTAsKSxIBUTrEfLLIMwExv5SStYT8gnB/OxqJbFvB1obg0R1TSn6h1mMnwLYW1pxCMPMeASE+4nwvyGPbnihu7Yen5gzvD3maSuemR6GtZlhzTqEKDyOQxwPwnRpaxs/RWpeNZ8dkBljI9i0MsjWwu1i+Utg/nIjRIhvy4ORKdhKPVDtm/Vis/mm9Jf+yarxsSDrfJl+mGDCL6rPZ96LRaTVp89aGuRvt1y1WwBKeC0QD1qwBje7mSeaNcWO+o39ejf6Wl/yRqEaOPxskM8uibM+WWJpa5CtBKe9oXmEMIH9mcQYY/uBs80olnUZGLu3c2ARcLfFk8/YlJ/2cjvztjOX9gaJyLT7/dlgLALjtHaQm8Su5nbR/yBAg2Bux+LAdUxYrMPGcBONh44wyFYSur3yhQwsAjg9ETFN/X/CRrK6jq70vf3ppvq32GnGwJq9Xq3t+7DQ20qigeER/pLKh+I0QnNHGWTsl65C6dAUWX0MngugqxGyJmj7SOA6748xXtOh0kV/GTHiPXKZ+R4G9Vfzzl1NA1OwY8cZ5G/PJs8cDIzOJVBklD1b0Y6Bh6uuc0wrMeLuG9vqAsZqAvdX8tmOPAuyYw2y7barUDqQieaCMReEfRsdqASsrLiOlB9s2cXyrWA+o9GaovaR6YmpP8hnvt9Mf136dLxBtgo5bcCfVQsxlyOjAD31CEzAFyquc3U9bZNqY3v+ZwBEq52n1IWB6BFi7tdh4+m66p2gkTHIdgSNbWMa8viMAt5vh/wxDTDX7qzO770nDhFEx4ieuyzgXBBFM91OfqDgnyOk/mC+823ReFSKbwyyE7Wmf/2pvUf32mc2UDsIRDOYsZHJeh4p/KyVN+FJDw674J9AFqZzSNGSFWbijUTYFOQcs3XrDsQxBkl6xJr8UjNgDCK1PAZc0gwYgyStgMkvNQPGIFLLY8AlzYAxSNIKmPxSM2AMIrU8BlzSDBiDJK2AyS81A8YgUstjwCXNgDFI0gqY/FIzYAwitTwGXNIMGIMkrYDJLzUDxiBSy2PAJc2AMUjSCpj8UjNgDCK1PAZc0gwYgyStgMkvNQPGIFLLY8AlzYAxSNIKmPxSM2AMIrU8BlzSDBiDJK2AyS81A8YgUstjwCXNgDFI0gqY/FIzYAwitTwGXNIMGIMkrYDJLzUDxiBSy2PAJc3A/wOAkO8jkgkBdwAAAABJRU5ErkJggg==;" parent="1" vertex="1">
          <mxGeometry x="83.5" y="594" width="53" height="53" as="geometry" />
        </mxCell>
        <mxCell id="pSxadLKcS4drCLlNTBEl-33" value="" style="shape=image;verticalLabelPosition=bottom;labelBackgroundColor=#ffffff;verticalAlign=top;aspect=fixed;imageAspect=0;image=data:image/png,iVBORw0KGgoAAAANSUhEUgAAAMgAAADICAYAAACtWK6eAAAAAXNSR0IArs4c6QAAEKRJREFUeF7tnX+wXGV5x7/P2QQiFMjuJYm/aKnsuZEqpbTKVCpDHBusExlwnNpJcBys1rC7N0kTiRQKJuFHCtJESO7uXqpIq1BjdCz+YqZ0WhRFR+pIi4547+4NY52mocmeTURj4d49T2cTQmK49+7Zs+c9+5493/tv3vd5nvfz3c/s3ptz9gj4QwIkMCsBIRsSIIHZCVAQvjpIYA4CFIQvDxKgIHwNkEA4AnwHCceNu1JCgIKkJGgeMxwBChKOG3elhAAFSUnQPGY4AhQkHDfuSgkBCpKSoHnMcAQoSDhu3JUSAhQkJUHzmOEIUJBw3LgrJQQoSEqC5jHDEaAg4bglYtfC6jPnOjp9k1d0P5SIgS0ckoJYGEoUI2Ur4x8WZCqAZlRQbBbcahR101aDggxY4ovKz7yyJVOjgLzn2NEEmIT4qxqFpU8M2HGNH4eCGEccX4NsuXa1CCoAznxZV8Vur+T+WXzTDEYnCjIAOS6p1he/4OtdInj/XMdRyEebxfxdA3Dk2I5AQWJDbabRUKV+laL9rqGv6thB8KxAVjUK+X/ruJYLjhCgIAl9IZwx+vTQKU7mVoUUujqC6MPevgevwJYtflf7UrqYgiQw+GxlYgUgdwuQDzW+yq1eKf+xUHtTtomCJCjwsypPZTO64EaIXNfj2IfFx6rGiPvlHusM/HYKkpCIc+X6n0D0DgAXRjKy4LEFzunv3Lv61YcjqTegRSiI5cHmdtTOxHysh2Jz5KMKPuEV3A2R1x2gghTE4jBzY3uWw2+1xbjE1JjqOKua1573OVP1k16XgliY4JLP7Dt96rmfb4DILabHE+DJF/zp5c+NnN8w3SuJ9SmIZakNjY6/XTPO9VAsj3G0T3lF9y9i7JeYVhTEkqheu/07r/jVgkXrFbi9LyMJPugV3E/3pbfFTSmIBeGcXa0tU8UGBa7o3zhSEzn1bY3COf/dvxns60xB+pnJph+dkl186gYR3AzgtH6OcrS37PKK+ZX9n8OeCShIn7LIVvZcCrQ2CHBVn0aYsa04KDWuddtXBPOH12L14TWwWzPZA7UNDmSjAov6MEGnlvsyKpfuL+XrnRam4d/5DhJjytnqT/5INLMewEs3M8XYvotW+nWvOPyuLjYM7FIKEku0KrlKvS1G+3+tXxNLy16biFznFfLbei2T9P0UJIYEs2OTK8X3/zGGVlG2+IW2pi9prjn/h1EWTVotChJTYrlq7T4o/jymdpG0EeCbjaK7LJJiCS1CQWIKrv0fgYcXLBoHcE5MLSNpI9CbG8Xh2yIplsAiFCTG0LKV8XcKnIdjbBlJK1Hn4kbpvH+PpFjCilCQmAPLVWrtX3yTdYm54vteyX1zzKisaEdB4o5hkzq5JbUnAfnduFv30k9Fbm8W8jf1UiOJeylIH1LLVWp/COC7fWjdU0vf18sOjgw/1lORhG2mIH0KbKhSv0mht/apfdi2P/KK7gVhNydxHwXpY2pDldo3FLisjyOEab3dK7ofCbMxiXsoSB9TW1itXeQoftDHEcK1VrzDK7mPhNucrF0UpM95DZXrIyq6s89jBG+vuhci27yiuz34puSupCAWZJct1x4SwZUWjDLnCKr4MiSzrVl83bdsnzWq+ShIVCR7qJMbrb0Bgu9BcHoPZQxuVU8U2xuL3DvwXmkZbGRdaQpiSSRD1fo1qnq/JeOcOMY/Q7E9Lb9znMyfglj0isxV6/dD9Ro7RpLDgL/dm5bbsNZ93o6Z4p+CgsTPfNaOi8r1fMvRR6F4bT/Hal/FK8D2A0X3K/2cw4beFMSGFE6YIVuZWCWQB/s0lgKybUHmtE38zt6jCVCQPr0S52qbK0/cDZF18Y6mT8D3t3kjr98db1+7u1EQC/PJlevnQLR9Wfwb4xhPgbJM40ZvrfvzOPolqQcFsTStXHXiPVD5otnx5ClV/45maZhfXj0LaApi9hXYU/Whav1OVf1oT0Vm33xfC6dsPFT8raah+gNRloJYHOPiu/csmT7F/wKgl0Y3pkwI9NZG0X0gupqDW4mCWJ5ttly7QgSR/LlVBA8+P4X1v1jr7rf82NaMR0GsiWL2QXLV+i1QbX9/b9ifn4nqxxql4b8PWyCt+yhIApJfeP8zC51fTe8C8I6uxxV8MePPW7O/9Nv7ut7LDfx/kKS8BnLl2uUQPATgFUFmFmC/Km7wSu59QdZzzcwE+A6SoFfGUGXiJoV0vE1XgYccWTDCZ330Hi4F6Z1hbBVefe/3T3t++qxdKrM8aEfwnPq6sVkavje2oQa8EQVJWMALd9aWORn5HKCvPHF0Ab7a8qfWHBz5nZ8m7EhWj0tBrI5n5uGylfpGgX786L/qtKqsa5b40BsTUVIQE1RN19ytmVyjvguQ01raWnOouHSP6ZZprU9BEpp8bqz2Fu9aN3FfPpc03BQkaYlx3lgJUJBYcbNZ0ghQkKQlxnljJUBBYsXNZkkjQEGSlhjnjZUABYkVN5sljQAFSVpinDdWArEIkqvUNNZTBWmm/havtHRzkKVpX5Mrj2+GOJts4+AVXeOvX+MN2lApiG0vre7moSDd8ep6NQXpGplVGyiI4TgoiGHAhstTENOA+TuIYcJmy1MQs3z5OwiAbGViRbM4/HXDqI2UpyBGsB4vmvaPWIs/uWfJ9NT0IwJ5Cjp/a6N07tOGkUdanoJEivPlxdIuSLY8cZuI/PWLZFpQ2Tr/8C/vfHbjhb80jD6S8hQkEoyzF0mzIEPVPRerttpPhD3rREIK1AW61SsO2/hUqV8Lk4JQEGMEspXaZwV43xwNHvGBrQeL7jeNDdFjYQrSI8BO29P6DpIbrb0XDj7fic+Rf1e9t9WSuw6tdScDrY9xEQUxDDuVguzenckd+L1HAenmi6cPqcjW5pTeY9NzASkIBYmcQLYysVEgL37zSNfl/wOCv/EKrhVPe6IgXefX3Ya0vYMceRin6L8C+M3uSJ28Wr4ExTavlP9Ob3V6201BeuPXcXfaBMlWaqMClDqCCbpAsU3nOTuaq8/7r6BbolxHQaKkOUOtNAmSG9uzHP6RP+tG/KN7RXBnY587ii3iR1x8znIUxDDtNAkyVKl9VYF3mUMq3xb1P9EoDX/JXI9fr0xBDJNOiyDZSv3DAo3li6MV+Kwj/mijsPQJw/GBghgmnAZBcjtqZ2I+vg3FBYZxnlh+SoG/zbRaowfWvH6vqb4UxBTZF+umQZBspXa7ADcaRjlb+QlV3GPqC6wpiOFUB12QhWPjFzq+8xiAMw2j7FS+fdlK+WDRjeShn8eaUZBO2Hv890EXZKhae0AVV/eIKcLter/jy+iBEfcHURSlIFFQnKPGIAsyVKlfpdB/Moyw+/KKg4DunO84o88W8v/bfYHjOyhIL/QC7B1kQXKV+rcAfWsADH1aIk8pWuVmcenfhR2AgoQlF3DfoAqSq9Q2ANgWEEN/l4k8PB/4QJh3EwpiOLpBFOTse3/8Kr81/3sAzjGML5LyIrquURjeEaYYBQlDrYs9gyhItlzbKYKRLjD0b6niu17JvSTsABQkLLmA+wZNkFy5fglEHw94/L4vU8dZ0bz2vIfDDkJBwpILuG/gBKnUvwboioDH7+uy9iUpzaL7/l6GoCC90Auwd5AEyVYnrxb1HwhwbBuWTDnIXHCg+LrxXoahIL3QC7B3YARp30a7/6L/hOANAY7d/yWCzV7B3dLrIBSkV4Id9g+KILnyxM0QucUwrqjKP70gc+hNe1e/6XCvBSlIrwRTIMjR22j9JwH5DcO4Iimvgvc1C+6DURSjIFFQnKPGILyD5Cq1TwP4gGFUkZQX4GuNontFJMXaz3fhA3SiQjlznaQLYu42WjPcVeStzUI+sj9DUxAzOb1UNemCZCu1RwVYZhhTNOVV7/FKw38ZTbGjVShIlDRnqJVkQbLlidUiMmYYUUTlZR8UF3ul/M8iKkhBogQ5W62kCnLkNtp5+GHv328VB2VARNY0CvnRqLvxHSRqoifVS6og+R21U735MgJtX3Ol5xrG1Gv5x72ia+SyewrSazQd9idVkGPHWjQ26bZarRGItC9OdAzjClXeAa48EPGttscGoSChIgm+KemCHDvp0Oj42zWTKUH13cFPH8dK+QevmL/GVCcKYorsi3UHRZCXRKnWr/FVRwT4A8PoOpYX4PmW4C0HC+6THReHXEBBQoILum3QBGmf++w7f3KGf0ZmvSpGRLAoKIvI16m/xSst3Rx53RMKUhCTdNt/Rx/gx0Bnq/U3iuo6AB8yjHGm8j+eyviXPbd66QGTvSmISboDLsgxdNnK5AqBvxbA5YZxHi8v+KBXcNuXwBj9oSBG8Q72O8jJ6IbGakX1j9yKe75JrAJ8pVF0rzTZ41htCmKY8iB/xJoJ3VmVn2bn4YXrVbX9p+HTjeD19XJvZPhfjNQ+qSgFMUw5bYIcw7mwWrvI8XUjRFZGiVgFo82CuybKmnPVoiCGSadVkGNYj377Ij4SzRfM6f84mPe2Xm+j7SZyCtINrRBr0y7IS5/lxybXwffbXzYX+tmFqnp9szQc9uGgIdLj1byhoHWziYIcp7WkWl88pXoDBOugkG44Anh8QebQ5VHcRttNX76DdEMrxFoK8nJoQ+XJNyvaogS/bEVFVjYL+V0hIuhpCwXpCV/nzRRkdka5Su1PRfBXqvj9uUnqLq84HOkv+52TO7qCggQlFXIdBekMLleuXwfR69tXscyw+v9U5I+jvI2280THV1CQbmiFWEtBgkEbqo6/xlfnhpOfsS4iH28U8m15+vJDQQxjpyDdAW5/96+I3nD0cdI6DnWWR30bbTcTUZBuaIVYS0FCQAOQHZtc6bR0qFGK/jbabiaiIN3QCrGWgoSAZtEWCmI4DApiGLDh8hTENOABvh/EMDorylMQwzHwHcQwYMPlKYhpwHwHMUzYbHkKYpbvQN9yaxidFeUpiOEY+BHLMGDD5SmIacD8iGWYsNnyFMQsX37EMszXdHkKYpgwP2IZBmy4PAUxDZgfsQwTNluegpjla+1HLN93vmH46ANR3nH8ZRBnk22H8Yput3dkdn0E4w3aE1n5EatrVNxgGwEKYlsinMcqAhTEqjg4jG0EKIhtiXAeqwhQEKvi4DC2EaAgtiXCeawiQEGsioPD2EaAgtiWCOexigAFsSoODmMbAQpiWyKcxyoCFMSqODiMbQQoiG2JcB6rCFAQq+LgMLYRoCC2JcJ5rCJAQayKg8PYRoCC2JYI57GKAAWxKg4OYxsBCmJbIpzHKgIUxKo4OIxtBCiIbYlwHqsIUBCr4uAwthGgILYlwnmsIkBBrIqDw9hGgILYlgjnsYoABbEqDg5jGwEKYlsinMcqAhTEqjg4jG0EKIhtiXAeqwhQEKvi4DC2EaAgtiXCeawiQEGsioPD2EaAgtiWCOexigAFsSoODmMbAQpiWyKcxyoCFMSqODiMbQQoiG2JcB6rCFAQq+LgMLYRGBhBFu6sLbMNLudJPoGDa1zjTymO5Sm3yY+CJ0grAQqS1uR57kAEKEggTFyUVgIUJK3J89yBCFCQQJi4KK0EKEhak+e5AxGgIIEwcVFaCVCQtCbPcwciQEECYeKitBKgIGlNnucORICCBMLERWklQEHSmjzPHYgABQmEiYvSSoCCpDV5njsQAQoSCBMXpZUABUlr8jx3IAIUJBAmLkorAQqS1uR57kAE/h+Qe+4jrx0/gQAAAABJRU5ErkJggg==;" parent="1" vertex="1">
          <mxGeometry x="207" y="424.5" width="111" height="111" as="geometry" />
        </mxCell>
        <mxCell id="C0XAzO81hBhKXg0jQggx-4" value="" style="rounded=1;whiteSpace=wrap;html=1;glass=0;comic=0;shadow=1;" vertex="1" parent="1">
          <mxGeometry x="277" y="822" width="110" height="320" as="geometry" />
        </mxCell>
        <mxCell id="C0XAzO81hBhKXg0jQggx-5" value="&lt;h3&gt;数据收集&lt;/h3&gt;" style="rounded=1;whiteSpace=wrap;html=1;glass=0;shadow=0;" vertex="1" parent="1">
          <mxGeometry x="277" y="822" width="110" height="30" as="geometry" />
        </mxCell>
        <mxCell id="C0XAzO81hBhKXg0jQggx-14" value="" style="endArrow=classic;html=1;entryX=-0.009;entryY=0.538;entryDx=0;entryDy=0;entryPerimeter=0;" edge="1" parent="1" target="C0XAzO81hBhKXg0jQggx-30">
          <mxGeometry width="50" height="50" relative="1" as="geometry">
            <mxPoint x="391" y="994" as="sourcePoint" />
            <mxPoint x="471" y="994" as="targetPoint" />
          </mxGeometry>
        </mxCell>
        <mxCell id="C0XAzO81hBhKXg0jQggx-15" value="" style="endArrow=classic;html=1;" edge="1" parent="1">
          <mxGeometry width="50" height="50" relative="1" as="geometry">
            <mxPoint x="584" y="901.16" as="sourcePoint" />
            <mxPoint x="654" y="901.16" as="targetPoint" />
          </mxGeometry>
        </mxCell>
        <mxCell id="C0XAzO81hBhKXg0jQggx-18" value="" style="shape=image;verticalLabelPosition=bottom;labelBackgroundColor=#ffffff;verticalAlign=top;aspect=fixed;imageAspect=0;image=data:image/png,iVBORw0KGgoAAAANSUhEUgAAAMgAAADICAYAAACtWK6eAAAAAXNSR0IArs4c6QAAHiZJREFUeF7tnXt0XNV977/fffQ02JZmjC0MXMe2xg9KE4c8GrAJr/aalIeblGLayyIlbWJ7xjgkC9pVsniFtskqqSjGGtkhKS23SZFv+IOI1HaSAqmNcUpDSGrIyCNZ+EJ8ZawZWXGi99m/u/bIMsLWY+bMe2aftWbpaLR/r88+X50zc/bZm7BbWgR8W6Nz3NpKf8Xw0DyB4xeIXynxi9AvgJ+gHxQ/BLMAVoFSBS3VoNlHFQRVifch1YDZT2zDAIcAGQYxDDEvGYbiEITDp97vh0hMyB5qHSOcHq3QQ1fHtMMepdlTU3EidnTDh/vTKrDMjVnm9c9Y/nnNB88drahdrEb0ElFqscBdosjFIlgCJF41MzrJZwPBCRJdAnYB8iaFXZrsotJdNex70wpo+s6xAjnF57zmjsYRysUEVhJcCdErQC4GMD+fx3fWYxPHIOgCGRHRb0A5r4sMv3Fi08o3sx67CAKUnUDmbo0udaqcD0K7F8MIgbISgosBVBZBf+Uyxd8A8gaoXh8XzihH//PkhuU9uUwi37FKXiC+cPRjEK4GcTlgXtKQb+hFHv8QgJcA7IfC/vjGwBtFXs+06ZeUQOZ9MzIbQ87VIrJaEoKgEYUq5Q7Me22CEyBfImS/62L/iTsDL+Y9pwwmUPQC8bdErtHiXEvI7wL8aAbZWFfeCAwKuBvQe6i5N7458Lo3N4VhVXQCqdve/gFHeKUIrgTMi/7CQGmzmJQAESHwvKbaB+Kl3g1L/28xkSoKgczb9otlrnLWEVwHYHUxAba5vpcAgTYh2xzttB0PLe4udD4FK5C6J7vqnAF3nQjWgWKEYT9LFPrRlFp+vyLRJpptNRWz2o5uWFiQNzQLTiD129p/n4rrIFwHYkFqzG3roiRAvE1BmwbbeoONuwqphoIQyHnNBxtcVK0HeSuAjxUSIJtLzgkcgMjTDoZbj4cuyfslWF4FUt/cuQbUtxJYD2BezrvCBixkAj0CtELU072hpfvylWheBOILH7oDoBHF2nwVbuMWFYE9gLTGg8uezHXWORVIfbjjc4B8jsCHcl2ojVcSBH5MsCUWbPznXFWTE4FYYeSqO8sjDoEfibAlHmpszXbFWRWIFUa2u6/s/e+hRktsc+DZbJHIikD829qvhVL3SeJOt90sgewSEOCpCuHDx0ONHZmOlFGBvO/Jrpq+gdH7CfxVphO1/iyBGQj8UsAv9wYbv55JUhkTSH2483rCvd8OGMxk91hfKRMgdgr4cO+mxoMp205ikLZALmx6q7a/dvBvIPhCJhKyPiyBDBCIQeTheGjZY+n6Sksg9eHI+wHnMQJXpZuItbcEMk1AgP9dWenc885nlxzz6tuzQPzNhz4l5DNeA1s7SyA3BOTnEN4TDwW+7yWeJ4H4WqJN9pLKC25rkzcCCZE0fi3V+CkLxNfS0Q0RO8o2VdK2fd4JmEuu3mDg9lQSSUkgvnBHLyB1qQSwbS2BQiJgHtiKBQM3JZtT0gKpD0ejBBqTdWzbWQIFTOD5eDBwbTL5JSUQX3N0P4jLknFo21gCRULgQDwYmPGYnlEg9eHoswSSPiUVCRybpiVgCOyPBwPTznEwrUDqm6PNJIKWpSVQqgREEO4NBUJT1TelQOrDh+4h+HelCsbWZQmMExDitt5NgW9NRmRSgfjC0T8CsNMitATKhoBg7WQ3E88SiL+58yMa+nskzisbOLbQsicgguOisPbEpsBPJ8I4SyC+cNRMu3Jd2ROzAMqRwO54MPCJKQXib+64XSg5e963HHvA1lzYBCj8dCzU+NR4lu+eQR44WFXfUP0yBZcWdgk2O0sgewSEeLW3e+gyPHTJsIlyWiC+5o67QXkke6GtZ0ugSAhMGNiYEMjc8JF6h8M/h+DCIinBpmkJZI8A8faIO7rq5OaVsYRAfM0d60F5OnsRrWdLoLgIUOSOWGjZP40JpCX6TQg+U1wl2GwtgawSeCYeDNxMPHCwytdQ0weRwl7OOKssrHNL4CwCw/FRzKF/e+enRGv76Kw9QiyBMwkIb6UvHP17AF+0dCwBS+AsAk1GIObDuZlp3W6WgCXwXgKt9DUf2gtyjSVjCVgCZxAQ2WfOIJ0Allg4loAlcBaBw/SHo4MCVFs4loAl8F4CBIbMGUQsGEvAEpicgBWIPTIsgWkIWIHYw8MSsAKxx4Al4I2APYN442atyoSAFUiZdLQt0xsBKxBv3KxVmRCwAimTjrZleiNgBeKNm7UqEwJWIGXS0bZMbwSsQLxxs1ZlQsAKpEw62pbpjYAViDdu1qpMCFiBlElH2zK9EbAC8cbNWpUJASuQMuloW6Y3AlYg3rhZqzIhYAVSJh1ty/RGwArEGzdrVSYErEDKpKNtmd4IWIF442atyoSAFUiZdLQt0xuBlAUiwHcJ3OQtnLWyBPJHQIhnKViXSgYpCwSiHxKoQRJfSSWQbWsJ5I0AMQzNLwHuuaB6IJU8PAkkHlr+YN32Qx9XWn0NkI+kEtC2tQRySUCAFwjcGw8GDvia2x/MmUBMkRfufKu2//jQV0HZksuibSxLICkC5MPxTY33j7fNuUDGA9eHo7cR+CqAC5JK3DayBLJKQF4BeV98U2DPxDB5E4hJYl748HJN/RWIfDKrtVvnlsB0BIhHK8+Zfd+x2xt+c2azvArk9Nlke+cfU7t3Afyo7UlLIFcECLSRaOrZFHhxqpgFIZBEciL0hTvuAvl5QBblCpKNU4YEiJ+RbIptbHxqpuoLRyCnMp23443zxa38vAbuol1iYab+s39PiQB7CTRVO7Oajm5Y2J+MacEJZDzpuuauVYoj5rLr08kUYttYAtMSIJ+gcppiGxZHUiFVsAIZL8LX3HEdlPwZBDenUphtawkkCBDfgXaeiIeWfN8LkYIXyOkP8uHD7wfc9QpYL8BSL8Vam/IgQKBTA62A09obXPLzdKouGoGMF/m+J7tqTg646wViVtn9RDrFW9uSI7CLYOvsWqf1zTsWD2aiuqITyMSifdujl0FkPYRGLA2ZAGJ9FB2BblBaQbbGNwZeznT2RS2QcRizt/3CX8GK9YRcD6q1gDiZBmX9FRIBuhC9R8Dvjcpo68nNK2PZyq4kBDIRztzHI4sVnetArCWxFkBNtuBZvzklMCiCPRDs0eLu7rtzRVcuoudGIMRJEd7dG2z8ei6KGo/h2xq9EE5CJAnBAJidy/g2VtoEThpBANgNF3viWwJvp+0xBQf+lo4tIvK3AM5JwQypD3c/5Z3Aj1wXD564c+pb+6kkkkrb+f9weIFbqdcK9HUgjVh8qdjbtjkjEIfIHkLtdkbUnnfuWnIsZ5FPBapv6byB4t4P0NNjGZ4FMl6oCMK6Ak19GwKduS7exKvf0TkXI6Or4TiXQ2Q1gdUAKvORS9nHNA8mCV6A6ANQ6mWM4OX4lsCv8sHFv6NrhWj3LyHyp+nET1sgJrgIjivFx7Titt4NS/vSSShd27pHu+qc6uGrhOrjkIRY7KDJdKFOa8+9EPf5fAtiPEXzD1Np2SwiXwDgT7f0jAjkdBJEhIJtsWCgOd3EMmV/WjBQVwK4CsCqTPkuRz9CvEqR5yHq3+HK/nydISZj7w9HQ0JshmBFpvomswJ5N6sDAnm8N7js25lKNFN+Fu44OmvY7V/pQlYCWElwBU7tZypGCfgZARGBmBcjQh1xNCNVledEkh0YmEsG9eFDf0LwTgAfy3TcbAlkPM9dUM4/xjcu+U6mE8+GP3/zoYRoQCMarNQJAcG8Nysb8QrAZw8gEYARkBERHdEOI/n6PJkqD9/2wzdDu5/J5iiMbAtkrGbyvynYSc2dPZuXHkoVRL7bz/nGQV/FaHUDhQ1adAPBBoANQmlg4q4/GyD6fIDz8p0rAA2RbqH6fwS6AbPPbgV0C6VbXNVdAekGBruPhy75dQHkm1IK87Z1LhMltwhxC0R+OyVjD41zI5B3ExsxQnGJnSeCge96yLewTR54ocLnv7BB0W0Qp7JOK11LV88iWKsVaymopZh9nfhJoFbIWiTel1lCqU38PwH7BRiAyACJARH2gzJAcECg+oUyoDQGzE/zu6IMaBntqWJF97FNje8UNiRv2dWFozc5gjFh5PBbylwL5DQdAX4CkZ26gs8UyyndW9daK68E5u6ILlWj8ocgbyHwIa9+0rHLm0AmJO0K2EaR5yoV20r1P2A6nVROtgtaOuaPaLlRyBsIuRFAXsfiFYJAJvb/CQGeI9FWo/qeO7rhw0k9SllOB1Ap1rpwx3/NGtRzbxDBjQRuAFBXKHUWmkAmcnmLwHMabDtnsPrFt7940UChQLN5pE/APAvUN+BerSA3ypgoLkrfa+Y9FLJAJlbbI8A+AnsF7g97gyvSerIs8xitx2QI+B9vX6EdXsXETVu5BsD8ZOzy2aZYBHImI/NV8X9QZFftUO0ue3bJ5yE0dezEWWJIX0Otfw+Aef1WYWY6dVbFKpD3VCTAi4Tsg1Tsramo2VeId3uL7cDwkq8ZpTA4OrgGHL1CwDUcG9pT1FtJCOTMHhDBq1TcCy37Kqqcve98NvfDrIv6qEgy+flPHF4wOuxeAcU1ouUKEpcmaVo0zUpSIJPQjwKyj6JeFdHtoIrEQ41vFU0vFUCivuaOiyB6BamWC/WlANcACBRAallNoVwEMglE9hPSLpB2iLSLciJmf5bqay/Xr5fN1639eu5ygsup3RUgE/sCLgekVMejTSuwMhbINFwEx0A5Aqo3IThCyBFtflfOEQ7pI4U0xDuVf5++rdE5Uq0WQbuLlHCRgItALILo90ES+wtS8VcOba1AvPVyL4AjAMyAwJiIxEHGzL4WiROMKTI24o7GHXFi2RLUnG+85aseGvJp0X6tlA8UnxL6RFy/kGP7TDyOfD4AM4l4vbdyy9cqLwIh8FMhf0aRqIb6maL26cRDLryYkD8owe4QAYYJDAMyjMRPnvo59r75+6n3zDOaVQSqZOxVbfaReEkVwFP7iffslmUCuReI6IdqKk7+3VTX+b5w9M8BbAWQGNlqN0sgnwRyKxDiujOXxZqqeF9LdD8El+UTjo1tCeRMIBR8KxYK3JYs8sQANnfuWctoJWtv21kCmSCQK4H8OB4MpPy8cH1Lx60U+ddMFGp9WAJeCOREICII9YYCYS8J+sJRMwOfXT3XCzxrkzaBnAhEu7ja6wyM9eGoWQi+6Mf0pN1T1kFeCOREIMOjmP/rLYHjXir0hw+1CLjRi621sQTSJWAFki5Ba1/SBHIiEHuJVdLHUEkXlxOB2A/pJX0MlXRxOREIAPs1b0kfRqVbXK4EAnujsHQPolKuLGcCSUC0Q01K+VgqydpyKxCD0A5WLMkDqVSLyr1AEieSshvuXqrHT8nXlbJABPgugZtKnowtsOQICPEsBetSKSxlgZhLJIEaJPGVVALZtpZA3giYtRM1vwS454LqgVTy8CSQeGj5g3XbD31cafU1QDytHppKkratJeCVgABmLN+98WDgQG7WSRf9kBGISfjCnW/V9h8f+iooW7wWYO0sgawRIB+Ob2q8f9x/zgUyHrg+HL2NwFftsPSsdbV1nBIBeQXkfWc+vZo3gZjc54UPL9fUX4HIJ1OqxTa2BDJJgHi08pzZ9x27veGsp1HzKpDTZ5PtnX9M7d4F0K5PnsmOt76mJUCgjURTz6bAi1M1LAiBJJIToS/ccRfIzwNi5mOymyWQHQLEz0g2xTY2PjVTgMIRyKlM5+1443xxKz+vgbsIVM9UgP27JZA8AfYSaKp2ZjUlO5t/wQlkvNi65q5ViiPmsuvTyQOwLS2BKQiQT1A5TbENiyOpMCpYgYwX4WvuuA5K/gyCm1MpzLa1BBIEiO9AO0/EQ0u+74VIwQvk9Af58OH3A+56BawXYKmXYq1NeRAg0KmBVsBp7Q0uSWvpvaIRyHjXmiW6Tg646wWyHsAnyqPLbZVJEthFsHV2rdP65h2LB5O0mbZZ0QlkYjW+7dHLILIeQiOWhkwAsT6KjkA3KK0gW+MbAy9nOvuiFsg4jNnbfuGvYMV6Qq4H1VpA8rqQfKY7yfo7kwBdiN4j4PdGZbT15OaVsWwxKgmBTIQz9/HIYkXnOhBrSawFUJMteNZvTgkMimAPBHu0uLv77lzRlYvouREIcVKEd/cGG7+ei6LGY/i2Ri+EkxBJQjAAZucyvo2VNoGTRhAAdsPFnviWgJlSNmebv6Vji4j8LYBzUgma+nD3U94J/Mh18aDXKUVTSfLMtvP/4fACt1KvFejrQBqxmFWU7FZ4BOIQ2UOo3c6I2vPOXblfbbi+pfMGins/QE+PZXgWyHhfiCCsK9DUtyHQmY/+qd/RORcjo6vhOJdDZDWB1QAq85FL2cc0DyYJXoDoA1DqZYzg5WwtPzcTa/+OrhWi3b+EyJ/O1Ha6v6ctEONcBMeV4mNacVvvhqV96SSUrm3do111TvXwVUL1cUhCLHbQZLpQp7XnXoj7fL4FMZ6i+YeptGwWkS8A8KdbekYEcjoJIkLBtlgw0JxuYpmyPy0YqCsxNkv8qkz5Lkc/QrxKkech6t/hyv58nSEmY+8PR0NCbEZivcvMbJkVyLs5HRDI473BZd/OTJqZ87Jwx9FZw27/SheyEsBKgitwaj9zUYre0wiICMS8GBHqiKMZqao8J5LswMBcEqgPH/oTgncCSHmRppnyzJZAxuPugnL+Mb5xyXdmSqQQ/u5vPpQQDWhEg5U6ISCY92YVQn5ZyKEHkAjACMiIiI5oh5F8fZ5MtT7f9sM3Q7ufyeYojGwLZKxm8r8p2EnNnT2blx5KFUS+28/5xkFfxWh1A4UNWnQDwQaADUJpYOKuPxsg+nyA8/KdKwANkW6hMmu4dwNmn90K6BZKt7iquwLSDQx2Hw9d8usCyDelFOZt61wmSm4R4haI/HZKxh4a50Yg7yY2YoTiEjtPBAPf9ZBvYZs88EKFz39hg6LbIE5lnVa6lq6eRbBWK9ZSUEsx+zrxk0CtkLVIvC+zhJJY+ppgvwADEBkgMSDCflAGCA4IVL9QBpTGgPlpfleUAS2jPVWs6D62qfGdwobkLbu6cPQmRzAmjBx+S5lrgZymI8BPILJTV/CZYjmle+taa+WVwNwd0aVqVP4Q5C0EPuTVTzp2eRPIhKRdAdso8lylYlup/gdMp5PKyXZBS8f8ES03CnkDITcCyOtYvEIQyMT+PyHAcyTaalTfc0c3fLi/nA6Ocq114Y7/mjWo594gghsJ3ACgrlBYFJpAJnJ5i8BzGmw7Z7D6xbe/eNFAoUCzeaRPwDwL1DfgXq0gN8qYKC5K32vmPRSyQCZW2yPAPgJ7Be4Pe4Mr0nqyLPMYrcdkCPgfb1+hHV7FxE1buQbA/GTs8tmmWARyJiPzVfF/UGRX7VDtLnt2yechNHXsxFliSF9DrX8PgHn9VmFmOnVW9Iejg1LkU/II8CIh+yAVe2sqavYV4t3eYjswvORrRikMjg6uAUevEHANx4b2FO1GYMicQcwo3CVFW8UkiYvgVSruhZZ9FVXO3nc+m/th1qXEc6pa5j9xeMHosHsFFNeIlitIXFpidR+mr/nQXpBrSqywM8uJArKPol4V0e2gisRDjW+VeM0ZLc/X3HERRK8g1XKhvhRIHDOBjAYpNGci+8wZ5GkAZqKEMtvYT0i7QNoh0i7KiZj9WaqvvVy/XjZft/brucsJLqd2V4BM7Au4HJBSHY823XHfagTy9wC+WGbqmL5cwTFQjoDqTQiOEHJEm9+Vc4RD+kghDfFOpd98W6NzpFotgnYXKeEiAReBWATR74Mk9hek4q8M2jbRv73zU6L1M2VQbCZL7AVwBIAZEBgTkTjImNnXInGCMUXGRtzRuCNOLFuCmvONt3zVQ0M+LdqvlfKB4lNCn4jrF3Jsn4nHkc8HYCYRr88khJL3JbyVeOBgla+hpg8iOZ4xhK+Q8grAH0LjAqFeDdA8AViQN4zSPBhEgGECw4AMI/GTp36OvW/+fuo984xmFYEqGXtVm30kXlIF8NR+4j27ZY/AcHwUc2j8+1qi34TAjKvP+kbg2wSbeoKNP5ksWH1Lx19T5EtZT8QGsASmJ/BMPBi4eUwgzR3rQTEf1rO6CeSG3uCy7yUTxNcS3Q/BZcm0tW0sgUwToMgdsdCyf0oIZG74SL3D4Z9DcGGmA437o+BbsVDgtmT9JwawuXPPWkYrWXvbzhLwTIB4e8QdXWVmeUwI5NRZ5G5QHvHsdHrDH8eDgZSfF65v6biVIv+apZysW0tgcgLCe+Khxq+ZP54WiPmwXt9Q/TIl83dDKbwzFmrc5qU/fOHoLwEs9GJrbSyBVAmYWVt6u4cuw0OXmC9RJgjETCLU3HG7UP45VaczttfyP+Obl/1gxnaTNPCFO/YCUup3+r2gsTZZIEDhp2Ohd9c7fPcMMn6pFY7uSsx/m8lN+D+8Du3wtXQ8me7seJksxfoqaQK748HAe9apOUsg9c3ta0hl/ttn7L5I5W/6zz12zwc8feD2hQ89AvDuku4WW1whEDAzgl4XDwYOTEzmLIEkPrCHo3cBeDRTWVPUR2Ohpa948ecLR/8tm/MeecnJ2pQiAflMPLjsyTMrm1QgppG/OfovQvyvTKAY/07Zi6/6cDRKoNGLrbWxBJIjII/Eg8v+YrK2UwokMbyZ+gdIjORMb0v1Hsh4tPqWjtUU2ZdedGttCUxNgEBbLBi4aaoWUwokcRbZ1v5JUc7/ycgyaKIfioeWP5hKZ9m76anQsm09EHjdEf7B8VBjhyeBGKP68KHrCZpJqOd4SOA9JvFgYFpBTmzsa442gTBT2NvNEsgGgdehcEt8Y+CN6ZwndcDOa+64WhPfAsQMm05rE3DDdMu3+cLRPwL414AsSyuQNbYEpiaQlDiMeVICSVxu7ej6He2O/ksmPjCbaUcpfAnAfpeV31cYuEjBMQ/6X4GxNdPtZglki0DS4khJIGOXW5H3E04LgMuzlb31awlkjYD5wsfhhpkuqybGT/oMMm50XvPBczWrHhFwY9YKsY4tgcwTaIqP4l5sCQyl4jplgYw7rw93biS0Gf17bioBbVtLIMcEDkN4bzzU2OolrmeBmGC+5o7LTw2Rt5dcXuhbm2wTaHWh7+0LLj/sNVBaAjFBzSWXq6q/DLFfyXrtBGuXcQIxiDwcDy17LF3PaQtkwiXX9URiwXa77HK6vWLtvRMgdgr4cO+mxoPenbxrmTGBGJdjU9qP3k/grzKRnPVhCaRA4JcCfnm6e2wp+DrdNKMCGffq39Z+LZS6TwCzNrndLIGsEhDgqQrhw9MNGfGaQFYE8u5lV8fnAPlcvtaX8wrF2hUNgT3UaIltDjybrYyzKhArlGx1W3n7JfAjEbZ4/eo2FXo5EYgVSipdYttOQ+DHBFtiwcbMz5swRdCcCmQ8B1/40B0AzZirtfZwsASSILAHkNbJnvhLwjatJnkRyOkzSnPnGlDfyrHlF+alVYk1LjUCZl3KVoh6uje0NG8PzeVVIOM9el7zwQYXVetB3gog5QnmSu3IKPN6DkDkaQfDrcdDl3Tnm0VBCGQihPpt7b9PxXUQrrPrVeT78MhRfOJtCtrMkt+9wUYz7VTBbAUnkHEydU921TkD7joRrANlHQBVMNRsIpkg8CsSbaLZVlMxq61QF14tWIFM7IF5236xzFXOOoJGKGYNEbsVKQEzSYKQbY522o6HFuf9EmomjEUhkIlF1G1v/4AjvFIkcZf+SoD+mYq0f88rgS5AfiDgXtEje09svtiszFU0W9EJ5Eyy/pbINVqcawn5XTtQsmCOu+dB/psSvDjVQkkFk+kMiRS9QN5zKfbNyGwMOVeLyGqheSyY5jkV+9klu0ejBmQ/BftJvlTlnPPDQv084QVDSQlkMgC+cPRjEK5GQjDmJQ1eQFmbcQI0nxvM6l/7QXnpzLlsS41TyQvkzA6buzW6VFXqjyhRqwRYBeCDAOaXWsdmqJ53APyUwGua+jU9ol7p2xLozJDvonBTdgKZrFfmPR5Z6FZWrlJarxKRDwq5KhPTGxXFEXAqSQE6KPIayZ9qpV5zRkZe67lzxdFiqiEbuVqBTEV1a7R6boW+QDkVCzkqF4ByAYCxl5jfuZDABWaZ5mx0TAZ9ngTkqIBHFfBLkEdF66OJn+RRPTp6tE+co6nO9pHB/AralRVImt3j2xqd49ZW+iuGh+YJHL9A/EqJX4R+Afw0X0NT/BDMSqxxTqmClmrQ7KMKYtY7N2ufixHa+NrnZs30ocSa6sQwxLxkGIpDELO+euL9fojEhOyh1jHC6dEKPXR1TDvsUZo9NRUnYkc3fLg/zRLL2vz/A0gqBKNRNBapAAAAAElFTkSuQmCC;" vertex="1" parent="1">
          <mxGeometry x="479" y="943" width="100" height="100" as="geometry" />
        </mxCell>
        <mxCell id="C0XAzO81hBhKXg0jQggx-19" value="" style="shape=image;verticalLabelPosition=bottom;labelBackgroundColor=#ffffff;verticalAlign=top;aspect=fixed;imageAspect=0;image=data:image/png,iVBORw0KGgoAAAANSUhEUgAAAMgAAADICAYAAACtWK6eAAAAAXNSR0IArs4c6QAAHHBJREFUeF7tnXu83FS1x38rM5M5pYigotB2Mi3t6WROy0sQsC8KBwSuiDwUEeUlCoKgXITrBR+AXFB5iIIIXBERUC4IRcCL2FZaoC0vlVJKZ6aFtpM5vMSPotDSycxk3U9OH7e055FkspOdc3Y+n/7B56y19tq/lS+ZJDtrE9QRuwIlQ7+YgA8D2AuAA+AJBpYVLfvi2JMb5gnQMJ9/rNNfYehdDnA3A5P6SeSVlsNHT+ppPBVrosN4cAVIjMUvGzp7Gd60bFUnL0IJsFHCCxDVS8iKkb2Jwad5sQXjKrNmn+/JVhmFqoACJFQ5vQcrG/qLAMZ79FhtWvY4j7bKLEQFFCAhiuk11OIxI0Z3aK0er/auXbqZMia88k7Nj4+ybV8BBUj7GvqOUBqTnkmaNs+PIzvOAcWe5nw/Psq2fQUUIO1r6DuCAsS3ZLE5KEBikF4BEoPoAYdUgAQUrh03BUg76kXrqwCJVu/e0RQgMYgecEgFSEDh2nFTgLSjXrS+CpBo9VZXkBj0bmdIBUg76gX0VVeQgMLF4KYAiUF0BUgMogccUgESULh23BQg7agXra8CJFq91T1IDHq3M6QCpB31AvqqK0hA4WJwU4DEILoCJAbRAw6pAAkoXDtuCpB21IvWVwESrd7qHiQGvdsZUjpASqOzE9MpTtcd+7XJPfh7O5OT1VddQd5dmdJovB+kj0oTre2s1V+SqW7SALLcyB7urP8E9RObCTSbwHcUrMbtMonWbi4KkPUKVozMCQz6PICPbabpAwS+R5aaSwFIJadfyITL+jvxGLitaNkntXtiyuKvAAHKhu7+T8+Fo++D6AazWj8z7prFDkjZyN4A8Jc9CHGFadnf8GAnvclwB6SSy1zFRF8fvFB0o2nVzxjcTpxFrIA8n8uOzxAvBrCtxyl+xrTsuz3aSms2nAEpG/qxAO7yWJy3G0x77BrjfUmsgGzoKHiRR7HAhKfMqj2F1ncfTOwxXAFhQCvn9UXE2Ndr8Ri4JM4Ok7ECUjayNwJ8ulexXDsmOr9YrV/lx0c22+EKSCmfPY+Yr/RVD8ItZtU+1ZdPiMbxApLXfw/GoX7mw8BrRNoUs7pulR8/mWyHIyDlfMc4ZmcRATv5rMVs07IP8ekTmnmsgPj9ibVx1sz8k2KtcXZoKkQcaDgCUsplriOis3xLHXNXyVgBqeTS05m0x3yLBiDlODM7e5qPBvGN22e4AbJiTHr/lqYF6unFTIcUa/XZcdUsVkDcSZcNfSGAKQEEeMC07E8G8IvdZbgBUjb0+wEcEUD4RaZlTw3gF5pL7IBU8vpRzJgVZEYO+KQuq3FbEN84fYYTIMuMzIka6JdB9CbC0YWqfV8Q37B8Ygdkw1Vk4Leq/c2W8dx2LXvKqFewNixBoogzXAB5ZRS2+VdKXwTC7gF0vcO07BMC+IXqIgUgldGZ3TlF7k+tkb5nR/i2WbX/y7dfjA7DBZByXv8WGJcGkHoNtXhq4eXGcwF8Q3WRAhB3RkGfaAF4UyNMmVi1S6EqIzDY0h2xbXqE/pavIdba25l/gz8fXwOEa7w8rxcdxiIA2/uNHPfLwc3zlQaQ3pNmG30hGLv5FRSgm02r/iX/fvF5+Hw48YRp2UEeZMQ2wbKR/RnAX/SdAGFJc609dfIbeNu3rwAHaQBx57Zh+XOgm25mOrRYq/9BgEZCQpaMzGkEuslL8LgfdXrJcXObUi57CBE/7NfPtSfwibIsdV+fj2RHOa/fB8aRftNi8Jyi1dj8uwK/ISK3L+f0h0A4bJCBf2NatrvALzFHycjMJtDBvhMm/Nas2kf59hPoIB8gRnoqoC0IMmcGn160Gv8dxDcun3IucwaIftr3+HSTadW9fAoQV/pbjevnyrh10s4002q6D2ukOaQDxFXG+/cCW+lYGenYU3IJ+1S3lMt+TCPei9H7OLThgP4M4IUuqz5HmjPFQyK1MXjfGk13b8wLHszfZULMVxdqjfP8+om2lxKQVWNH7mQ7jYUM7OJXACZcXqza3/Trp+zbV6CU1y8jxoV+IxGwUtcyU8etXvOaX1/R9lIC4k56WS5zpkZ0fQAB1rWIp0yqNp4N4KtcAirwQj6zZ4rJvXp0+A3hMH+lq9bo52em32jh2ksLiDvNkpGZQ6CDAkxZirewAfJOrMug35j3MzMGzy1aDf839BEpJTcgbTwudBhHddXs30ak47AeZllOP1IjBFozJfvjeakBcc+6IF8drj9b6XHTqs8Y1mduRJMvG9nHAJ7ufzj5n9JJD8iyMdlOjZyFINoxQAG+Zlr1a/37KQ+vCpSN7FcB/rFX+012zG84rE3t6qmv8O0boYP0gKy/iuj/AeAHAXSprnNSU/foeeflAL7KZRAFFo8ZMbpDa7nvLfIBxPqGadlXBPCL1CURgLjdMJbn9IVM2M+vOkz8w2K14aEHk9/Iyr6Uz1xNTOf6VYIYT06s2VOT0J0mEYC4BVie149xGPf4LYZr32CaEGdvpSA5y+6zbFxHXms5q4PkqRE+NbFq3xvEN2qfxADiClPK6b8iwvG+RWI+w6w1bvTtpxz6VaBs6G7bUN89k5nx62LN/lxSpE0UIBteRrm/eUf4EZgZ9xVr9tF+fJTtwAqUDd3tcPlpnzq90yKemqSXuIkCpPeGPad/F4Rv+yzMvaZlf8qnjzIfQIFKXr+TGcf5EolxqVmzv+PLJ2bjxAGyYgK2a9m9nVAme9WOiK8pVBu+bya9xh+OdqVc5iry1IB6kzpLU7o9tfNF/CtJeiUOEFfcipE5iUG3ehVahu4YXnNNip3fbjQEPrlgNQJ1N4lTk0QC0gtJXp/FDC8f18TeWynOAosc2+tnw8SYVajZx4jMRVTsxALi9noFO48DGD2AOP8kwilx91bamJ/73X1qm/Ru5NBupFGOmUcC2kgiHsmMkQQeyUQNMNYwsIaI1rDDa0Bw/z1PGi01V9Urok4Gv3E3rMH6xYCNGRiWk9ZmdK1aV/UbXwb7xAKy/oY9ewSI3Zu+vbYUkxlPQnO+Xqw23SXYkR9LDOygO9l9WeP93EYUGmE3BsaHkIgNYCn3/qNnM+Q82hnj0v7lYzP7MtOPua8tDZjna5p21cRq/X9DmHcsIRINyEbF3P0NW+C93f/WmP/aYG325J76i1EqWhrbMZZarQNB2j4E3oeBPSMc/00Q5pODZzTQnzpj6GX7fF4vZpgOZvD7euftOPOLPc1A/Xgj1G3QoYYEIIPOUqBBJZ/9NzB/mte/E/Df+E5MbotBmJVizOq07BfEDDE8oipAAtT5+VEjcpmMc5wLBoCPBAgRpcv9BJ711o6NO/f+MxpRDjwUxlKA+KjiinxmzxbjRIBOBLD+p0RCDgKWOcDtxOnbzNraVxKSduxpKkA8lGBFLvuxFrELRWLWEPU7LaI3GM7tmobbCqvi733rQf5YTRQgA8jv3nhrjnMRAyfHWiVBg8vUA1fQFNsOqwDpR8JSLnMyEbk78I5tW2WZAzDPZ+ZLhsITJxEyK0C2UHWoXzX6O4nU1aRvZRQgm+lSzumfBOFqhPNCT8T/0ITGJPBcZlxg1hp/EjpQgoIrQDYUq5TTLyTCZQmqnZBUCXiTmV1I1AdmMnZ3F1L1AYK6bU7rrcbVCPKlYtTJRjke089TjfoFna/hjSiHlW2sYX0F6f1C0V02H2jTHtlKKSAfxnNaik+fuLrxlIDoiQg5bAGpGOlpDM3dnjhRL/yiP6v4r+zwZ4brU64+AXE3mQSnXqF6/dUk7Yvn9eRpZwckr2MMNTt2nAOGIiTlD+A9nM3uDGqN6mt+7wKklMv8hIjc3Z02fWNBwEsMmqMRz0ml7D+OX4l/Jrn4lVz2XCZ2n1Spw6cCQwGSyih8ACm9G0TdAHdvscXGaoDvN63GORul2QSI1y4VbtMvBuYQnDkTa80FBLBPnWMzb2Mn3dhylm3gFNOEzlr9Jdny6i+fpV3QM2uy3XCcXigY2MND7pu2vesFJPCOpMA6FxaNaDa3+DGzx17iYfBYTBQc4cme1TI7y7jZzcYZlo30VILW7RAdSMzTAKR8z57wC7Nqf4FeMDq6U3Dm+g7QlwPDAmgOiOezpi0orl4XqPNeKLlsFqRsZL8G8I/CjjuM4y1+U7f330+SDiWlMfqupFE3iPcH0zSAPxBSbY6lsqG7T3KOCCnglmHcvfb+mAItqDv1hZNj2DuwlNM/S4RfC5rfcA57/xLLPuZYoBW1CCvHdeRtp9UN0DRmTCdggpAcmOdTOZeZB6KZQgZ4d9AmGO6VagGzs8Ds6b1/ESqu+54jzXiYQR+MYH7DcIho9veoGthhHekzHfB06r1CRPSRWsSAbHkCvUrAYyBa0ISzMOx2lLwXMpU3Mn8A6IBheOZGNmUGfbVo1a8Lc0AGUpV8xwzAmQaGC4S7OY+vdrOh5OMCItHNa4kI99nAHbtW7VK7E6wYmWsZdHa7cZT/wAow0CDSDjGr6+a1q1XJyOylQTuNwYcDGNVuvHb9GfgeVXLp6UzaY+0GC9HfZuDiomV/L2jMkpE5nUBqsV1QAX36EfDsuox+6O4vvf1Xn66bzCs5/UKWbLFoipwpvY95S4b+OwI+HnRyQvyITzWrjVv8xn5xTHZCM4VFYA6wZZvf0ZT9JgU2PBYNokjJyJxGoJuC+IryYebri7XGWb2ArBw38kO205gt26I9blGh+HJ9uR8Rykb2BoC/7MdH2YajgMM4rqtm3+Un2oYOmSv9+Ii2JeCZt3a0p7pdYDa9SXchqTvNEwh8giygMNN5xVrd87KQZUb2IA08R7SAKn4/ChCWZFL2DD/LkSr5zBeZ6WdSaEpYwqDbs1r69l1WrXndzanPxYruSlcHmvt8eZr7j4HtYpkA83yz1vD8FKqc0x8C4bBYclWDblTgStOy3U1XPR0RvmboKx93XaF7/70QcBaYVtPdVuNdx6DL3d39OJp2dn9C7yt793HbRz3NPByju0zL9rRJSzmfORVMN4czrIrSlgKkdZvVdY94iVE2dHcbN3c7t4gOngemhe6/Zr2+YPIbeHuggQcFZEvnFaNHjGmkmgcStGka2L26FEXNzM8OtWVDd5tURwmvqGknPq77uL5Q9bblXSmnX0mE84RNmrAEzI8AtNCh9MKu6tpX/YzlG5Atgy819K4UqJvAM4Delzo7+UlgIFsN9ImJVv13g8VrZwfcwWKrvwdTgOBML1jNBYN5u43HHfCDg9n5+PvL5K42Z360ydrCrp76Ch++W5m2DciWEZeNzeyntaibiGcyyP1Jlg2Y4IOmZXtaIyZ4PVnA9Ie3G4N+VrTqp3lRoWzoDwD4hBfbPmzWAZgD0NwUOY+HvRVE6IBsPgEGtHIuexARdwNw/221j0dfohDwggYc22nZywYTbXkuPcMh7dHB7NTfI1dgHVK0h5cNf1YYepcD3M3AJI9ZLmJgrsbO3Im15kICHI9+vs2EArJlNqvGYvsG690O00Hu11wAOre0cTe+SRNO9QKH61vOZW8G8am+Z558B3c5jrD7vzDkYcLlxar9TS+xeiEh3NLnRjxAhZnnEmhOKmvPi3Ij0EgB2VKol3bpMBoN3oPgjHH/5nfjm95NaxxnqUT7cng5F0KxIcZxTPifUIKJC7LqVc3uOmA13J9Bno6NG/EQO02G1tNs0uLJr66zPDkLMIoVkHbnU85nzwfzFe3GSaD/FcT0mvuUT/bcNcbxE2v2nbLn2V9+yQbE0J+O7NsAeSr8tGnZ+5Zz+pUQ+Xg0vPneY1q2u9FQIo/EAuJufcbMid0cMujZ0mJnxqRa8/FyTv9VErpBuh/FOS3q8rumLqg+YfslFxBD/8VQ3bej3yITvmNW7Uvdv8e8RMPXeUjABQXL/r4vJ0mMEwtI2dDdFaDjJNExgjT4EdNquE/+eo+Kob8Y0rbSEeSOJ0zLnhLFQGGPkUhA3EeCLWA47d7a0DTeZ+LqxmL3BJgHpHc29Lq763XYJ4SoeHoqs9PGFbKixhARN5GAlA3dXdzmLnIbJgf9u2nVN7UtWrpzh5HOONUkTZ4IRxeq9n1JytnNNZmA5DLXg+jMpIkdMN/7Tct228FuOnqX8zj0RMB48bgxrjJr9vnxDB581GQCktefk+WjruDSD+7JwD9aDu0zuaf+4ubWpbx+NDHuHTyCVBaLTMueKlVGHpJJHCBLd8S26RH6Wx7mlngTh/hLXdXGVt+4lPLZs4g51FY7UYhlWnbizrfEJVzKp6cQa1t9+RVFgSMe4w7Tsk/oa8ySoV/uPjqNOJ+2h0szdp1Qs92lQYk5EgdIOZf5MohuSIzCQRJlWHo6s09/T30qhv5LBk4MEjpOH2YcX0zYspPkATIMupa4CxELA3QHKRvZxwB2v7VJ1EGEywseV/fKMrEEAqK7P68S+dLJW9HpRtOqnzGQbcXQLQZy3uJJZfWAadmflCqjQZJJIiDuDfq2SRLZa67uh2Lr6va+u7+ONQP5lA09MZsWbTGPVaZl7+JVDxnsEgXIqrHoqDv6OzIIJyIHIvp4oVp/aKDYS8eO3CntNHw1HhCRa9CYSyw7HceWCUHzTRQgpdF4P6X0vwWdrOR+nvpJLctnPqwxufuuJPJI6fZ7o/wisF2REgVI7xeIzWQtsfBSIGY8VazZ+3mxLRnZwyncLiBehg3NxqH0KL+td0IbPECgRAHithhKD8FFig47+3fVmp467MvY6NnPeZd2qHPCFisD/PhHbZsoQCq5zEeYyP2KcMgcBFxUsOzvep1QydC/R8B/erWXzY5SvEdhVeM52fLqL59EAVIak55Jmtb2Ri2yFIfBc4tW42A/+VTy+p3M8NSO1U/cqGyZnKnFatPtgpmIQwESU5kIWKcRT/Hb6KyU158kxr4xpd32sOw4BxR7mvPbDhRRAAVIREJvOQwxnVuo1a/xO3zZyLyOBG9KqgDxW3Ef9kPlJxYx7ivUvDV33lKeBL8k7J2KAsTHCe/XdGgAQn9zHEwJ0lR5KLwHUoD4Pet92A8FQBh8WtFqBNpRqTRG35U0LPEhmXSmChCBJUk6IATcVrDsk4JKtDyf/bjDPOh2EEHjR+GnABGocsIBWZXVMlPGrV7zWlCJKvnsWZzALwk3n68CJGj1PfglGRBifLZQs9tqNl3KZ652n355kEpaEwWIwNIkFhDmn5q1xlfalaaS0+9lwtHtxonTXwEiUP1EAkJY0lxrTx1ss0gvslUM/S8M7OnFVlYbBYjAyiQREI3o8InVeihNtsuG/g8A2wuUWHhoBYhAiRMIyA9Myw5tYWHJ0C8OLC/jFCIYgf1DclSAhCRkX2ESBog0jdLKhn4HgM8JLI3n0AoQz1L5N0wSIOw4M4s9zdg3F5WtTZICxP9579kjMYAQvmVW7cs8T0yQ4QpDn9QEHidgB0FD+A6rAPEtmXeHhADyB9OyD/U+K3GWMu4frwARV28kAJA1DvGMrmrjLwJl8BRa1g1OFSCeyhfMSH5A6BzTqv842OzC81oxNrNfy6EFAFLhRQ0nkgIkHB37jCI5INLs5lo2Mo8AdIDAUgQOrQAJLN3gjrICwuDXdUebPr6nvmLwWYi1KOf074LwbbGjBI+uAAmu3aCesgIC4lPNauOWQScg2GC5kT3YAc8WPExb4RUgbck3sLOMgDBwa9GyTxE4bU+hF43BiPdputtba29PDjEZKUAECi8bIAS82KL0DBk6BZaNzDUAnSNQ/lBCK0BCkbHvILIBAuBY07J/I3DKnkIvz+tHOwnZs1AB4qmkwYxkAoTA1xWsxleDzSQ8r+fGb/tBvWEvIKAzvKjiIilAxGmbhBeFnmYf5maW5Vz2ZvchgaeBJTBSgAgsgkxXkDamWTUte2wb/ptcK0bmJAbdGkasqGIoQAQqPRQAIdBjBau+f7syPZ/Ljk+Ts5BAH2o3VpT+ChCBag8FQAD0u72zH+nKhn6X+5DAj48MtgoQgVUYEoAQLjOr9rfakSnJ7X8UIO1UfhDfoQAIgU8rBOys6MqzdGxmj7RD7vYBIwRKLSy0AkSYtBgST7FSTId01uqBl4OU8/rvwZDie5MgpVaABFHNo8+QuIJoKBZW22WPU36XWcXQL2Dg8iC+svgoQARWYigA8nfH3mZKD3xvZf1CLj09RZqnfQwFlqDt0AqQtiXsP8AQAKRlWnY6iERlQ18IYEoQX5l8FCACqzEEAAn0kjDpG3dufkooQBQgAyngu1dWJZ89jJkfEihrpKEVIALlTvoVhIC7C5b9Ga8SlQt4D97R3Ue6k736yG6nABFYoaQDwsQ/LFYbX/cqUTmXuR5EZ3q1T4KdAkRglZIOCEBfM636tV4kKhu6u4zEXU4ypA4FiMByJh4QxpFmzb5/MInKuW1GgZpPAsgNZpu0vytABFYs6YBoGu85cXVj8WASlQ39dgCfH8wuiX9XgAisWtIBaTr2+yf34O8DSVTJZ77ITIF2wRUofWihFSChSbl1oIQDUjctu2MgecrjsgW0+CkA7xUoY6yhFSAC5U84ICtNyx4/ICCG7t6fHCFQwthDK0AEliDJgAz2JWEllz2Xia8WKJ8UoRUgAsuQaEAIdxaq9vF9yVPOZfYG0dMASKB8UoRWgAgsQ5IBYcZVxZp9fj+AzAPRTIHSSRNaASKwFEkGxO162NfWCCVDv4SA7wiUTarQChCB5Ug2IPi0adn3bC5POd9xINj5o0DJpAutABFYkiQDktL4o52rG+7b8d6DZyJdWam7j3Q/LFAy6UIrQASWJMmAgNOjzdraVzbKk5Rm02GXUwEStqKbxUsqIAysLVr2yI1TqeT0I5lwn0CppA2tABFYmqQCAsJys2oXXGmqBnZ4B/ozAAZ8aShQxlhDK0AEyp9YQMDzTKtxoCtNOaf/HIQvCJRJ6tAKEIHlSS4g69uNVozMiQz6pUCJpA+tABFYoqQCQsD3MyntRrvZegZEOwqUSPrQChCBJUoqIEx0NjG7Hd0/JVCeRIRWgAgsU1IBIaKzmfk6gdIkJrQCRGCpkgoIgDqArEBpEhNaASKwVAkGRKAqyQqtABFYLwWIQHEjCq0AESi0AkSguBGFVoAIFFoBIlDciEIrQAQKrQARKG5EoRUgAoVWgAgUN6LQChCBQitABIobUWgFiEChFSACxY0otAJEoNAKEIHiRhRaASJQaAWIQHEjCq0AESi0AkSguBGFVoAIFFoBIlDciEIrQAQKXTIy1xLobIFDqNCCFWDgkqJlXyx4mNDCJ6rVZcnQVxAwIbTZq0CRK0DACwXLTsyei9ID4m5kqb2TPbkFvpCAnSKvqBpQhAI9DL5UTzfuGr8S/xQxQFgxpQWkYnR0O9w6ioiOBDA6rAmrOPIowODXCdqDDDxQtOoPypPZ/2ciHSAr8umPOqz9iIF9ZBRM5SRGAQbP7dD0E8atXvOamBGCRZUKkFJeP4YYNwPYPth0lFfCFfhHi7h7UrXxrCzzkAaQZUb2HA18jSzCqDziUyAFTOq07GXxZSDZT6xlY/SjNA2zZBBE5SCFAmtSwD4yQCLFFaRsZOYC1C1FaVQScihAeNis2ofFnUzsgKhug3GfAvKOT+CTClbjtjgzlAAQ/Sn1xCrOU0DesQl4umDZ+8aZYayALB2TnZDWeEWcAqix5VaAwXsXrcaf48oyVkBKuewhRPxwXJNX48qvQNxrt2IFZFk++xWN+Sfyl0llGJcCBNxasOxTYhw/rqGBUk6fRYSj4stAjZwABWabln1IXHn+H0VbmqL1f7BfAAAAAElFTkSuQmCC;" vertex="1" parent="1">
          <mxGeometry x="661" y="1037.5" width="70" height="70" as="geometry" />
        </mxCell>
        <mxCell id="C0XAzO81hBhKXg0jQggx-20" value="" style="shape=image;verticalLabelPosition=bottom;labelBackgroundColor=#ffffff;verticalAlign=top;aspect=fixed;imageAspect=0;image=data:image/png,iVBORw0KGgoAAAANSUhEUgAAARoAAADICAYAAAA3Mi4qAAAAAXNSR0IArs4c6QAAF6NJREFUeF7tnXuUG/V1x+8daf3E3tVIZrFjgx87a2yDXWObVyHg9ITTAoEmjelJSM+BkrKsFruxQ2j5I7HpHz11SQx4V5K3vNIUGmo3dcorPYHEDo/wiIHaGHu1o7XNo+a1O/ID7LV3NbdHfgHGkuY3euxI8/U/OSe69/eb+7k/ffhJq/kNk0f+6THzCmL5KhFfzEyNItRIRKd55PJwGbVBYD8Rb7Yz8sM9i42NTkpqTKROHxD+NpG9iIhme3xNfsxMH4jQByT208J1v0lHpz7npM5yx3C5Jyg0fijW/S0m+ltivqBQLF4HgZIR0GiWdYuxrdB4ejz1CpEsKBTn2ddFXhaie9NtzT8fymscUtHocXMtEWX/S4F/IFBpAm+OHRmcv+vGKf25JtZjyRXE2vJKX1hZ5hNZb7U1f6MsYzsYdMhEo8fNl4gIuxgHTUJIeQhwxp7Rt3h6V07RJFIPkcgN5Zm98qMyU09fq9FU+ZmJhkQ0ery7j4j1oSgYc4LAcQJsy4V9tza/nHtH0/0kMV9ZY8TesaLGmZWuqeKiCcfMh4Xp+koXivlA4GQCg8NGhPd9d5KVe0djriKhpbVHTn5sRZt/UMm6KioaPdH9FyT8n5UsEHOBwCkJiH2n1TZ9RT46ety8kIie9vhfmtw1mOWbVmvzL9wlq2dVVjTx1LNEcqn6ZSIDBEpK4FdW1HD0kaghbl7DREuZ6PKSXsGQD8bPWdGmL1fqMiomGj2W/Eti7VEHhe0l5vUk8oKdoZSDeISAgCMCwQDvH6C6HXujZ6UdJXwmqKHd9LxoAgG7wSb+ChPdQMRjCtUoTN9JtxqPFIorxesVE00oZsaYKZr/ovlJjbTv90anJktRHMYAAT8SiHTuGi+ZgU4h+lq++lnokb424zuVYFRJ0XzITOPyFLWPNLrIyY+oKgEGc4BAtRMIxc0N+T/yiWVFm8OVqLMiohnTsT1cpwV78xbk4Mu5SgDBHCBQKwRC8e6rmPiJfPUM2IOR/bfO6Ct3zRURTah9+7kcCG7JV4wwfyvd2uTkO5xyM8H4IFATBBoS2ydrEtyZ932XGZydXjzjjXIXXBHRZL9I0wK0IV8xdoYWOr3RrdxQMD4I1AoBPW6KF953EE2trCjUAQKnIADRnAQFOxq8T0Cg9AQgGoim9KsKI4LASQQgGogGbwoQKDsBiKYMotHvMyfSAF1EQheRRhce+V/8A4GqISDPs/DzwvRaQPj1j9qaiv5lPERTYtGEEt23s/DKqllTuFAQKEhAHtUODS7rXTrzvYKhOQIgmhKJpqFjx1msZX5aeze9uV1ayKstAnxA2F6Wbm3udFMXRFMC0dTUUYtuVhFy/EOA+Smrtekq1YIhmiJF05Aw52pCr6mCRzwIVCsBJvvrfdHpv1S5foimSNHo8e4uIp6uAh2xIFD1BAZpkrXEeNdpHRBNEaIJJ1IrReR2p7ARBwK1QoCJ/r0vajg+CheicSmacbGdZ2R40PW38LWy4FCHjwkILbLaDEdH4kI0LkUTiqf+jEmeKrTMhOgxFvv1QnF4HQQ8Q4C1mc6ecyZ3WdFmRzt6iMalaMJx8w4h+sd8iwP3TXnmrYMLUSRw7KSD7PGaE3KlCtHGdNRY6GRoiMalaPR46gkiyf1nPhyg5WT9IcbDBBz8bOOAFTVGOykBonEtGnMPEdXntL2mXZW+ZVrBj1ZOmoQYEBgKAk4OrNICNK+3xSj48w6Ixr1oPHGQz1AsQMzpHwKlEkSpximWfNUdfOUVcMWCRz4I5CQgwnoiZZfie0ivvF8gGqx3EPAaAYjGXUdKeWawVwztjgSyQMABgeWi6Y2pDHY0Dlh9NgSiUQSGcH8TWLQ2oC+cOwjRKC4Dr4rm6K0MdJ5iOUMTzrTZam26bWgmx6wVJbBWAnpvCqJRhe5F0YTiyZuZNFdnfKjWX6p4JlnSF21uL9V4GMejBJZvCOqNEwewo1HsjxdF4+BHUYpVlj+cmf6pr9W4o/wzYYYhJbBcgnpjCqJRbQJEo0rs1PEQTWk4en6Uzk11eqb+MHY0ip2CaBSB5QiHaErD0fOjQDTuWgTRuON2chZEUxqOnh9l+dZheuPwQ9jRKHYKolEEhh1NaYBV6yhrtw7TeyEa5fZ5UTShhHk9Cz2sXMxQJrB2k9U67cGhvATMXQECq83hepD6saNRZO1F0WRLCMXMKDPPUSxnSMKZaGtftAl/2h4S+pWdtGm1OdyCaNShe1U06pUgAwTKT2DyQztH7Ds4eBA7GkXWEI0iMIT7mgBE47L9EI1LcEjzJYGJq94ZeWBE/wHsaBTbD9EoAkO4rwlM6Nw0qj9T/wlEo7gMIBpFYAj3NYEJnbtH9Wc+gWhUVwFEo0oM8X4m0HjX5tEDo0d9jB2N4iqAaBSBIdzXBBp/9v7ogY/3QzSqqwCiUSWGeD8TGBfbelqGh+/HjkZxFXhZNGM6toeHj+S8d8oqlotwRQKHZXTdvu9OshTTajYconHZWi+KJtTZcyYP2k8Q07kuy0JaKQkIvRigQ1d81HZO3o8MpZzSq2NFVnaNsccE9mFHo9ghT4om1n07M69ULAXhZSUgf21Fmx8q6xRVMHjkga4x9iGIRrlVXhRNNZ6wpwy+yhJEqC3dZsSr7LJLfrn6anMsBWkvdjSKaCEaRWA+DYdojjYeonH5BoBoXILzWRpEc7Thoc6ees7Y2WfM5/xnZ2jhnsXGxkJLxCvPQfPtkyrx0anQEq386xANRFPUqvPmjqb7h8T8D0UVhuSSEhDmW9KtTVX1CJySAjg2WMPdOxu04YNp7GgU6XpRNKHOnks4Yz+nWArCy0fgIIvM62tr3l6+Kapj5Pr4llCARub9XRE+Op2il14UTfYy6+/bNUXLZGaQPSjVsQRr9SoDFMgMbu5dfPbuWq1Qpa76+FuhAB2GaFSgZWO9KhrVOhAPApUgMHbVVj04YngfPjop0oZoFIEh3NcExt7/jh483A/RqK4CiEaVGOL9TCB7/12dFuzFjkZxFUA0isAQ7msCEI3L9kM0LsEhzZcExnQmI3UZ7SPsaBTbD9EoAkO4rwlANC7bD9G4BIc0XxI4bbU5bliQPsSORrH9EI0iMIT7msAZD5rjDvdDNMqLwKuiCcWTlxLxLOWCkFA1BDSSgyP7R619d9mkvE9+9FJBjYnU6QMiH2BHo9gVL4om1JG8kjXtScVSEF6VBOR5K9p8abVcOkTjslNeFI2eMJeT0AqXJSGtygjYhz4O7Vk6N+/RC14p6fR7djQODsu8jx2NYkc8KZpYcgWxtlyxFIRXKYERgdGjd7dMyPuYWa+Udvp9OxoHByAa5X5ANMrIkFBiAtUkmnGxnWdkePA97GgUFwFEowgM4SUnUE2iidy9bbw9vC7vnew4JuIUSwSiKfn7BgMqEqgq0XTuGm9nBiAaxR578pgIPWYuJaZVqrUgvioJDFgfvDuK7lw4WA1XH2nvmmAHAv+Hj06K3fLijuboQ7qC/0EkFyiWg/CqIiD9xNoqq7XpJ9Vy2RCNy055UTQuS0EaCJSdQDiR/JKI9i52NIqoIRpFYAj3NQGIxmX7IRqX4JDmSwL6anMiBekd7GgU2w/RKAJDuK8J6PeZE2kAolFeBBCNMjIk+JiAHktNIpa3saNRXAQQjSIwhPuaAETjsv0QjUtwSPMlgVBnz5mcsd/Cjkax/RCNIjCE+5oAROOy/RCNS3BI8yWBho4dZ2laZhd2NIrt96Jojvwy+DT+vrB2mWI5vg1nsX8nWnBTunXaE76FUIHCGxLbJ2sS3AnRKML2omicXJNimb4IF6KN6aix0BfFDlGRDYmdkzUZhGhU+Tt5U1f6tncdB1+ptvFEvBU12HUyEgsSqG/vmhIIBHZgR1MQ1ecDIBpFYB4Ph2jK2yCIxiVfiMYlOI+mQTTlbUx9PDk1QFoPdjSKnCEaRWAeD4doytsgiMYlX4jGJTiPpkE05W1M/WpzWiBIKexoFDl7UTSReGqeTbJJsRSEE62zosZ1AFE+AvWd5rRABqJRJuxF0WSLOHJdmn25ckE+Tcj+hiagBV7tbZmc94R+n+IpWdnjYqmmDIuJHY0iUq+KRrEMhINARQhANC4xQzQuwSHNlwTGrekxMrbdjR2NYvshGkVgCPc1AYjGZfshGpfgkOZLApGOnmZbs5PY0Si2H6JRBIZwXxOIxLum2xTogmgUlwFEowgM4b4mEInvmG5TBqJRXQUQjSoxxPuZQLg9ebYEtO3Y0SiuAohGERjCfU0g3Jk8WzIQjfIigGiUkSHBxwTCse4ZwrwNOxrFReBF0UQ6d423MwP3EtEixXIQXmECQvRvTPS4FTXWVXjqIZkOonGJ3YuiCSV6rmaxH3dZEtIqTYD5p1Zr042VnnYo5tPXmDPJpjexo1Gk70XR4IQ9xSYOcbifjhCFaFwuNojGJTiknSDgK9F0mLNIo63Y0Si+ASAaRWAI/wIBiObzSCp9xnaxS7Iih0xDNMW2Cfl+Ek0okTqHRd7AjkZx3XtRNOFY9w3C/JBiKQgfIgJC/Mt0tOnrQzR9RaeFaFzi9qJojt249l9ENMtlWUirHIFuEbo33WbEKzfl0M0Uau85lwP2FuxoFHvgRdEcLyF7bYrlILzCBPb0Hvo93XnO4QpPO2TThTp7zuUMRKPcAC+LRrkYJIBAmQmE4jtmM2U2Y0ejCBqiUQSGcF8TaFidnKMFtf+FaBSXAUSjCAzhvibQsCY5R7MhGuVFANEoI0OCjwk0xLr/SGN+HTsaxUUA0SgCQ7ivCUA0LtsP0bgEhzRfEmhImHM1odewo1FsP0SjCAzhviYA0bhsP0TjEhzSfEkg0mGeZ2v0KnY0iu33qmiyn4WZAjOIMkoVBUh7v7etaYNSEoJBwCGBSKd5np2BaBzi+jTMi6IJr+n5E7HtZ5SLOZYgRH+fjhor3eYjDwRyEYjEU/Nskk3Y0SiuES+KRo+bPyKiOxVL+TSc6Wmr1bjCdT4SQSAHAYjG5dLwpGhiyRXE2nKXJRFBNK7RITE/gcianvm2bf8BOxrFlQLRKAJDuK8JQDQu2w/RuASHNF8SCMd6Fgjbr2BHo9h+iEYRGMJ9TSC8Onm+BLWXIRrFZeBN0XTfRsx3KZbyabjIequt+Ruu85EIAjkIhBPJ80UgGuUF4kXRnPGgOe5wP60noguVCyJ5i0la+qLTXf95XH1OZPiFQLij+wLR+CXsaBQ77kXRnCihc1MdtcwfUCwJ4SBQNgIQjUu0nhaNy5qQBgLlIqDHzewu+0XsaBQJQzSKwBDuawIQjcv2QzQuwSHNlwT0DvMi0uj32NEoth+iUQSGcF8T0NeYF5EN0SgvAohGGRkSfExAj6UuJpYXsKNRXAQQjSIwhPuaAETjsv0QjUtwSPMlgVAi9ccs8jx2NIrth2gUgSHc1wQgGpfth2hcgkOaLwmEYj2XMNvPYUej2H6IRhEYwn1NIBRPXsqkPQvRKC4DiEYRGMJ9TQCicdl+iMYlOKT5kkBDR/eXNY1/hx2NYvshGkVgCPc1gYY13V/WbIhGeRFANMrIkOBjAg1x8zKNaCN2NIqLAKJRBIZwXxOAaFy2H6JxCQ5pviRQi+8XrkQnSwkuFDc3MNHlOa+baZnVatxdibowBwiUg0Ao1n07M+d9OKE1SCNoiXGo0Px63JRSfAQrNE+h16tONLqD5zFZUaMidRWCi9dBwA2BQnIgphetVuNiJ2MXGsvO0MI9i4283wc5madQTEXekCXd0SR6rmaxHy9UmIj8ndic95EVhcbA6yBQSQJakOaS0KqCcwrdbbUZywrGERFEcxIlp2aNdO4ab2cGdjuBjBgQqFEC11lRY52T2iAal6LJpulxM/sdzPecgEYMCNQYgV9YUeObTmuCaIoQzVHZpHYTyXinwBEHAjVBYJBmWUuMbU5rgWiKFo25iIjWOgWOOBCoAQJLrahxj0odEE2RosmmhxPm4yJ0tQp4xIJAtRJw89dUiKYEojkim3jyz4W07BMn8Q8EapKAED2WjhrXuikOoimRaI58X7PanMhBWilE33bTDOSAgDcJSJKY/9lqNR50e30QTQlFc3yo8BrzWrJppk00g5lnkMhMIhrltknIA4GKEmB6g4XeIOLtImQOBDO/2d8yvbeYa4BoyiCaYhqCXBCoRQIQDURTi+saNXmMAEQD0XhsSeJyapEARAPR1OK6Rk0eIwDRQDQeW5K4nFokANFANLW4rlGTxwhUtWiOHPsQ1MJCmYhmU0RI6vLzDZwlLJPzxbDwLqLMWx7rEy4HBKqagLB2WSned0yBXlujXs7YfWNH1z2368Yp/SpgHJ9HE+pIXskcuIY0uoYENzOqQEYsCNQggXVC8tu6w8H1H35v6geF6isomlCi52pN7JuF6GuFBsPrIAACfiOQ/SQi7VZgbzu1zB/IVX1O0UQe6BpjHw48SEKOz77wG2LUCwIgcJSAML1GGVmevrX5iVMxOaVoGjq2naVpw35NJM0ACQIgAAJOCTDRrX1RI3Zy/BdE4+R8X6eTIg4EQMCHBE7xJJLPiQaS8eGiQMkgUB4CnzvX+IRoQvGu2UyBp4joS+WZF6OCAAj4jMAJ2ZwQjR7v7iTimx2DEFlPJFtE6BWqC76Qbpm213EuAkEABKqGQOSBtyfIwKEFtsgCFl5ARFc4uXghejUdNeZnY4+IJhJPzbNJNjlMTmnMLX2tTb91Eo8YEACB2iLg5CGOxysW4pZ0tOlfjojG6W5GSNrT0eYltYUN1YAACKgSGNOZjNRltGeIaE6+3OO7Gp780M4Rew8Mvs1M4/JPJlusaHPeQVUvFvEgAALVTaDQvVTZ6oT4StZjqT8lll8VKpcDwRl9LVO6CsXhdRAAAf8QCK3puZJt+8n8uxpp51DMjDFTNC8a4R9YbU0/9g8+VAoCIOCUgB437yeim3LFC1GK9bj5MhGdn29Q2x6YvOfWmbiz2il5xIGAjwiEE+ZfidDP8pWcFU0PEU3NE9RtRY3pPuKGUkEABBQIROI7ptuUyfu1SlY0e4ioPue4Ij+32prxvCQF8AgFAb8R0GPm+8TUmKvurGgOE1Hug6uEfmK1Gbf5DRzqBQEQcE4gHDdfE6K5uUWTSO3Od5CVEG1MR42FzqdEJAiAgJ8ITOjcNKo/U/9Joe9o3iCic/IE7bdmNOm0kAf9BA+1ggAIOCOgd3R/lTT+dV7RhOLmBia6PO+QGl1s3WK86GxaRIEACPiJgB5L3UYsd+Xf0cTMm4gp+3fw3P+YnrVajbyHHPsJLGoFARA4SiB7w6V96NAfiGhCLiZC9BiH7uk5k4fZDn4jw/9qRZtuAGAQAAEQOE4gHDcfK3ieONNNR26qdBR87J6FdLSp4O0KaAMIgEDtE3B4F/fugYA954hosk86YLEfd4Imewe3jKz70Z4bp2R/f4N/IAACPiOQffSSFtBWi9C0gqWLfafVNn3FiYOvnO5qsgMfuXdBuJPE3jyibt8Lu1vmHyg4IQJAAASqlkBjInX6YbEXsMgCYm25w0J2a4G6+b0tk9/79ChPhV3NyZMw0es2kedO2GPmzSTyqBU1XnIIxnHY2Pvf0YOHD95BxLOEaKTjRASCQJUR4KNf9Ko/EeXYbiZb7ucOJw8lUrezyMoq41Docj/WiK7vjRqPFQp0+noovmM2U2az03jEgYDvCHxGMl8QTfb/cPgFT7Vxe8GKGpeU6qJDcXMTE80r1XgYBwRqjMA6K2pc99maTvkAOd3Jb2uqjYxGs6xbjG3FXraTO1WLnQP5IFCtBHLdspTzkbh63FxERGurteCTr1soMycdPXtLsfXoa8yZZNObxY6DfBCoQQL3W1Hjb05VV07RZIOzf/bWxL654A9yPE4s+1ey0f0jZr+7bNLBYi81e8byvoOD3UQ0qdixkA8CNUJguzC1p1uNRK568ormeFK1Cyd7OHIpf2iIJ3rWyNsDZRRHgKmLbX5YMtJuLTH25RvMkWiOD1AfT04NiHatMF3DRBFiDpNIJO95NsWVUlQ2Cz0iTP9tRY11RQ10iuRjH6HuI6LZRHRaqcfHeCDgMQK9RNJHxL0k9jPE2v+o/Gzk/wGdaFdrIsZ0sgAAAABJRU5ErkJggg==;" vertex="1" parent="1">
          <mxGeometry x="656.52" y="873.5" width="78.96" height="56" as="geometry" />
        </mxCell>
        <mxCell id="C0XAzO81hBhKXg0jQggx-22" value="" style="shape=image;verticalLabelPosition=bottom;labelBackgroundColor=#ffffff;verticalAlign=top;aspect=fixed;imageAspect=0;image=data:image/png,iVBORw0KGgoAAAANSUhEUgAAAMgAAADICAYAAACtWK6eAAAAAXNSR0IArs4c6QAAHiZJREFUeF7tnXt0XNV977/fffQ02JZmjC0MXMe2xg9KE4c8GrAJr/aalIeblGLayyIlbWJ7xjgkC9pVsniFtskqqSjGGtkhKS23SZFv+IOI1HaSAqmNcUpDSGrIyCNZ+EJ8ZawZWXGi99m/u/bIMsLWY+bMe2aftWbpaLR/r88+X50zc/bZm7BbWgR8W6Nz3NpKf8Xw0DyB4xeIXynxi9AvgJ+gHxQ/BLMAVoFSBS3VoNlHFQRVifch1YDZT2zDAIcAGQYxDDEvGYbiEITDp97vh0hMyB5qHSOcHq3QQ1fHtMMepdlTU3EidnTDh/vTKrDMjVnm9c9Y/nnNB88drahdrEb0ElFqscBdosjFIlgCJF41MzrJZwPBCRJdAnYB8iaFXZrsotJdNex70wpo+s6xAjnF57zmjsYRysUEVhJcCdErQC4GMD+fx3fWYxPHIOgCGRHRb0A5r4sMv3Fi08o3sx67CAKUnUDmbo0udaqcD0K7F8MIgbISgosBVBZBf+Uyxd8A8gaoXh8XzihH//PkhuU9uUwi37FKXiC+cPRjEK4GcTlgXtKQb+hFHv8QgJcA7IfC/vjGwBtFXs+06ZeUQOZ9MzIbQ87VIrJaEoKgEYUq5Q7Me22CEyBfImS/62L/iTsDL+Y9pwwmUPQC8bdErtHiXEvI7wL8aAbZWFfeCAwKuBvQe6i5N7458Lo3N4VhVXQCqdve/gFHeKUIrgTMi/7CQGmzmJQAESHwvKbaB+Kl3g1L/28xkSoKgczb9otlrnLWEVwHYHUxAba5vpcAgTYh2xzttB0PLe4udD4FK5C6J7vqnAF3nQjWgWKEYT9LFPrRlFp+vyLRJpptNRWz2o5uWFiQNzQLTiD129p/n4rrIFwHYkFqzG3roiRAvE1BmwbbeoONuwqphoIQyHnNBxtcVK0HeSuAjxUSIJtLzgkcgMjTDoZbj4cuyfslWF4FUt/cuQbUtxJYD2BezrvCBixkAj0CtELU072hpfvylWheBOILH7oDoBHF2nwVbuMWFYE9gLTGg8uezHXWORVIfbjjc4B8jsCHcl2ojVcSBH5MsCUWbPznXFWTE4FYYeSqO8sjDoEfibAlHmpszXbFWRWIFUa2u6/s/e+hRktsc+DZbJHIikD829qvhVL3SeJOt90sgewSEOCpCuHDx0ONHZmOlFGBvO/Jrpq+gdH7CfxVphO1/iyBGQj8UsAv9wYbv55JUhkTSH2483rCvd8OGMxk91hfKRMgdgr4cO+mxoMp205ikLZALmx6q7a/dvBvIPhCJhKyPiyBDBCIQeTheGjZY+n6Sksg9eHI+wHnMQJXpZuItbcEMk1AgP9dWenc885nlxzz6tuzQPzNhz4l5DNeA1s7SyA3BOTnEN4TDwW+7yWeJ4H4WqJN9pLKC25rkzcCCZE0fi3V+CkLxNfS0Q0RO8o2VdK2fd4JmEuu3mDg9lQSSUkgvnBHLyB1qQSwbS2BQiJgHtiKBQM3JZtT0gKpD0ejBBqTdWzbWQIFTOD5eDBwbTL5JSUQX3N0P4jLknFo21gCRULgQDwYmPGYnlEg9eHoswSSPiUVCRybpiVgCOyPBwPTznEwrUDqm6PNJIKWpSVQqgREEO4NBUJT1TelQOrDh+4h+HelCsbWZQmMExDitt5NgW9NRmRSgfjC0T8CsNMitATKhoBg7WQ3E88SiL+58yMa+nskzisbOLbQsicgguOisPbEpsBPJ8I4SyC+cNRMu3Jd2ROzAMqRwO54MPCJKQXib+64XSg5e963HHvA1lzYBCj8dCzU+NR4lu+eQR44WFXfUP0yBZcWdgk2O0sgewSEeLW3e+gyPHTJsIlyWiC+5o67QXkke6GtZ0ugSAhMGNiYEMjc8JF6h8M/h+DCIinBpmkJZI8A8faIO7rq5OaVsYRAfM0d60F5OnsRrWdLoLgIUOSOWGjZP40JpCX6TQg+U1wl2GwtgawSeCYeDNxMPHCwytdQ0weRwl7OOKssrHNL4CwCw/FRzKF/e+enRGv76Kw9QiyBMwkIb6UvHP17AF+0dCwBS+AsAk1GIObDuZlp3W6WgCXwXgKt9DUf2gtyjSVjCVgCZxAQ2WfOIJ0Allg4loAlcBaBw/SHo4MCVFs4loAl8F4CBIbMGUQsGEvAEpicgBWIPTIsgWkIWIHYw8MSsAKxx4Al4I2APYN442atyoSAFUiZdLQt0xsBKxBv3KxVmRCwAimTjrZleiNgBeKNm7UqEwJWIGXS0bZMbwSsQLxxs1ZlQsAKpEw62pbpjYAViDdu1qpMCFiBlElH2zK9EbAC8cbNWpUJASuQMuloW6Y3AlYg3rhZqzIhYAVSJh1ty/RGwArEGzdrVSYErEDKpKNtmd4IWIF442atyoSAFUiZdLQt0xuBlAUiwHcJ3OQtnLWyBPJHQIhnKViXSgYpCwSiHxKoQRJfSSWQbWsJ5I0AMQzNLwHuuaB6IJU8PAkkHlr+YN32Qx9XWn0NkI+kEtC2tQRySUCAFwjcGw8GDvia2x/MmUBMkRfufKu2//jQV0HZksuibSxLICkC5MPxTY33j7fNuUDGA9eHo7cR+CqAC5JK3DayBLJKQF4BeV98U2DPxDB5E4hJYl748HJN/RWIfDKrtVvnlsB0BIhHK8+Zfd+x2xt+c2azvArk9Nlke+cfU7t3Afyo7UlLIFcECLSRaOrZFHhxqpgFIZBEciL0hTvuAvl5QBblCpKNU4YEiJ+RbIptbHxqpuoLRyCnMp23443zxa38vAbuol1iYab+s39PiQB7CTRVO7Oajm5Y2J+MacEJZDzpuuauVYoj5rLr08kUYttYAtMSIJ+gcppiGxZHUiFVsAIZL8LX3HEdlPwZBDenUphtawkkCBDfgXaeiIeWfN8LkYIXyOkP8uHD7wfc9QpYL8BSL8Vam/IgQKBTA62A09obXPLzdKouGoGMF/m+J7tqTg646wViVtn9RDrFW9uSI7CLYOvsWqf1zTsWD2aiuqITyMSifdujl0FkPYRGLA2ZAGJ9FB2BblBaQbbGNwZeznT2RS2QcRizt/3CX8GK9YRcD6q1gDiZBmX9FRIBuhC9R8Dvjcpo68nNK2PZyq4kBDIRztzHI4sVnetArCWxFkBNtuBZvzklMCiCPRDs0eLu7rtzRVcuoudGIMRJEd7dG2z8ei6KGo/h2xq9EE5CJAnBAJidy/g2VtoEThpBANgNF3viWwJvp+0xBQf+lo4tIvK3AM5JwQypD3c/5Z3Aj1wXD564c+pb+6kkkkrb+f9weIFbqdcK9HUgjVh8qdjbtjkjEIfIHkLtdkbUnnfuWnIsZ5FPBapv6byB4t4P0NNjGZ4FMl6oCMK6Ak19GwKduS7exKvf0TkXI6Or4TiXQ2Q1gdUAKvORS9nHNA8mCV6A6ANQ6mWM4OX4lsCv8sHFv6NrhWj3LyHyp+nET1sgJrgIjivFx7Titt4NS/vSSShd27pHu+qc6uGrhOrjkIRY7KDJdKFOa8+9EPf5fAtiPEXzD1Np2SwiXwDgT7f0jAjkdBJEhIJtsWCgOd3EMmV/WjBQVwK4CsCqTPkuRz9CvEqR5yHq3+HK/nydISZj7w9HQ0JshmBFpvomswJ5N6sDAnm8N7js25lKNFN+Fu44OmvY7V/pQlYCWElwBU7tZypGCfgZARGBmBcjQh1xNCNVledEkh0YmEsG9eFDf0LwTgAfy3TcbAlkPM9dUM4/xjcu+U6mE8+GP3/zoYRoQCMarNQJAcG8Nysb8QrAZw8gEYARkBERHdEOI/n6PJkqD9/2wzdDu5/J5iiMbAtkrGbyvynYSc2dPZuXHkoVRL7bz/nGQV/FaHUDhQ1adAPBBoANQmlg4q4/GyD6fIDz8p0rAA2RbqH6fwS6AbPPbgV0C6VbXNVdAekGBruPhy75dQHkm1IK87Z1LhMltwhxC0R+OyVjD41zI5B3ExsxQnGJnSeCge96yLewTR54ocLnv7BB0W0Qp7JOK11LV88iWKsVaymopZh9nfhJoFbIWiTel1lCqU38PwH7BRiAyACJARH2gzJAcECg+oUyoDQGzE/zu6IMaBntqWJF97FNje8UNiRv2dWFozc5gjFh5PBbylwL5DQdAX4CkZ26gs8UyyndW9daK68E5u6ILlWj8ocgbyHwIa9+0rHLm0AmJO0K2EaR5yoV20r1P2A6nVROtgtaOuaPaLlRyBsIuRFAXsfiFYJAJvb/CQGeI9FWo/qeO7rhw0k9SllOB1Ap1rpwx3/NGtRzbxDBjQRuAFBXKHUWmkAmcnmLwHMabDtnsPrFt7940UChQLN5pE/APAvUN+BerSA3ypgoLkrfa+Y9FLJAJlbbI8A+AnsF7g97gyvSerIs8xitx2QI+B9vX6EdXsXETVu5BsD8ZOzy2aZYBHImI/NV8X9QZFftUO0ue3bJ5yE0dezEWWJIX0Otfw+Aef1WYWY6dVbFKpD3VCTAi4Tsg1Tsramo2VeId3uL7cDwkq8ZpTA4OrgGHL1CwDUcG9pT1FtJCOTMHhDBq1TcCy37Kqqcve98NvfDrIv6qEgy+flPHF4wOuxeAcU1ouUKEpcmaVo0zUpSIJPQjwKyj6JeFdHtoIrEQ41vFU0vFUCivuaOiyB6BamWC/WlANcACBRAallNoVwEMglE9hPSLpB2iLSLciJmf5bqay/Xr5fN1639eu5ygsup3RUgE/sCLgekVMejTSuwMhbINFwEx0A5Aqo3IThCyBFtflfOEQ7pI4U0xDuVf5++rdE5Uq0WQbuLlHCRgItALILo90ES+wtS8VcOba1AvPVyL4AjAMyAwJiIxEHGzL4WiROMKTI24o7GHXFi2RLUnG+85aseGvJp0X6tlA8UnxL6RFy/kGP7TDyOfD4AM4l4vbdyy9cqLwIh8FMhf0aRqIb6maL26cRDLryYkD8owe4QAYYJDAMyjMRPnvo59r75+6n3zDOaVQSqZOxVbfaReEkVwFP7iffslmUCuReI6IdqKk7+3VTX+b5w9M8BbAWQGNlqN0sgnwRyKxDiujOXxZqqeF9LdD8El+UTjo1tCeRMIBR8KxYK3JYs8sQANnfuWctoJWtv21kCmSCQK4H8OB4MpPy8cH1Lx60U+ddMFGp9WAJeCOREICII9YYCYS8J+sJRMwOfXT3XCzxrkzaBnAhEu7ja6wyM9eGoWQi+6Mf0pN1T1kFeCOREIMOjmP/rLYHjXir0hw+1CLjRi621sQTSJWAFki5Ba1/SBHIiEHuJVdLHUEkXlxOB2A/pJX0MlXRxOREIAPs1b0kfRqVbXK4EAnujsHQPolKuLGcCSUC0Q01K+VgqydpyKxCD0A5WLMkDqVSLyr1AEieSshvuXqrHT8nXlbJABPgugZtKnowtsOQICPEsBetSKSxlgZhLJIEaJPGVVALZtpZA3giYtRM1vwS454LqgVTy8CSQeGj5g3XbD31cafU1QDytHppKkratJeCVgABmLN+98WDgQG7WSRf9kBGISfjCnW/V9h8f+iooW7wWYO0sgawRIB+Ob2q8f9x/zgUyHrg+HL2NwFftsPSsdbV1nBIBeQXkfWc+vZo3gZjc54UPL9fUX4HIJ1OqxTa2BDJJgHi08pzZ9x27veGsp1HzKpDTZ5PtnX9M7d4F0K5PnsmOt76mJUCgjURTz6bAi1M1LAiBJJIToS/ccRfIzwNi5mOymyWQHQLEz0g2xTY2PjVTgMIRyKlM5+1443xxKz+vgbsIVM9UgP27JZA8AfYSaKp2ZjUlO5t/wQlkvNi65q5ViiPmsuvTyQOwLS2BKQiQT1A5TbENiyOpMCpYgYwX4WvuuA5K/gyCm1MpzLa1BBIEiO9AO0/EQ0u+74VIwQvk9Af58OH3A+56BawXYKmXYq1NeRAg0KmBVsBp7Q0uSWvpvaIRyHjXmiW6Tg646wWyHsAnyqPLbZVJEthFsHV2rdP65h2LB5O0mbZZ0QlkYjW+7dHLILIeQiOWhkwAsT6KjkA3KK0gW+MbAy9nOvuiFsg4jNnbfuGvYMV6Qq4H1VpA8rqQfKY7yfo7kwBdiN4j4PdGZbT15OaVsWwxKgmBTIQz9/HIYkXnOhBrSawFUJMteNZvTgkMimAPBHu0uLv77lzRlYvouREIcVKEd/cGG7+ei6LGY/i2Ri+EkxBJQjAAZucyvo2VNoGTRhAAdsPFnviWgJlSNmebv6Vji4j8LYBzUgma+nD3U94J/Mh18aDXKUVTSfLMtvP/4fACt1KvFejrQBqxmFWU7FZ4BOIQ2UOo3c6I2vPOXblfbbi+pfMGins/QE+PZXgWyHhfiCCsK9DUtyHQmY/+qd/RORcjo6vhOJdDZDWB1QAq85FL2cc0DyYJXoDoA1DqZYzg5WwtPzcTa/+OrhWi3b+EyJ/O1Ha6v6ctEONcBMeV4mNacVvvhqV96SSUrm3do111TvXwVUL1cUhCLHbQZLpQp7XnXoj7fL4FMZ6i+YeptGwWkS8A8KdbekYEcjoJIkLBtlgw0JxuYpmyPy0YqCsxNkv8qkz5Lkc/QrxKkech6t/hyv58nSEmY+8PR0NCbEZivcvMbJkVyLs5HRDI473BZd/OTJqZ87Jwx9FZw27/SheyEsBKgitwaj9zUYre0wiICMS8GBHqiKMZqao8J5LswMBcEqgPH/oTgncCSHmRppnyzJZAxuPugnL+Mb5xyXdmSqQQ/u5vPpQQDWhEg5U6ISCY92YVQn5ZyKEHkAjACMiIiI5oh5F8fZ5MtT7f9sM3Q7ufyeYojGwLZKxm8r8p2EnNnT2blx5KFUS+28/5xkFfxWh1A4UNWnQDwQaADUJpYOKuPxsg+nyA8/KdKwANkW6hMmu4dwNmn90K6BZKt7iquwLSDQx2Hw9d8usCyDelFOZt61wmSm4R4haI/HZKxh4a50Yg7yY2YoTiEjtPBAPf9ZBvYZs88EKFz39hg6LbIE5lnVa6lq6eRbBWK9ZSUEsx+zrxk0CtkLVIvC+zhJJY+ppgvwADEBkgMSDCflAGCA4IVL9QBpTGgPlpfleUAS2jPVWs6D62qfGdwobkLbu6cPQmRzAmjBx+S5lrgZymI8BPILJTV/CZYjmle+taa+WVwNwd0aVqVP4Q5C0EPuTVTzp2eRPIhKRdAdso8lylYlup/gdMp5PKyXZBS8f8ES03CnkDITcCyOtYvEIQyMT+PyHAcyTaalTfc0c3fLi/nA6Ocq114Y7/mjWo594gghsJ3ACgrlBYFJpAJnJ5i8BzGmw7Z7D6xbe/eNFAoUCzeaRPwDwL1DfgXq0gN8qYKC5K32vmPRSyQCZW2yPAPgJ7Be4Pe4Mr0nqyLPMYrcdkCPgfb1+hHV7FxE1buQbA/GTs8tmmWARyJiPzVfF/UGRX7VDtLnt2yechNHXsxFliSF9DrX8PgHn9VmFmOnVW9Iejg1LkU/II8CIh+yAVe2sqavYV4t3eYjswvORrRikMjg6uAUevEHANx4b2FO1GYMicQcwo3CVFW8UkiYvgVSruhZZ9FVXO3nc+m/th1qXEc6pa5j9xeMHosHsFFNeIlitIXFpidR+mr/nQXpBrSqywM8uJArKPol4V0e2gisRDjW+VeM0ZLc/X3HERRK8g1XKhvhRIHDOBjAYpNGci+8wZ5GkAZqKEMtvYT0i7QNoh0i7KiZj9WaqvvVy/XjZft/brucsJLqd2V4BM7Au4HJBSHY823XHfagTy9wC+WGbqmL5cwTFQjoDqTQiOEHJEm9+Vc4RD+kghDfFOpd98W6NzpFotgnYXKeEiAReBWATR74Mk9hek4q8M2jbRv73zU6L1M2VQbCZL7AVwBIAZEBgTkTjImNnXInGCMUXGRtzRuCNOLFuCmvONt3zVQ0M+LdqvlfKB4lNCn4jrF3Jsn4nHkc8HYCYRr88khJL3JbyVeOBgla+hpg8iOZ4xhK+Q8grAH0LjAqFeDdA8AViQN4zSPBhEgGECw4AMI/GTp36OvW/+fuo984xmFYEqGXtVm30kXlIF8NR+4j27ZY/AcHwUc2j8+1qi34TAjKvP+kbg2wSbeoKNP5ksWH1Lx19T5EtZT8QGsASmJ/BMPBi4eUwgzR3rQTEf1rO6CeSG3uCy7yUTxNcS3Q/BZcm0tW0sgUwToMgdsdCyf0oIZG74SL3D4Z9DcGGmA437o+BbsVDgtmT9JwawuXPPWkYrWXvbzhLwTIB4e8QdXWVmeUwI5NRZ5G5QHvHsdHrDH8eDgZSfF65v6biVIv+apZysW0tgcgLCe+Khxq+ZP54WiPmwXt9Q/TIl83dDKbwzFmrc5qU/fOHoLwEs9GJrbSyBVAmYWVt6u4cuw0OXmC9RJgjETCLU3HG7UP45VaczttfyP+Obl/1gxnaTNPCFO/YCUup3+r2gsTZZIEDhp2Ohd9c7fPcMMn6pFY7uSsx/m8lN+D+8Du3wtXQ8me7seJksxfoqaQK748HAe9apOUsg9c3ta0hl/ttn7L5I5W/6zz12zwc8feD2hQ89AvDuku4WW1whEDAzgl4XDwYOTEzmLIEkPrCHo3cBeDRTWVPUR2Ohpa948ecLR/8tm/MeecnJ2pQiAflMPLjsyTMrm1QgppG/OfovQvyvTKAY/07Zi6/6cDRKoNGLrbWxBJIjII/Eg8v+YrK2UwokMbyZ+gdIjORMb0v1Hsh4tPqWjtUU2ZdedGttCUxNgEBbLBi4aaoWUwokcRbZ1v5JUc7/ycgyaKIfioeWP5hKZ9m76anQsm09EHjdEf7B8VBjhyeBGKP68KHrCZpJqOd4SOA9JvFgYFpBTmzsa442gTBT2NvNEsgGgdehcEt8Y+CN6ZwndcDOa+64WhPfAsQMm05rE3DDdMu3+cLRPwL414AsSyuQNbYEpiaQlDiMeVICSVxu7ej6He2O/ksmPjCbaUcpfAnAfpeV31cYuEjBMQ/6X4GxNdPtZglki0DS4khJIGOXW5H3E04LgMuzlb31awlkjYD5wsfhhpkuqybGT/oMMm50XvPBczWrHhFwY9YKsY4tgcwTaIqP4l5sCQyl4jplgYw7rw93biS0Gf17bioBbVtLIMcEDkN4bzzU2OolrmeBmGC+5o7LTw2Rt5dcXuhbm2wTaHWh7+0LLj/sNVBaAjFBzSWXq6q/DLFfyXrtBGuXcQIxiDwcDy17LF3PaQtkwiXX9URiwXa77HK6vWLtvRMgdgr4cO+mxoPenbxrmTGBGJdjU9qP3k/grzKRnPVhCaRA4JcCfnm6e2wp+DrdNKMCGffq39Z+LZS6TwCzNrndLIGsEhDgqQrhw9MNGfGaQFYE8u5lV8fnAPlcvtaX8wrF2hUNgT3UaIltDjybrYyzKhArlGx1W3n7JfAjEbZ4/eo2FXo5EYgVSipdYttOQ+DHBFtiwcbMz5swRdCcCmQ8B1/40B0AzZirtfZwsASSILAHkNbJnvhLwjatJnkRyOkzSnPnGlDfyrHlF+alVYk1LjUCZl3KVoh6uje0NG8PzeVVIOM9el7zwQYXVetB3gog5QnmSu3IKPN6DkDkaQfDrcdDl3Tnm0VBCGQihPpt7b9PxXUQrrPrVeT78MhRfOJtCtrMkt+9wUYz7VTBbAUnkHEydU921TkD7joRrANlHQBVMNRsIpkg8CsSbaLZVlMxq61QF14tWIFM7IF5236xzFXOOoJGKGYNEbsVKQEzSYKQbY522o6HFuf9EmomjEUhkIlF1G1v/4AjvFIkcZf+SoD+mYq0f88rgS5AfiDgXtEje09svtiszFU0W9EJ5Eyy/pbINVqcawn5XTtQsmCOu+dB/psSvDjVQkkFk+kMiRS9QN5zKfbNyGwMOVeLyGqheSyY5jkV+9klu0ejBmQ/BftJvlTlnPPDQv084QVDSQlkMgC+cPRjEK5GQjDmJQ1eQFmbcQI0nxvM6l/7QXnpzLlsS41TyQvkzA6buzW6VFXqjyhRqwRYBeCDAOaXWsdmqJ53APyUwGua+jU9ol7p2xLozJDvonBTdgKZrFfmPR5Z6FZWrlJarxKRDwq5KhPTGxXFEXAqSQE6KPIayZ9qpV5zRkZe67lzxdFiqiEbuVqBTEV1a7R6boW+QDkVCzkqF4ByAYCxl5jfuZDABWaZ5mx0TAZ9ngTkqIBHFfBLkEdF66OJn+RRPTp6tE+co6nO9pHB/AralRVImt3j2xqd49ZW+iuGh+YJHL9A/EqJX4R+Afw0X0NT/BDMSqxxTqmClmrQ7KMKYtY7N2ufixHa+NrnZs30ocSa6sQwxLxkGIpDELO+euL9fojEhOyh1jHC6dEKPXR1TDvsUZo9NRUnYkc3fLg/zRLL2vz/A0gqBKNRNBapAAAAAElFTkSuQmCC;" vertex="1" parent="1">
          <mxGeometry x="115.5" y="870" width="37" height="37" as="geometry" />
        </mxCell>
        <mxCell id="C0XAzO81hBhKXg0jQggx-23" value="" style="shape=image;verticalLabelPosition=bottom;labelBackgroundColor=#ffffff;verticalAlign=top;aspect=fixed;imageAspect=0;image=data:image/png,iVBORw0KGgoAAAANSUhEUgAAAMgAAADICAYAAACtWK6eAAAAAXNSR0IArs4c6QAAFkVJREFUeF7tXQuUG9V5/v7RLsaAjTVacDDYPKxZm3cCTkzLI4HwSIgJBCgUShJoHrZGa7c8XdK0QHpCCkl5eFcjTCCk+ARCXCikDaTGxBSwwytpoAR7d7SACdgxWCMbU8D2av6eWRuyK412pdFIe3fnn3N8OIe9/+N+3/1053HvfwlyCQKCQEUESLARBASBygiIQGR0CAJDICACkeEhCIhAZAwIAsEQkBkkGG5iFREERCARIVq6GQwBEUgw3MQqIgiIQCJCtHQzGAIikGC4iVVEEBCBRIRo6WYwBEQgwXATq4ggIAKJCNHSzWAIiECC4SZWEUFABBIRoqWbwRAQgQTDTawigoAIJCJESzeDISACCYabWEUEARFIRIiWbgZDQAQSDDexiggCIpCIEC3dDIaACCQYbmIVEQREIBEhWroZDAERSDDcxCoiCIhAIkK0dDMYAiKQYLiJVUQQEIFEhGjpZjAERCDBcBOriCAgAokI0dLNYAiIQILhJlYRQUAEEhGipZvBEBCBBMNNrCKCgAgkIkRLN4MhIAIJhptYRQQBEUhEiJZuBkNABBIMN7GKCAIikIgQLd0MhoAIJBhuYhURBEQgESFauhkMARFIMNzEKiIIiEAiQrR0MxgCIpBguIlVRBAQgUSEaOlmMAREIMFwE6uIICACiQjR0s1gCIhAguHWMKs9re6DNpszXmlYAHFcEwIikJrgalxjPdN9LZM2h4CjAb4foPsc01jauIjiuRoERCDVoNSENrplvwTg0AGhljqmcV4TQkuIIRAQgSgwPCZ12p/RYlhRmopjGsLPCPMjBIwwAV54EYgCJFRIQQSiADciEAVIEIGoS4IIRF1uZAZRgBsRiAIkyAyiLgkiEHW5kRlEAW5EIAqQIDOIuiSIQNTlRmYQBbgRgShAgswg6pIgAlGXG5lBFOBGBKIACTKDqEuCCERdbmQGUYAbEYgCJMgMoi4JIhB1uZEZRAFuRCAKkCAziLokiEDU5UZmEAW4EYEoQILMIOqSIAJRlxuZQRTgRgSiAAkyg6hLgghEXW5kBlGAGxGIAiTIDKIuCSIQdbmRGUQBbkQgCpAgM4i6JIhA1OVGZhAFuBGBKECCzCDqkiACUZcbmUEU4EYEogAJMoOoS4IIRF1uZAZRgBsRiAIkyAyiLgkiEHW5kRlkJLm5hjV97959WeM5xLBKU+Fi3xF9hHVbOg7Oj2SaUY4tAmki+/Fs7xzi4hkM7WgC7wvgY1WG3wbQOjCvB9xlTPxAwZz5YpW20qwOBEQgdYA3nGnb4tf2KRb7ziC4pwF0KoA9hrOp4e+/B3A/w11eMGc8WYOdNK0BARFIDWBV21S37K8DdBbApwFoqdaujnYvg3k5U8udBfMgmVnqALLUVAQSIpi6Zf8FCB1gnBCi21pcfQBwl+u2dG3qOGhtLYbS1h8BEUgII0PP2KcSoYOBM4K74w8YeJcADdAI4HhgX4wNRNzlxmKdhbnTNwf2I4YQgdQxCBLZ7k+5rHUQ8OUa3LxF4OUMeo6YXyfS1m6N7bZ2y9wpGwf5uIa1SR9bM4143FRwcRo0TCWXjwdppwEcqy4edROhK59KdlXXXlrJLVZIYyCesU0iZIZ1x9zHRE8S81OA9ksnnVw1rM0QDZKL7HH5Fj6ZmD4L4FTQoJNxK90nPOoCCzeljP+pJ3YUbWUGCcB6Ipu7gZmvGsZ0NRM6Y33FhzbOn7kuQJiqTBKLX53Nxb5vAPjaMAYbAb7KMdvvqsqxNOpHQARSw0CYsLi7raWoLSXgMxXNCBvIpU4ucqezwHinBvd1NY1nc8dqzCYDFw7liMGdBbN9QV3BImQsAqmS7DYrd7QLfn6I5tsBdLrU17kpdfBrVboNvVnC6j2ZuWiC6EuVndOTjpkcqTdtofe5kQ5FIFWgq2e6rwVp1wzRdJnm4uqNHcZvq3DXlCZ6tvccsPsjABMrBHzXMY0JTUlmFAcRgQxDXqLLPpM1PFi5Gf/AMduvrHcM7PyGcikY4wlYykxLnHTyD/X4bcvkTnTJEwkd4OuH8IKTMj5eT4yxbisCGYLh+OLeaVR0K35wI8JX8iljSb2DJG7lvkngxQP9MKGrkDLm1+t7x1svrCTgaD9fDOosmEl5JqkAtAhkiBGoZ3pWg2im/8CKHRnGsg7v2YbBKxkYVxrH2bB1HK47bFu9IvHsdcv+NwDnVBDJ3IKZvD2MOGPNhwikAqN6NncPmC/w+7NjGqHhpmd6ngTRcX5xtFjrlI1zD1gf1qCLW/b1BFzt5480nJWfZzwUVqyx4ic0oscKIF4/4lbuSgLfWOHX9vSCmXwkjP7qlv0vAC7zfz7gx5xU+8lhxBnoI27Z/0rAV3z8vg/gJMc0ng475mj2JwIpYc9bPsKsPVOB1Fsc07g0DMLjt7w0jXYZ5y1Z910CH9bzjV+uerZnOXZ8iR90MeO3hbfemI3rTuwLo49jwYcIpITFuGXfXWFt1VLHNM4Li3Q9Y18Kwk3+swfd6qSSfxtWrFI/E+/4g96y9f2VFZ6vLnVM45ZGxR5tfkUgAxjzVuWC8F8+JK5yTOPYMMnVLfspAD4+6amJ42OnvHbJgR+EGa/UV6KrZzZreBSgQd9CiNC7rTh+9paO/WSbryw1GTxsEpb9c58l69s1F8eE+RFwx/cJ/pXvMw7RBYVU8qeNFMeHvnds7MIPy2Kxe52TnnFtM3JQPYbMIDsZ6v9QB/zMh7CbHNO4PEwiE5ncDUx+ix3pvV1jm/ZaN3fWe2HGG8pX3LJXlK8t43yxj2ZvXmD0NisPVeOIQD4USNb+77KdgIQNLvqOCXttlZ7JPQBin7VS/FPHbPd9tdyoAZTI9JzNRPf7+A/thUSjcm+GXxHIjo9ovrcaxPTtfDr53bCJ0K1cN8DtpX6ZkS6kjbLyP2HHL/WnW7n7AT675P/3aTHM3jhXnfVljcbBz78IBEDCsh9i4IslAK1GH44Je8n6Xpm39ijS5i1+ZLhFnLhpvvF4swdCpcJ1AK5xTOM7zc5HpXiRF8jkbG7v7cxvAGgdSAwTzELKyIZNVtttvbNc133Oz++2Puz97gLj7bBjVuNPt2zvYd2bSQdeKx3T8P3KX43PsdAm8gKJZ3ouIKJ7Ssjc3tIam/rWNw7aEDbJiUzvJ5ncZ/38xnjrhLfTh70bdsxq/CUyvWczuWXPIpqrzdjYMb2nGh9jsU3kBaJnc3eB+eJB5BI97KSSX2gE4W3WmhkuYmv8fBf7kBypN0eTbn51kjauuA7g8YNyY7rCSSe9JTGRvEQglu2VxRm8qYjpSied/EEjRkTb4pf3cYut/nvUmY6tt6hDPTnrGXsZCKeU/Fg85qSSoa8JqyfPZtpGWiD921PhPloKuAaatdFM/qYRREz+/gu7b999t0q3USO6zCNh2d9ioOytnbalOHHjwpm+LxYagZFKPiMuENtiIFXyi7neSSWnNJIk3bK9JexlhasZ9GDBTA6xl7yRWQGTMj0f14jKSgMxaxcW0tPvbWx0Nb1HWiBxK/c8gQfttGNgScE0/JaDh8ZgImt/jxl/5+NwUxHu0ZvNGa+EFqxGR7ple2/0vMrzA6/QVxPUmNaINY+0QCr8kjf8NmfHQkGqtO8i1FXDtY6seMZ+kAhnDrZr/hf+WvNuVPvoCsQ7vGZyrlgKLDGfk0+3P9AowD/0q1u2J5DZfnEItCBvJjsbnYOffz2TuxXEg/eoE55wUsanRyKfkY4ZWYHomdxUEL/ezAf0gbGqKCU0sPk7AD9LTM+7Gl4il56ot+JJpYGnZ3KXg3jQGzwCevOmkRzpwToS8SMrkEq3Odtju+9VVki6QczoVs8LAB0RwH0BzEu0WGzJxnnThypmV7NrPWOfC8LSEsP3HdPYrWZnY8AgugLJ5r7EzKW3Uu85prF7s3gdYol9LSncx9CWFMzpv6jFqFLbxKLuT3FL+Zbjvg+2Jt657DAnjBijyUd0BZLJdTBx6X3+asc0Dmkmgbple3tQvL0o9V0hbXLa+5ZXJvftUvxjaTJMdHghlXypviRHn3V0BWLZVzNwfQllTzum8WfNplG3bA4lJvO/O+n20mXrNbn2Cs05LSjf7qvhz515xq9rcjYGGkdXIJmei5mo9CiANx3T2K+ZvPpVVawnvrenPJ8K/kC91229RtF1yxYnutR3YNgbx+rpZ7NsIyuQSgUanA3JGK4jt1kE6Jb9MIDP+8QrsOteRNT/0W5faNpUME0DuIp1UfRHx0zuE6QPiWzuJGZ+rNTWads6DueFU+UxSF4jZRNZgcQ7Vx9OsZayE2Gb+Uvpnemx4+Sp8ouYb8yn2xeW/iVhdX+VWbschMOHGjREdGM+lSyzH26gJfxn1rxjGm3D2Y7Fv0dWIBO6VidatZbB5wICYMROKJgHNeXccT1rrwLD95mHyN0vn5rxpt+g69+ViMIVwxzJACb3gkJqRk0VUvRszz+AafAuQqL/dVLJIK+jR71mIisQjzndsrcC2GUgi8y4qJA2ftJoZvWMfRMIlao03ueYxl8Ol4Nu2V5xuZuHaLedyD0un5rhu0HLz07P5m4Hs3ek28BrmWMa3pnvkbsiLpDcqwAPOjuDCVcXUsY/N3Ik6JbtFac7tVIMhjan2u8aicWvzuRi3+qK+TJ+5qSN86vtj27ZvwQwWAxEP3ZSyUuq9TGW2kVbIBl7FajkFof5YSfd3pjdhF32Ua5GtwH8yYriIFpYSCV9C2dXstlzsT09VkSuwt+LYDqw2qUpumV7NbkG7Spk4HsF0/jWWBr41fYl4gLxO1qNinof755bYHi3X6Fck7KrD9C4xTsMx/s3qDjEwAAE/EfeNEqrq1SVw1DHUjPzwkK6fVjR6Znc50BcVrmeoJ2SN6cvryqRMdYo0gKJW2uOIMReKOWUwXMKZntdSzcmdb28P2mtxxP4eBCdCcbk4cbObh/sutsbl031jiEIdOkZ+xEQPlfWH69qe9rwPWFqYNu4ZXcRkB5sz45jticCJTQGjCItEI8/3bK95ROHDuKScbOTNvzP7SghPd7VfTrFYmeB+yslBn4VGsbbM7+VuB+mS9x6SD59QOVnFQ+LbO5FMA96fUyMn+TTxkVjYKwH6oIIxLKvA/CPJQL5vZM2DqsG0XjGfosIe1XT1rcNYQMIJznzjJcD+9hpOGlR95Fai/Y7Pz/DFaWblLU/oTHKT+l1cb7TYfjVLK433VFhH3mBxK3u4wnaE6VsUazlmPzcAysdpNPfPJ6xM0QwAzPNeCKGree/nT6sbHFgUJ96xn4aVL4RaziB+L8yZsfpoykI8XksaL9Gyi7yAtl5m+Wd9FS6ivdOxzRKKw0O4km3bO8bRJCDbtaB3R86LVu+i7mztodJvn6bfQjc/ir1A28b73JM468rxlnBLfpq+zmABh0JHfXbKw8vEYh3753puRVEZUchM9FxhVRyZaWBlcjaX2bG3TUM8HUg3K5prbeHeThnafx+kTB9k71vPIyXh3tFm8j2LGCmW0v9MOGiQqrxH01rwK/pTUUg/Yd2vnIEoejdTu06kAEC7smbxl8NxcqOWxO6vqwi4Z+MVgL8ayJ6kbTW5Y0URpDR03bnmgnuttizYJQedx36qVpB8htpGxHITgZ0q+f7AF1R9ixSxTcAr54UIXYwgacQYZsL5FoY9tvpZKWPdyPN+0fx45a9kICylQPMfGEh3R7JWlglP5LKcDWiiUzqemV/jYrPgEq+V4SwCWlEOzZE8B2V7fEswPuXNHvEMY3TVc27mXnJDDIA7YTV820G/VMZAaSd66Sm+53C1EyuQo9VqbIKg0I7Cz70pJvsUAQyAPD44t49qcjPADyjhId3NKazNqaTK5rMT8PC6Rn7ayDcUf5jQPc6qeSFDQs8yhyLQEoIS2RzHcxlxRy8nSKv6X00M8w1WiM1VvSsfRoY3qrd8muEK8yPFCaV4opAfJDRs/YycMkxAP2bqfCbgmnMUo3EWvLZ+Z3E++5TdnlFLAqm8fe1+BvrbUUgPgzvXHaxrMLaqvsd0zh3NA4MfZE9ES3wzkPxu4b9MDoa+1xvziKQCgjqVs8lAP2owi/tqNsfsfMsxkpHyq10NiRPaGaxinoHbrPsRSBDIB23ehYRyNvD4Xc7cnfBNL7aLKLqiZPIrjmJOVZWqeRDn1qsdYpqHzDr6W+YtiKQYdDUrdwT8PZ0+F3Ej/W1jj/vna9PVbYkZ8LKzWfwokrddJk/sSnd7rsCOMyBNlp9iUCqYE63bO/4sT18mzKvIcbF+Y72IVf+VhEm9CbxbO4qYr6hkmMiuiSfSv449MBjyKEIpEoy9az9OzCO9G/OWwC6zDGN8u8KVfoPs1n/84ZbNIcqC0TEf5NPtVecWcLMZzT7EoHUwF7cyi0isO8zieeGgcc15s5mHMDjl7a38LC4NWYSKOWzfOQjE9a0LxTmTfcqOso1DAIikBqHSHW1dOkBt8idm+Ybj9foPljzFdySWGOb7AmjfFXuQJ89Gopf3GjO7A4WKHpWIpAAnCdus89kF95K10HlcXxc3UGsPVLcpv1q06UHbgoQakgTvcs+FMQng3Bx6WanUkMCfp5vS56N86js2Lmw8xpL/kQgAdnULfsYZnhbbo8a3gW9D+aniPB4kfnhet4aTbLsT9OOonOnETBspRIvt6B1eofv19hvIQKph+NrVrTok/frIEIHM6bX4OpNZjxPoLUAXgd4LRXd12Nu69qJWnHT5l20aS7zVLjuNNYwFfAqu/M0AN7r5uqPQiO6Fy66nHRyVQ25SdMBCIhAQhgOE7reSLTS/80HUQdAKtSQeoRBnQUzWVYELoTuRsqFCCREuvdcZE+PtaAD6P/XEqLral2tYuYu2QlYLVzDtxOBDI9RzS3aFttHuUXM2Vmg+tiaHdRgwIy3ifCfrGmPFuZNj/wW2Rqgq6qpCKQqmII3auvqbXeJz4CGz4P5s8E9/cnSEwWApYhpvyisf385roveyU9h4FiNDxFINSiF1KbthjUTinu0ziFyZwE8BURTiLEvA1MqvDLOg2gdmNd7/2Xm9VzEsqZ9Xwmp36PZjQhEEfYm3vSSHhu/6xQinuBy3/pNieK6KJ4JqAgdH6UhAlGNEclHKQREIErRIcmohoAIRDVGJB+lEBCBKEWHJKMaAiIQ1RiRfJRCQASiFB2SjGoIiEBUY0TyUQoBEYhSdEgyqiEgAlGNEclHKQREIErRIcmohoAIRDVGJB+lEBCBKEWHJKMaAiIQ1RiRfJRCQASiFB2SjGoIiEBUY0TyUQoBEYhSdEgyqiEgAlGNEclHKQREIErRIcmohoAIRDVGJB+lEBCBKEWHJKMaAiIQ1RiRfJRCQASiFB2SjGoIiEBUY0TyUQoBEYhSdEgyqiEgAlGNEclHKQREIErRIcmohoAIRDVGJB+lEBCBKEWHJKMaAiIQ1RiRfJRCQASiFB2SjGoIiEBUY0TyUQoBEYhSdEgyqiEgAlGNEclHKQREIErRIcmohoAIRDVGJB+lEBCBKEWHJKMaAiIQ1RiRfJRCQASiFB2SjGoIiEBUY0TyUQoBEYhSdEgyqiEgAlGNEclHKQREIErRIcmohoAIRDVGJB+lEBCBKEWHJKMaAiIQ1RiRfJRC4P8ByuOyIyR0rz0AAAAASUVORK5CYII=;" vertex="1" parent="1">
          <mxGeometry x="90.5" y="912" width="85" height="85" as="geometry" />
        </mxCell>
        <mxCell id="C0XAzO81hBhKXg0jQggx-24" value="" style="shape=image;verticalLabelPosition=bottom;labelBackgroundColor=#ffffff;verticalAlign=top;aspect=fixed;imageAspect=0;image=data:image/png,iVBORw0KGgoAAAANSUhEUgAAAMgAAADICAYAAACtWK6eAAAAAXNSR0IArs4c6QAAEfBJREFUeF7tnX+MHOV5x59nLtTBIQm3CyWlBkV4Zq9qSCPnCGlpSnEDBZy0QPjVNnVwAzHeGdtqo6BKaS2gpIoAlVQ2OxsI1FHi/ggQIGkTExrAwRCTxggI9BRuxooQjVV+7LtGTa2Q+uap9uw7/7q7nXf3mZlndp/7x5L3nef5vt/vfPTs7M3tIOiPOsDkwAlhPD4FMI6QjBPgOAKMA8IOSOApdOCZhEaea/un/YipXS5lMJcu2mSgHaiGL55LhBsA8eyuGyV6HJFuavlj3+26VsACBURACGWVcNJX/vtt+372PxsI4C9t94AAN7/luLff9Mon3vW/tsfmuV4BydPtAepV/WJ0UZLAhum3UT3+EMDTjgM3tdZ43+ixROaHKSCZWzx4DSphdDkA3MO2M4QrTd3jq8cmDEABYTRzGEqxwzFjGuEfmcD9mjQPFRBpiQjWkxkcB/ZMiH/crrv/IskCBURSGoK1ZA3H7CAB+njbr/2TFCsUEClJCNaRFxyzkBD8aTvw/lGCJQqIhBQEa8gbjoOTBFa2fW9L0dYoIEUnILh/UXDMWIIIn2jVva8WaZECUqT7gnsXDccsJA5e1VrjfqUoqxSQopwX3FcKHLOQEP1ZK6h9uQjLFJAiXBfcUxocB62iTxq/tjlv6xSQvB0X3E8uHAdMQ7ja1L1/yNNCBSRPtwX3Eg/HwY+3rjGBd3deViogeTktuE9p4Djo4aeM792Vh6UKSB4uC+5RQjj2u4m42tTdL2VtbSaAnNSMf/kXNDWG5NQAklOy3kTm9dH5z8QZmTxmau+u14LTf5Z5v5walBaO2bdbuNoE2ULCBki1+eKvEo1sBKAPAED5oZjvJEWYIKJH2n5tfU7ncSZtSg9HTtckLIAcvyk6xxmBzr0zJ2eSpsCiBBAD4Pq2724VKG9BSQMDx+wunU8af2kmHwH3DUil8eINgM71ZTtJuPQS0KYyTZPBg+PAJUlGv0zsC5BKGHX+Cqzz12VD/kN3Gr92rXQTBhWOGd+R8KpWwHtbSs+AVJrRXwDBbdJPirz0EeAKyW+3Bh2OWUgAVrYY7wLuCZDK7dFvgQPfz+vkK0ufEULvtcCNpekdFjgOXrc7H2/7S1n+6KonQEbD6DEEOEfaiSBAz1bjeysE6JiVMGxwzEJC9CftoPbP/WZhDciJjdidQor6bTyoxzuJM/b62qWTEvY3rHDMes/wRRDWgFSa0flA8JCEE0CiBkLnD9r1pf9WtLahh+NgAFcY37u31zysAamGUUAAt/facOCPI/yMCdy/K3KfCscR7qNzmakv/XovmVgDMtqIGojg99JsOI4p9iNfhWPuswyJLm0Ftfttz0F7QPQCfUGPCWBb2/eW2wbBsV7hWNhFBLyk5bsP2nitgNi4lWJtUYAoHCnCAQAH4KLXfe+b6Vb38NWj+hHvwtYWAYjCkfZ037/O5oMUnSB23nZdnTcgCkfXSOZcQEAfbfu1b3U7WgHp5pDl63kConBYhnPE8jS3Bykg/Xl81NF5AaJwMAWHcIGpe9+Zr5oCwuTzTJk8AFE4mENz6PfNmtq/z1VVAWH2OmtAFA7mwA6UQ8c5t7Vm6SNHVldAmP3OEhCFgzmsI8ohTn24Vf+1Rw/9bwWE2fOsAFE4mIOap5yDsPz1urdt5mUFhNn3LACpfClaAv8H3wOA05jlarm5HNgHp5j13n91XlJAmE+RTAAJJ+8AwNXMUrXc/A48N0JvfqjzFU8KCPNpwg2IvrViDihtOYT7TN27XAFJa1jKdZyAvDN8aXSEfvE9QHhvyva6jNMBB85SQDgN7dznw3g3b7UZrSSCwh4ew2xN+coRblRAmGPjBKQSTt4KgJ9hlqjl0jvwqgKS3qxUKzkB0TunU1me6SIFhNleZkB+jgCLmCVqOQsHFBALs9Is5QLknbdH7x9x4Ok0PXVNdg4oIMzecgFywh0Tv5JMHbObWZ6Ws3RAAbE0rNtyLkA6fSph9BIAnNqtp76enQMKCLO3rIA0o3uB4DJmiVrOwgEFxMKsNEtZAWlMbgDEv0nTV9dk4sCjCgizr5yAVMP4YgJ6gFmilkvrAOFqBSStWSnXcQJy4DrkPgC4NGV7XcbmAL7kLNr3XgWEzdD9hdgB2Rj9OrwFHwGgdzFL1XILOEAAK9u+t0UBYT5NuAGZniKN+FOAdCezVC03jwNIybpWMDb9/dMKCPNpkgUg+99qxV8GoKuY5Wq5Ix1A/Lapux+Z+W8FhPkUyQqQA9cj+kxI5rwOK0fwuAm83z30/xQQZsOzBEQhYQ7r0HJET5ig9jtHDRTblnqH6cKOZQ2IQmJ7xqZZj08a3/3QXCt1gqTxz2JNHoAoJBaBdFuKsMPUvbPmW6aAdDPQ8vW8AFFILIOZe/kPjO/95kKVFBAWnw8WyRMQhaSf8OiHxq+d2a2CAtLNIcvX8wZEIbEMqLMccaepux9Ic6QCksYlizVFAKKQWARkAcc0Sxalp5fqp1gLO1YUIApJmjMZf2h8t+vbqkMrKSBpfLVYUyQgCsmCQf2H8b0PWkQ5vVQBsXWsy/qiAVFI5giI6AcmqC34adV8sSogAwiIQnJIqF1+z9EtfgWkm0OWr0uYIDOSK2E07Pdufd/43m9bRnjYcgWkH/fmmuaMXz3KIW2IIXnS+N6ct4/Y+KqA2LiVYq2kCTK8k4SeMP7RNx6miO+oJQpIL64tcIxEQIbrmoS2G792NlesCgiXkwfqSAVkKCAhetwEtcP+nqPfeBWQfh084njJgAwyJIiwrVX3ljPHqb8H4TZUOiCDCAkBPNb2vd/jzrJTTycIs6tlAGTAIHnU+N6HmWOcLaeAMDtbFkAGAhKiR0xQO5c5wsPKWQNSacabgWhVlqLKXJsAtrR9b2VZ9lDe35PQd41fOy9rn60BGQ0nr0PAW7IWVtb6CLih5bufK5P+EkLysPG98/Pw2BoQ/b7YLrEgXGnqXucWj1L9lAiS7xjfuyAvc60BGW3GpyPR83kJLFufhGjZnqD2bNl0l+Sa5CHjexfm6a01IEtue/nYvW/9+Y/1wS5Hx4QIuxY5b/zG7mvP2JtniJy9BE+Srcb3VnDuNU0ta0A6RUeb8bVI9MU0DYZpDSJ+rFV3S/+4AnGQEH3bBLXZrwPN85zqCZD9kEQPIsFFeYoV3YuSG00wdoNojRbi5EBC3zJ+7aMW0lmX9gzIgfesbwLAL7EqKmUx3Gt8922llL6A6KIhQYB/bfneHxbpa1+AVG+f/CA5+FSRG5DQO0F4/56694wELdwaioIEAb7Z8r3C36H0BchMGJUw+gIA/Dl3OOLrET5gAvdj4nX2KTBvSAjhG+26d3GfslkOZwFk+u1WI7oMEG4GgNNYlMku8hQQ/r0J3K/JlsmnLi9ICODBtu9dwqe8v0psgHRknHDzj9++b/HIuOPgOEAyDtj5F2r9SRRwNMIOSOApdOCZhEaea/un/UiAqtwlZA4J0QMmqImayKyA5J6YNszdgQwh+brxPXHPhFdAcj/Fyt+QHRKE+0zdu1yiMwqIxFRKoIkRknuN710hdcsKiNRkSqCr2oj/ipB6vnMZCf+6Fbh/K3mrCojkdEqgrdKIL+hAggCdD2RS/RDA0x04TOA+lOqAAhcpIAWaP0itR8N4NQCtXgiUDhgAeGfbd0vzzHcFZJDOUgF7qTSj8wngBIewQjRVJXBeBQcNJmRM4D0sQKKVBAXEyi5dPGwOKCDDlrju18oBBcTKLl08bA4oIMOWuO7XygEFxMouXTxsDiggw5a47tfKAQXEyi5dPGwOKCDDlrju18oBBcTKLl08bA4oIMOWuO7XygEFxMouXTxsDiggw5a47tfKAQXEyi5dPGwOKCDDlrju18oBBcTKLl08bA4oIMOWuO7XygEFxMouXTxsDrACcvIdOxfv3feOmuNgDQlrCdAYACwpvakEEw7CBCHEIwnuei1wY6l70gx4k2EDZDSMLwSgjQjg8kqUWA23E8Dn2767VZK6ajO+BIBuJYKlknRloaXzNGFM4LNmrbcji/ozNVkAqYbxOgLamKVQibUJaFPbr62XoK3SjK4HgoF5PklqTxE+bepe58vTM/npG5DRMNpp85UvmeyiwKIEELd9zytKwvHNaJlD+AQALS5Kg4C+mX35XF+AVML4JwD0bgEGFSqh83U2bd87owgRlTCiIvqK65nRE756BqTSjDcD0SpxRhUkCAHXt3x3U57tK83oYSA4L8+eknslU7B8zzpvG6fGngCpNiZXEeJmTiGDUIsAV+R14V5txGsJKVcgS5DRbsTkzFZ97KdcWq0B2f8Y6Dcn9K3V0RF0rkeOHXnjfVk/BvrExgvHTeGiCQA4hetEGJw6eL/x3Uu59mMNyGgzPh2JnucSMGh1EqJle4Las1nuq9KIzwKkJ7PsUeLaLxvfO5VLvzUg1TC+mIBK/yxwLgOPqoNwpal792RWv/MI7nDXGoSkmWWPMtc+BvGkV+ruqxx7sAZkNJy8DgFv4Wg+iDUQcEPLd3t+JEAaTyphdBcAXJ1m7TCuIUjObvtj2zn2bg2Ifnq1sO0EsKXteys5wpmvRiWMXgCA92TZo9S1Ca4xgXc3xx6sARkNo8cQ4ByO5oNYo3MLRNv3lme5N/3dRxd3GX8nooAwn8kKCLOhvZRTQHpxLZ9jFJB8fF6wiwIiIIR5JCggArJRQASEoIAIDiG50QRjLHc26zUIc8w6QZgN7aWcTpBeXMvnGAUkH5/1GkSAz71IUEB6cY35GJ0gzIYyllNAGM3stZQC0qtz2R+ngGTvcdcOCkhXiwpboIAUZv3BxgqIgBD0Y17BIejHvGLD0QkiIBqdIAJC0AkiOASdIGLD0QkiIBqdIAJC0AkiOASdIGLD0QkiIBqdIAJC0AkiOASdIGLD0QkiIBqdIAJC0AkiOASdIGLD0QkiIBqdIAJC0AkiOASdIGLD0QkiIBqdIAJC0AkiOASdIGLD0QkiIBqdIAJC0AkiOASdIGLD0QkiIBqdIAJC0AkiOASdIGLD0QkiIBqdIAJC0AkiOASdIGLD0QkiIBqdIAJC0AkiOASdIGLD0QkiIBqdIAJC0AkiOASdIGLD0QkiIBqdIAJC0AkiOASdIGLD0QkiIBqdIAJC0AkiOASdIGLD0QkiIBqdIAJC0AkiOASdIGLD0QkiIBqdIAJC0AkiOASdIGLD0QkiIBqdIAJC0AkiOASdIGLD0QkiIBqdIAJC0AkiOASdIGLD0QkiIBqdIAJC0AkiOASdIGLD0QkiIJoiJ0ilGW8GolUCbBApgQC2tH1vZZbiKmH0AgC8J8sepa5NcI0JvLs59oC2RUbDyesQ8Bbb44ZlPQJuaPnu57LcbyWM7gKAq7PsUebaBMnZbX9sO8cerAGphvHFBPQAR/OBrIFwpal792S5t9Fw1xqEpJlljzLXPgbxpFfq7qsce7AGZLQZn45Ez3M0H8QaCdGyPUHt2Sz3VmnEZwHSk1n2KHHtl43vncql3xqQJbe9fOzet745AUDv5hIxKHUIID525I337b72jL1Z7unExgvHTeGiCQA4Jcs+5ayN9xvfvZRLuzUgncbVxuQqQtzMJWJQ6hDgirbvbs1jP9VGvJaQNuXRq0Q9diMmZ7bqYz/l0twTIJ3m+mnW4REg4PqW7+Z6wlaa0cNAcB7XyVD2OskULN+zztvGuY+eAZmGJIx/om+1AAjg6bbvncEZTNpalTCitGsHeh3CDabu3ci9x74A6YgZDaOdCDDOLaws9TrXHW3f84rSe3wzWuYQPgFAi4vSIKDvvcb3rshCR9+ATF+ThPE6AtqYhUDJNQloU9uvrZegsdJ48QZA53oJWnLVgPBpU/e+kFVPFkD2T5L4QgDaiABuVmLl1MXtBPD5vC7I0+672owvAaBbiWBp2mPKuq5zSw8m8Fmz1tuR5R7YAOmIPPmOnYv37ntHzXGwhoS1BGgMAJZkuYFcahNMOAgThBCPJLjrtcCNc+nbQxPNoAfTFjiEFRBeaVpNHSjeAQWk+AxUgWAHFBDB4ai04h1QQIrPQBUIdkABERyOSiveAQWk+AxUgWAHFBDB4ai04h1QQIrPQBUIdkABERyOSiveAQWk+AxUgWAHFBDB4ai04h1QQIrPQBUIduD/ARi0KEkeO8n4AAAAAElFTkSuQmCC;" vertex="1" parent="1">
          <mxGeometry x="113" y="1009" width="39.5" height="39.5" as="geometry" />
        </mxCell>
        <mxCell id="C0XAzO81hBhKXg0jQggx-25" value="" style="shape=image;verticalLabelPosition=bottom;labelBackgroundColor=#ffffff;verticalAlign=top;aspect=fixed;imageAspect=0;image=data:image/png,iVBORw0KGgoAAAANSUhEUgAAAMgAAADICAYAAACtWK6eAAAAAXNSR0IArs4c6QAAFuxJREFUeF7tXXuUHFWd/n7VA8gjJF0zSSQBX+nqkRB56iocd5eXqCvgIiiLLAISmHR1CAbxIKgLkZUoKpJHV89MQFwI+MgekIeABBZWhQPHoOCTdPWwaDAhJl0NBAVmpuu3p2ZIxJwk04+6XffevnXOHP7g3t/v+33f/XKrum7dSzCXYcAwsFMGyHBjGDAM7JwBYxAzOgwDu2DAGMQMD8OAMYgZA4aB5hgwM0hzvJleHcKAMUiHCG3KbI4BY5DmeDO9OoQBY5AOEdqU2RwDxiDN8WZ6dQgDxiAdIrQpszkGjEGa48306hAGjEE6RGhTZnMMGIM0x5vp1SEMGIN0iNCmzOYYMAZpjjfTq0MYMAbpEKFNmc0xYAzSHG+mV4cwYAzSIUKbMptjwBikOd5Mrw5hwBikQ4Q2ZTbHgDFIc7yZXh3CgDFIhwhtymyOAWOQ5ngzvTqEAWOQDhHalNkcA8YgzfFmenUIA8YgHSK0KbM5BoxBmuPN9OoQBoxBdiC0vdTfH6lwLkAHk0UHM3AAGBujPwYegEW3VHOZ36g0RuxC+QAiPouBjxBhOjOmA2AAGwDeCNBNgetcr1JN7cBqDPIGlicve/rtVio1l4C5AKbtWgC6LQyHL35h/uw/tEOoVnLYXukaEF0Exu4TxHmMQP0VN/NfreTTqa8xCICe5UPZ0OK5QPSHdAMC/x6EhUHO+XEDfdrWdGqhnAmJr2XgpMaS8k8Z6K+62Vsb66df6442iD3oH4TRsdki+tunWXkZ1Fd1M4PN9hfRb9qKZ6aPjozeH90mthD/fwD0B66zqoUYSnftSINMKfqHUYi5FuE8BvaIQ0FC+IGK2/tAHLHiiGF7/qZocowjFkD3kcX9lXnOHfHEUydKRxnEXurviy4sAnARgNhrJ+ZzK/nsd5KUv8fzTw4BIQOZCXdYNV5cmZ99PMka25k79kHSTvCN5EoXSycipEVEOLyRfo22ZWBx1XUub7RfHO27Pf+rDFwaR6ydx+ARgBYHrnOF2DxyRNfeIPtfu27Pv77plUUAfa59lNN9FvDFzW7miXbk7Bl4dr+wNroY4LPbkW88B/2cCJ+v5DLRc4q2l9YGsYv+B8H4PoDJySjIgxasQVFGGTPG6Gt9IOt8ADOSqRHXB64T5dfy0tMgVzzU1T1t/+8w4Uw5VIvXKJIY4w3U8npw7eNB/sBH5eA7PhTaGcQulE8H8ffioyjWSI8Q8DNY1urKvFkPNhLZ7vdnU42OZcIxYD4WhCmN9G9T2xsC14l+Mtfm0sogtldeDfDxiqjzMoBHQbSemTdY0X8RbkDYtQXEMwk8E8BMgGcycAiAtyhSFwLX0WZcaVOI7fnfAvAZVQaR3jh5MHCzfTrUqIVB0sWhE4nDu3QQRJsaOFwU5HuvVL0eLQzS7fl3Nr7eSHXppMe/3krt9u7NfW/bID3SXQBU3iBm9pB4+GkwiyhvkLGl3G19CSjxgJQP2uOB67xPPlj1I1LfIMXyjWA+p/6STcs2MvDHwHXe2sZ8sadS3yCeH32LcULszJiAcTAwHLhOLKul4wDTTAz1DVIo3QaiU5op3vQRzkA1cB1beBaBCZQ3SLdXKjJonkCOTOjmGfh94Dqzm++efE/lDWIX1l4Jsjpi6XXyw6UxBAw8XHWdYxrrJVdr5Q3S45WPCMFr5KLVoIkYYEa+mnc8ldlQ3iAR+bbn/ynB5d4q6y8U+/Aopr28wIk+/VX20sMgRX8VGKcpq4KewNcFrqPMAsudSaCHQbzSVQB9Uc9xpmhVRA8GuYwqK6t3SrIWBkkX/DOJsFLRoaQlbAKKFddxVS9OC4P0DPiHhzW05ftv1QVvI/6Fgetc18Z8QlJpYZAZA+v3erX2l78IYcgEbYoBBv1L1c3c21RniToZg0gkhk5QOAw/Up3fe4/qNWlhkPFtNmvPqy6GVviZ/i3IZ6IdZZS+tDDI1P4hpxaGJaWV0A08hxcE+d4VqpelhUHMQ7qUw/CzgetcKyWyBkBpYZApy/yjrRQeaqBu01Q0Axp8TRhRpIVB0gV/cbQNpmjNTfz6GdBhoaI2BrGL/qNgHFm/fKZlOxhI8eRJm/LTov2/lL2Un0H2WepP3b0Lf1ZWAY2BM/jEqpv9kcolKm8Q2/M/DuAHKougK3ZiuqaSzwg+jkEse8obxHxRKHaAtBSdaE2Qy7ynpRgJd1baIJOX+rNSXXiylfMFE+Zf+/TEdHYln7lJ1UKVNoj53Fb+Yaf6r1nKGmRq4Tf7hNYeTzJjlvzDpLMREvOplXz2NhVZUNYgaW9oHiEsqkh6p2Em4O6K6zR4VrscLClpkHTxd3OId78f4P3koNGgmJAB5s8F+ew3JmwnWQMlDWJ75bsB/ohkXBo4u2bgFQDHBq7zmEpEKWcQ23x/rtL42g4rPxC42Q+oVIBSBtHwpeAWABsYWE/MGwBaDxpbHzcTzDNBNIOA6Ag2pfe3/TtDKLaIURmDaGMO5sdh0b0grArmOb+r519Tu98/kkOcREQngvld9fSRuo1CJlHCIBqY4zdgvh4pWl2vKXY2wLuXl97LxB9O+Gz01v1HuDLIOYtaDyQ2gvQGUdwcfyZgSdc+k5Zs/NSbY91UQr6z0psYqArMJNIaJHoROEp7XE7AZU1Qn3wXoiW1rq4lL57/tv8TCWabUSzrMjB2F5lLRGxi3MIpXN3qzCoCWxRTSoNEs0ZkDAYOE1W4qLgMlC1YuYo76wFROXYU1y6UPwSLV4CxfzvzxpOLA5B1dZDLfDOeePFFkcogdqF8FIjnAjg3vhLbGunekXD0rC3zD6y0Nevryfa9fp2dGnl1NTEOTyJ/yzmJHiSgUMllbm85VkwBpDBId7F8CofhWSqfFMXgZVU3uyAmXVoK013wVzLhzJaCJNv5UYZ1cxe/snJTfk6iXyQmYpCxfayGa4cAdDCIo+PTjkpWj9ayR/fRlbzz761Fibd32istJdCF8UZtbzQiDHEYriQr9dToCP/qxQXOUHsRtPEZZNLA2p7dQutkZnyUgJPbXaiofEz4RTXnHCEqfitxbc+Pdjb8cCsxZOobLZ0HY9VIDavade5IW2YQu9+fjXDss9iDZCK8ZSyE50Z3e9MhL809IGg5loAAk5b/vrvL6nqMgIyA8AmGpGcZ4ReqbvZW0SCEG2TsxZZFSi1Qq4t0wjBC+miQz9xXV/uEGnV7Q8czwtUJpRealgmXVXPOV0UmEWoQrbcEZf6PIJ+9SqQ4ccW2i+XrwHxRXPGkihPyCcH8rLB/AIQZJLPU3yPoQjRzHCoVoTGAid511F597b0vXTxHylur7UucvOLZt6dGRiItpsVQvnQhQsLhL+ScX4oAJswg3V75QgYvFQE68ZiMi4O8863EcTQAoNvzL2fgKw10UanpqsB1PiECsDCDpD3/IQKOFgE62Zj8VLBx+B+waM5wsjgayz79puf3Hnl5SzSLzGmspxqtRZ2oK8QgPcuHsqEVrlWD2sZQEmhBxc0sa6yXHK3tor8QDOV3XN8Rm6LOZBdiELu//CGErPzxWzsSIsXkbMpnynIM+cZQ2Mv9I2Hh0cZ6KdP62sB1Phs3WjEGKfinRR8ExQ026Xiq7/EU8WcX/HUgFRc0Tqj+jYHrfHrCVg02EGKQ7kLpHCa6sUEs8jdnuiTIy7fitBHibM+PXthG+xlrdTHoh1U3Ey1bivUSYxDPzzOwPFakEgSzQqt38/xZSh/1Zhf880C4XgI644XA/JMgn/3neIMKWouV9vxLCRD6hjNuIuqItyVwnX3raCd1kx6vfEQIXiM1yGbAEX4d5JyDm+m6qz5CZhC7WP4ymL8UN9iE45UC1+lNGEPL6ce+QKyNrG85kGwBCM8FOeeAuGEJMoh/LRgL4wabZDwdHtC38md7PifJpaDcfw1cZ++4Y4sxSMEfBOH8uMEmGo/5u0E++8lEMcSU3Pb8PwGYEVM4acLYo3hTeYHzWpyAhBik2/NvYUCLwbSNbMY3g7xzSZzkJxUr7flrCJDyG5ZWOLFeG5mxeeHsDa3E2L6vEIOkPf8OnT6KGiPNGCTOcScmloWD4t4dRYhB7GL5ATAfJ4aFhKKaW6yEiK8/LRO9v5rLPFJ/j4lbijGIV74HYG0+9RyfQPBw1XWOmZhS+Vto+pAOK4UjNvc5v4hTAUEG0fJtrfmZN86RJyBWrVZ7x4sXvjPWjfrEGKRQuhFE5wjgIMmQ5kVhkuzXkZtT1pRq36wX62hadxMhBkkX/GVEmF83CkUamqUmUgtVC1ynK26EQgzSXfAXM+HzcYNNPJ5ZrJi4BDsDQMCmiuvE/kmxIIOUv8DE/yktm00C0+FBXd/l7rQ2cDPvbFLanXYTYhC7ULoIRNfFDVaGeOaDKRlU2CGGxwLXOTJudIIMoumS6rHt8M0nt3EPwljiMd8T5LOxH+wqyCDl00H8vVgKlywIA09UXefdksGaEM5k7w/pFIajl2gHTthYwQYErKy4zllxQxdikPTy0olk0V1xg5UlHoP6qm5mUBY89eBIe/5XCLi8nrZKtmFaGuQzsW+OJ8QgU5b5R1spPKQk0XWAVm0W6ekfenfI4SMqnkBVhxzjTQQd5ybEIBFe2/OjbX+ydReoWEOVZhHb86Pb3dMVo7gxuAIWKkYAxBmksPZKkHVFY1Uq1JrxW4tHP7Z5/oFSf6NuF/1Pg3GDQsw2DFXkz+/CDDKlUDrUIopus6Y0XLE6HR4PXOd9ssLt8Z7uDZF6WlZ8ceFiojOquYyQH4WEGWT8NmvoXCD8dlxESBmH6MEglzleRmy2V/olQNptHv5Gronpwko+I2wHHaEGGTOJ7rda42rdELhOdPioNJdd9AfBmn32vB27Im+ttqYSbpDXH9ijjcqiDcu0vQj4WsV1pFh/lvb82wn4V23JHv8+5+aq63xKdI1tMUhUxOvvRqKCtNvVb5tIhBVBzrlAtGg7i5/2nvlHQu1mAG9NCoPgvCMA30lEd1RyTlSn8KttBtlaydgGyoRTmXDE6xsHTBJeZVsT0G1EtQWVXG+0c0jbru5ieQEzL2lbwnYlYqxh4DEL/MQo8U9edHufaVfqKE/bDfLG4vZZ6k/drYtPJeBUgKR80G1ODPoVA4V2vG0fewkYhtFuK5q95+Afga2bg3zm+81pEE+vRA3yxhJsz38fQKcCfF50RxZPeclGid64AzQowijR2ioLw5cQ4RLN3pDfENaw8oULnYeTVW88uzQG2UpGemDoXVQLo21LtXlWiYxCzDcjRatb3ZZmaqGcCQkfZnBOq4WHjPuIw29U5vc+KIMxtmKQziDbjOKVL6Bof1/dzrJgfhzg+5CyflCvWcZO7CI+iYlP1O9YOyqB8I0gl1khkzGkN0gEcLK39h0pWFfrd3+9bShsAbCBgfXEvAGg1zeV5hlMtB+Nbw+6HwDNfsjYVv+qkVTobunr3SyjOaS8xdoRUbbnR+dZRM8m5tKHAWEn08ZJkbS3WNsXaRdKS0C0IM7iTazEGFDCHMrMIFtltL3SVQB9MTFZTeI4GFDGHMoZJAJse/5/Y+y9iblUY4CBMoZfO676mTl/VAW7MrdY22aRpf5sdNGDAL9ZFZINznEGmPmT1Xz2uyrxoZxBxmaRQvl8ECv1TbhKg0IE1vGVBY5yu20qaZDxW63ydwA+W4SYJmbcDPBTo68OH/vSxXOCuCOLjqeuQQrlo0Ac61kQosnu1PjMyFfzjqdi/coaZPxWq3QbiGI/PF5FIeXFzGv3enXPw567+IBX5MW4c2RKG6S7WD6FmW9TkfhOwcxEl1ZzmWtUrVdpg4w/i/jRbdZRqgqgOe4/DY/isJcXOJtUrVN9gxT9hWBcq6oAWuMmGghymXkq16i+QaIvFC08qrIIumJn8JlVN3uryvUpb5Dxh3V/nXbL4lUeVVuxj+KAYIHznMql6GEQT8tDQ1UeVxH2JwPXOUz1IvQwSEHf80gUHmDXBa6zUGH8Y9D1MEi/fyRC8xwi02Bk5kur+ayyP+9u5VILg6SLv5tDvNuvZRognY6FCW415xRV50EPgwwMvYVq4R9UF0Mn/AScVXGdlarXpIVBJnu/Sqewp3IL4VQfPLvCTwhPqbi9P1S9Ri0Mgh9wyt5cHlVdDJ3wUxgeL9sWPs3wq4VB0uYWqxnthfYhprMr+cxNQpO0IbgWBrELz5wAqv24DXyZFHUywMDiqusof2ioJgYpXQSi6+rUzjRrBwNEtwe5zMfakUpkDi0M0u2ViwxWelGcSJETic38dJDPKn8muxYGSXv+Q/ptyZnIsI41aeA6yo8v5Qvo+drTk8JJqZdiVdYEi4UBJuukam7W3bEESyiI8gZJF4bOIAqVXlKdkPZtSMuDgZvta0MiYSmUN4jtlb4OUHSAjLlkY4CxJsg775ENViN4lDdI2vNvipY1NFK0ads2BtYFrvOWtmUTkEh5g9ieH73/OEEANyZkqwwQhoOcs0erYZLsr4NBzF69SY6gXebmIHCz3dLCqwOY8gZJe/5yAvJ11GqatJ+B3wauM6f9aePLqLxB7MLaK0HWFfFRYiLFxQABd1Vc5+S44iURR3mD9Aw8u19YG1mD8ePKzCURA+Y9iCRimFlEEiHeAEOH2SMqR/kZJCois9TfI+jCYwAOlW+odCaikHD4Cznnl6pXr4VBIhGm9g85tTAsKSxIBUTrEfLLIMwExv5SStYT8gnB/OxqJbFvB1obg0R1TSn6h1mMnwLYW1pxCMPMeASE+4nwvyGPbnihu7Yen5gzvD3maSuemR6GtZlhzTqEKDyOQxwPwnRpaxs/RWpeNZ8dkBljI9i0MsjWwu1i+Utg/nIjRIhvy4ORKdhKPVDtm/Vis/mm9Jf+yarxsSDrfJl+mGDCL6rPZ96LRaTVp89aGuRvt1y1WwBKeC0QD1qwBje7mSeaNcWO+o39ejf6Wl/yRqEaOPxskM8uibM+WWJpa5CtBKe9oXmEMIH9mcQYY/uBs80olnUZGLu3c2ARcLfFk8/YlJ/2cjvztjOX9gaJyLT7/dlgLALjtHaQm8Su5nbR/yBAg2Bux+LAdUxYrMPGcBONh44wyFYSur3yhQwsAjg9ETFN/X/CRrK6jq70vf3ppvq32GnGwJq9Xq3t+7DQ20qigeER/pLKh+I0QnNHGWTsl65C6dAUWX0MngugqxGyJmj7SOA6748xXtOh0kV/GTHiPXKZ+R4G9Vfzzl1NA1OwY8cZ5G/PJs8cDIzOJVBklD1b0Y6Bh6uuc0wrMeLuG9vqAsZqAvdX8tmOPAuyYw2y7barUDqQieaCMReEfRsdqASsrLiOlB9s2cXyrWA+o9GaovaR6YmpP8hnvt9Mf136dLxBtgo5bcCfVQsxlyOjAD31CEzAFyquc3U9bZNqY3v+ZwBEq52n1IWB6BFi7tdh4+m66p2gkTHIdgSNbWMa8viMAt5vh/wxDTDX7qzO770nDhFEx4ieuyzgXBBFM91OfqDgnyOk/mC+823ReFSKbwyyE7Wmf/2pvUf32mc2UDsIRDOYsZHJeh4p/KyVN+FJDw674J9AFqZzSNGSFWbijUTYFOQcs3XrDsQxBkl6xJr8UjNgDCK1PAZc0gwYgyStgMkvNQPGIFLLY8AlzYAxSNIKmPxSM2AMIrU8BlzSDBiDJK2AyS81A8YgUstjwCXNgDFI0gqY/FIzYAwitTwGXNIMGIMkrYDJLzUDxiBSy2PAJc2AMUjSCpj8UjNgDCK1PAZc0gwYgyStgMkvNQPGIFLLY8AlzYAxSNIKmPxSM2AMIrU8BlzSDBiDJK2AyS81A8YgUstjwCXNgDFI0gqY/FIzYAwitTwGXNIMGIMkrYDJLzUDxiBSy2PAJc3A/wOAkO8jkgkBdwAAAABJRU5ErkJggg==;" vertex="1" parent="1">
          <mxGeometry x="111" y="1074.5" width="46" height="46" as="geometry" />
        </mxCell>
        <mxCell id="C0XAzO81hBhKXg0jQggx-26" value="" style="shape=image;verticalLabelPosition=bottom;labelBackgroundColor=#ffffff;verticalAlign=top;aspect=fixed;imageAspect=0;image=data:image/png,iVBORw0KGgoAAAANSUhEUgAAAMgAAADICAYAAACtWK6eAAAAAXNSR0IArs4c6QAAEKRJREFUeF7tnX+wXGV5x7/P2QQiFMjuJYm/aKnsuZEqpbTKVCpDHBusExlwnNpJcBys1rC7N0kTiRQKJuFHCtJESO7uXqpIq1BjdCz+YqZ0WhRFR+pIi4547+4NY52mocmeTURj4d49T2cTQmK49+7Zs+c9+5493/tv3vd5nvfz3c/s3ptz9gj4QwIkMCsBIRsSIIHZCVAQvjpIYA4CFIQvDxKgIHwNkEA4AnwHCceNu1JCgIKkJGgeMxwBChKOG3elhAAFSUnQPGY4AhQkHDfuSgkBCpKSoHnMcAQoSDhu3JUSAhQkJUHzmOEIUJBw3LgrJQQoSEqC5jHDEaAg4bglYtfC6jPnOjp9k1d0P5SIgS0ckoJYGEoUI2Ur4x8WZCqAZlRQbBbcahR101aDggxY4ovKz7yyJVOjgLzn2NEEmIT4qxqFpU8M2HGNH4eCGEccX4NsuXa1CCoAznxZV8Vur+T+WXzTDEYnCjIAOS6p1he/4OtdInj/XMdRyEebxfxdA3Dk2I5AQWJDbabRUKV+laL9rqGv6thB8KxAVjUK+X/ruJYLjhCgIAl9IZwx+vTQKU7mVoUUujqC6MPevgevwJYtflf7UrqYgiQw+GxlYgUgdwuQDzW+yq1eKf+xUHtTtomCJCjwsypPZTO64EaIXNfj2IfFx6rGiPvlHusM/HYKkpCIc+X6n0D0DgAXRjKy4LEFzunv3Lv61YcjqTegRSiI5cHmdtTOxHysh2Jz5KMKPuEV3A2R1x2gghTE4jBzY3uWw2+1xbjE1JjqOKua1573OVP1k16XgliY4JLP7Dt96rmfb4DILabHE+DJF/zp5c+NnN8w3SuJ9SmIZakNjY6/XTPO9VAsj3G0T3lF9y9i7JeYVhTEkqheu/07r/jVgkXrFbi9LyMJPugV3E/3pbfFTSmIBeGcXa0tU8UGBa7o3zhSEzn1bY3COf/dvxns60xB+pnJph+dkl186gYR3AzgtH6OcrS37PKK+ZX9n8OeCShIn7LIVvZcCrQ2CHBVn0aYsa04KDWuddtXBPOH12L14TWwWzPZA7UNDmSjAov6MEGnlvsyKpfuL+XrnRam4d/5DhJjytnqT/5INLMewEs3M8XYvotW+nWvOPyuLjYM7FIKEku0KrlKvS1G+3+tXxNLy16biFznFfLbei2T9P0UJIYEs2OTK8X3/zGGVlG2+IW2pi9prjn/h1EWTVotChJTYrlq7T4o/jymdpG0EeCbjaK7LJJiCS1CQWIKrv0fgYcXLBoHcE5MLSNpI9CbG8Xh2yIplsAiFCTG0LKV8XcKnIdjbBlJK1Hn4kbpvH+PpFjCilCQmAPLVWrtX3yTdYm54vteyX1zzKisaEdB4o5hkzq5JbUnAfnduFv30k9Fbm8W8jf1UiOJeylIH1LLVWp/COC7fWjdU0vf18sOjgw/1lORhG2mIH0KbKhSv0mht/apfdi2P/KK7gVhNydxHwXpY2pDldo3FLisjyOEab3dK7ofCbMxiXsoSB9TW1itXeQoftDHEcK1VrzDK7mPhNucrF0UpM95DZXrIyq6s89jBG+vuhci27yiuz34puSupCAWZJct1x4SwZUWjDLnCKr4MiSzrVl83bdsnzWq+ShIVCR7qJMbrb0Bgu9BcHoPZQxuVU8U2xuL3DvwXmkZbGRdaQpiSSRD1fo1qnq/JeOcOMY/Q7E9Lb9znMyfglj0isxV6/dD9Ro7RpLDgL/dm5bbsNZ93o6Z4p+CgsTPfNaOi8r1fMvRR6F4bT/Hal/FK8D2A0X3K/2cw4beFMSGFE6YIVuZWCWQB/s0lgKybUHmtE38zt6jCVCQPr0S52qbK0/cDZF18Y6mT8D3t3kjr98db1+7u1EQC/PJlevnQLR9Wfwb4xhPgbJM40ZvrfvzOPolqQcFsTStXHXiPVD5otnx5ClV/45maZhfXj0LaApi9hXYU/Whav1OVf1oT0Vm33xfC6dsPFT8raah+gNRloJYHOPiu/csmT7F/wKgl0Y3pkwI9NZG0X0gupqDW4mCWJ5ttly7QgSR/LlVBA8+P4X1v1jr7rf82NaMR0GsiWL2QXLV+i1QbX9/b9ifn4nqxxql4b8PWyCt+yhIApJfeP8zC51fTe8C8I6uxxV8MePPW7O/9Nv7ut7LDfx/kKS8BnLl2uUQPATgFUFmFmC/Km7wSu59QdZzzcwE+A6SoFfGUGXiJoV0vE1XgYccWTDCZ330Hi4F6Z1hbBVefe/3T3t++qxdKrM8aEfwnPq6sVkavje2oQa8EQVJWMALd9aWORn5HKCvPHF0Ab7a8qfWHBz5nZ8m7EhWj0tBrI5n5uGylfpGgX786L/qtKqsa5b40BsTUVIQE1RN19ytmVyjvguQ01raWnOouHSP6ZZprU9BEpp8bqz2Fu9aN3FfPpc03BQkaYlx3lgJUJBYcbNZ0ghQkKQlxnljJUBBYsXNZkkjQEGSlhjnjZUABYkVN5sljQAFSVpinDdWArEIkqvUNNZTBWmm/havtHRzkKVpX5Mrj2+GOJts4+AVXeOvX+MN2lApiG0vre7moSDd8ep6NQXpGplVGyiI4TgoiGHAhstTENOA+TuIYcJmy1MQs3z5OwiAbGViRbM4/HXDqI2UpyBGsB4vmvaPWIs/uWfJ9NT0IwJ5Cjp/a6N07tOGkUdanoJEivPlxdIuSLY8cZuI/PWLZFpQ2Tr/8C/vfHbjhb80jD6S8hQkEoyzF0mzIEPVPRerttpPhD3rREIK1AW61SsO2/hUqV8Lk4JQEGMEspXaZwV43xwNHvGBrQeL7jeNDdFjYQrSI8BO29P6DpIbrb0XDj7fic+Rf1e9t9WSuw6tdScDrY9xEQUxDDuVguzenckd+L1HAenmi6cPqcjW5pTeY9NzASkIBYmcQLYysVEgL37zSNfl/wOCv/EKrhVPe6IgXefX3Ya0vYMceRin6L8C+M3uSJ28Wr4ExTavlP9Ob3V6201BeuPXcXfaBMlWaqMClDqCCbpAsU3nOTuaq8/7r6BbolxHQaKkOUOtNAmSG9uzHP6RP+tG/KN7RXBnY587ii3iR1x8znIUxDDtNAkyVKl9VYF3mUMq3xb1P9EoDX/JXI9fr0xBDJNOiyDZSv3DAo3li6MV+Kwj/mijsPQJw/GBghgmnAZBcjtqZ2I+vg3FBYZxnlh+SoG/zbRaowfWvH6vqb4UxBTZF+umQZBspXa7ADcaRjlb+QlV3GPqC6wpiOFUB12QhWPjFzq+8xiAMw2j7FS+fdlK+WDRjeShn8eaUZBO2Hv890EXZKhae0AVV/eIKcLter/jy+iBEfcHURSlIFFQnKPGIAsyVKlfpdB/Moyw+/KKg4DunO84o88W8v/bfYHjOyhIL/QC7B1kQXKV+rcAfWsADH1aIk8pWuVmcenfhR2AgoQlF3DfoAqSq9Q2ANgWEEN/l4k8PB/4QJh3EwpiOLpBFOTse3/8Kr81/3sAzjGML5LyIrquURjeEaYYBQlDrYs9gyhItlzbKYKRLjD0b6niu17JvSTsABQkLLmA+wZNkFy5fglEHw94/L4vU8dZ0bz2vIfDDkJBwpILuG/gBKnUvwboioDH7+uy9iUpzaL7/l6GoCC90Auwd5AEyVYnrxb1HwhwbBuWTDnIXHCg+LrxXoahIL3QC7B3YARp30a7/6L/hOANAY7d/yWCzV7B3dLrIBSkV4Id9g+KILnyxM0QucUwrqjKP70gc+hNe1e/6XCvBSlIrwRTIMjR22j9JwH5DcO4Iimvgvc1C+6DURSjIFFQnKPGILyD5Cq1TwP4gGFUkZQX4GuNontFJMXaz3fhA3SiQjlznaQLYu42WjPcVeStzUI+sj9DUxAzOb1UNemCZCu1RwVYZhhTNOVV7/FKw38ZTbGjVShIlDRnqJVkQbLlidUiMmYYUUTlZR8UF3ul/M8iKkhBogQ5W62kCnLkNtp5+GHv328VB2VARNY0CvnRqLvxHSRqoifVS6og+R21U735MgJtX3Ol5xrG1Gv5x72ia+SyewrSazQd9idVkGPHWjQ26bZarRGItC9OdAzjClXeAa48EPGttscGoSChIgm+KemCHDvp0Oj42zWTKUH13cFPH8dK+QevmL/GVCcKYorsi3UHRZCXRKnWr/FVRwT4A8PoOpYX4PmW4C0HC+6THReHXEBBQoILum3QBGmf++w7f3KGf0ZmvSpGRLAoKIvI16m/xSst3Rx53RMKUhCTdNt/Rx/gx0Bnq/U3iuo6AB8yjHGm8j+eyviXPbd66QGTvSmISboDLsgxdNnK5AqBvxbA5YZxHi8v+KBXcNuXwBj9oSBG8Q72O8jJ6IbGakX1j9yKe75JrAJ8pVF0rzTZ41htCmKY8iB/xJoJ3VmVn2bn4YXrVbX9p+HTjeD19XJvZPhfjNQ+qSgFMUw5bYIcw7mwWrvI8XUjRFZGiVgFo82CuybKmnPVoiCGSadVkGNYj377Ij4SzRfM6f84mPe2Xm+j7SZyCtINrRBr0y7IS5/lxybXwffbXzYX+tmFqnp9szQc9uGgIdLj1byhoHWziYIcp7WkWl88pXoDBOugkG44Anh8QebQ5VHcRttNX76DdEMrxFoK8nJoQ+XJNyvaogS/bEVFVjYL+V0hIuhpCwXpCV/nzRRkdka5Su1PRfBXqvj9uUnqLq84HOkv+52TO7qCggQlFXIdBekMLleuXwfR69tXscyw+v9U5I+jvI2280THV1CQbmiFWEtBgkEbqo6/xlfnhpOfsS4iH28U8m15+vJDQQxjpyDdAW5/96+I3nD0cdI6DnWWR30bbTcTUZBuaIVYS0FCQAOQHZtc6bR0qFGK/jbabiaiIN3QCrGWgoSAZtEWCmI4DApiGLDh8hTENOABvh/EMDorylMQwzHwHcQwYMPlKYhpwHwHMUzYbHkKYpbvQN9yaxidFeUpiOEY+BHLMGDD5SmIacD8iGWYsNnyFMQsX37EMszXdHkKYpgwP2IZBmy4PAUxDZgfsQwTNluegpjla+1HLN93vmH46ANR3nH8ZRBnk22H8Yput3dkdn0E4w3aE1n5EatrVNxgGwEKYlsinMcqAhTEqjg4jG0EKIhtiXAeqwhQEKvi4DC2EaAgtiXCeawiQEGsioPD2EaAgtiWCOexigAFsSoODmMbAQpiWyKcxyoCFMSqODiMbQQoiG2JcB6rCFAQq+LgMLYRoCC2JcJ5rCJAQayKg8PYRoCC2JYI57GKAAWxKg4OYxsBCmJbIpzHKgIUxKo4OIxtBCiIbYlwHqsIUBCr4uAwthGgILYlwnmsIkBBrIqDw9hGgILYlgjnsYoABbEqDg5jGwEKYlsinMcqAhTEqjg4jG0EKIhtiXAeqwhQEKvi4DC2EaAgtiXCeawiQEGsioPD2EaAgtiWCOexigAFsSoODmMbAQpiWyKcxyoCFMSqODiMbQQoiG2JcB6rCFAQq+LgMLYRGBhBFu6sLbMNLudJPoGDa1zjTymO5Sm3yY+CJ0grAQqS1uR57kAEKEggTFyUVgIUJK3J89yBCFCQQJi4KK0EKEhak+e5AxGgIIEwcVFaCVCQtCbPcwciQEECYeKitBKgIGlNnucORICCBMLERWklQEHSmjzPHYgABQmEiYvSSoCCpDV5njsQAQoSCBMXpZUABUlr8jx3IAIUJBAmLkorAQqS1uR57kAE/h+Qe+4jrx0/gQAAAABJRU5ErkJggg==;" vertex="1" parent="1">
          <mxGeometry x="277" y="937.5" width="111" height="111" as="geometry" />
        </mxCell>
        <mxCell id="C0XAzO81hBhKXg0jQggx-28" value="&lt;h3&gt;数据源&lt;/h3&gt;" style="rounded=1;whiteSpace=wrap;html=1;glass=0;shadow=0;" vertex="1" parent="1">
          <mxGeometry x="78" y="822" width="110" height="30" as="geometry" />
        </mxCell>
        <mxCell id="C0XAzO81hBhKXg0jQggx-31" value="&lt;h3&gt;时序数据库&lt;/h3&gt;" style="rounded=1;whiteSpace=wrap;html=1;glass=0;shadow=0;" vertex="1" parent="1">
          <mxGeometry x="474" y="822" width="110" height="30" as="geometry" />
        </mxCell>
        <mxCell id="C0XAzO81hBhKXg0jQggx-32" value="" style="endArrow=classic;html=1;" edge="1" parent="1">
          <mxGeometry width="50" height="50" relative="1" as="geometry">
            <mxPoint x="584" y="1082.9999999999998" as="sourcePoint" />
            <mxPoint x="654" y="1083" as="targetPoint" />
          </mxGeometry>
        </mxCell>
        <mxCell id="C0XAzO81hBhKXg0jQggx-34" value="&lt;font color=&quot;#808080&quot; style=&quot;font-size: 10px&quot;&gt;数据库&lt;/font&gt;" style="text;html=1;strokeColor=none;fillColor=none;align=center;verticalAlign=middle;whiteSpace=wrap;rounded=0;" vertex="1" parent="1">
          <mxGeometry x="75.5" y="878.5" width="40" height="20" as="geometry" />
        </mxCell>
        <mxCell id="C0XAzO81hBhKXg0jQggx-35" value="&lt;font color=&quot;#808080&quot; style=&quot;font-size: 10px&quot;&gt;传感器&lt;/font&gt;" style="text;html=1;strokeColor=none;fillColor=none;align=center;verticalAlign=middle;whiteSpace=wrap;rounded=0;" vertex="1" parent="1">
          <mxGeometry x="74.5" y="949" width="40.5" height="20" as="geometry" />
        </mxCell>
        <mxCell id="C0XAzO81hBhKXg0jQggx-36" value="&lt;font color=&quot;#808080&quot; style=&quot;font-size: 10px&quot;&gt;应用&lt;/font&gt;" style="text;html=1;strokeColor=none;fillColor=none;align=center;verticalAlign=middle;whiteSpace=wrap;rounded=0;" vertex="1" parent="1">
          <mxGeometry x="75.5" y="1017.5" width="40" height="20" as="geometry" />
        </mxCell>
        <mxCell id="C0XAzO81hBhKXg0jQggx-37" value="&lt;font color=&quot;#808080&quot; style=&quot;font-size: 10px&quot;&gt;系统&lt;/font&gt;" style="text;html=1;strokeColor=none;fillColor=none;align=center;verticalAlign=middle;whiteSpace=wrap;rounded=0;" vertex="1" parent="1">
          <mxGeometry x="74.5" y="1087.5" width="40" height="20" as="geometry" />
        </mxCell>
        <mxCell id="C0XAzO81hBhKXg0jQggx-38" value="&lt;font color=&quot;#808080&quot; style=&quot;font-size: 12px&quot;&gt;用户界面&lt;/font&gt;" style="text;html=1;strokeColor=none;fillColor=none;align=center;verticalAlign=middle;whiteSpace=wrap;rounded=0;" vertex="1" parent="1">
          <mxGeometry x="669.75" y="845" width="52" height="20" as="geometry" />
        </mxCell>
        <mxCell id="C0XAzO81hBhKXg0jQggx-39" value="&lt;font color=&quot;#808080&quot; style=&quot;font-size: 12px&quot;&gt;监控&lt;/font&gt;" style="text;html=1;strokeColor=none;fillColor=none;align=center;verticalAlign=middle;whiteSpace=wrap;rounded=0;" vertex="1" parent="1">
          <mxGeometry x="670.25" y="1010" width="51.5" height="20" as="geometry" />
        </mxCell>
        <mxCell id="C0XAzO81hBhKXg0jQggx-69" value="" style="endArrow=none;html=1;exitX=1;exitY=0.5;exitDx=0;exitDy=0;" edge="1" parent="1" source="C0XAzO81hBhKXg0jQggx-22">
          <mxGeometry width="50" height="50" relative="1" as="geometry">
            <mxPoint x="180" y="945" as="sourcePoint" />
            <mxPoint x="185" y="888" as="targetPoint" />
          </mxGeometry>
        </mxCell>
        <mxCell id="C0XAzO81hBhKXg0jQggx-70" value="" style="endArrow=none;html=1;exitX=1;exitY=0.5;exitDx=0;exitDy=0;" edge="1" parent="1">
          <mxGeometry width="50" height="50" relative="1" as="geometry">
            <mxPoint x="150" y="962.4999999999998" as="sourcePoint" />
            <mxPoint x="189" y="962" as="targetPoint" />
          </mxGeometry>
        </mxCell>
        <mxCell id="C0XAzO81hBhKXg0jQggx-71" value="" style="endArrow=none;html=1;exitX=1;exitY=0.5;exitDx=0;exitDy=0;" edge="1" parent="1">
          <mxGeometry width="50" height="50" relative="1" as="geometry">
            <mxPoint x="149" y="1030.4999999999998" as="sourcePoint" />
            <mxPoint x="188" y="1030" as="targetPoint" />
          </mxGeometry>
        </mxCell>
        <mxCell id="C0XAzO81hBhKXg0jQggx-72" value="" style="endArrow=none;html=1;exitX=1;exitY=0.5;exitDx=0;exitDy=0;" edge="1" parent="1">
          <mxGeometry width="50" height="50" relative="1" as="geometry">
            <mxPoint x="149" y="1097.66" as="sourcePoint" />
            <mxPoint x="188" y="1097.16" as="targetPoint" />
          </mxGeometry>
        </mxCell>
        <mxCell id="C0XAzO81hBhKXg0jQggx-73" value="" style="endArrow=classic;html=1;" edge="1" parent="1">
          <mxGeometry width="50" height="50" relative="1" as="geometry">
            <mxPoint x="188" y="993" as="sourcePoint" />
            <mxPoint x="276" y="993" as="targetPoint" />
          </mxGeometry>
        </mxCell>
      </root>
    </mxGraphModel>
  </diagram>
</mxfile>
